<?xml version="1.0" encoding="UTF-8" standalone="no"?><svg xmlns="http://www.w3.org/2000/svg" xmlns:xlink="http://www.w3.org/1999/xlink" contentScriptType="application/ecmascript" contentStyleType="text/css" height="334px" preserveAspectRatio="none" style="width:688px;height:334px;" version="1.1" viewBox="0 0 688 334" width="688px" zoomAndPan="magnify"><defs><filter height="300%" id="f10blb82e0493j" width="300%" x="-1" y="-1"><feGaussianBlur result="blurOut" stdDeviation="2.0"/><feColorMatrix in="blurOut" result="blurOut2" type="matrix" values="0 0 0 0 0 0 0 0 0 0 0 0 0 0 0 0 0 0 .4 0"/><feOffset dx="4.0" dy="4.0" in="blurOut2" result="blurOut3"/><feBlend in="SourceGraphic" in2="blurOut3" mode="normal"/></filter></defs><g><line style="stroke: #A80036; stroke-width: 1.0; stroke-dasharray: 5.0,5.0;" x1="65" x2="65" y1="44.2719" y2="287.216"/><line style="stroke: #A80036; stroke-width: 1.0; stroke-dasharray: 5.0,5.0;" x1="360" x2="360" y1="44.2719" y2="287.216"/><line style="stroke: #A80036; stroke-width: 1.0; stroke-dasharray: 5.0,5.0;" x1="612.5" x2="612.5" y1="44.2719" y2="287.216"/><rect fill="#FEFECE" filter="url(#f10blb82e0493j)" height="34.2719" style="stroke: #A80036; stroke-width: 1.5;" width="116" x="5" y="5"/><text fill="#000000" font-family="sans-serif" font-size="14" lengthAdjust="spacingAndGlyphs" textLength="102" x="12" y="28.2399">本地master分支</text><rect fill="#FEFECE" filter="url(#f10blb82e0493j)" height="34.2719" style="stroke: #A80036; stroke-width: 1.5;" width="116" x="5" y="286.216"/><text fill="#000000" font-family="sans-serif" font-size="14" lengthAdjust="spacingAndGlyphs" textLength="102" x="12" y="309.4559">本地master分支</text><rect fill="#FEFECE" filter="url(#f10blb82e0493j)" height="34.2719" style="stroke: #A80036; stroke-width: 1.5;" width="94" x="311" y="5"/><text fill="#000000" font-family="sans-serif" font-size="14" lengthAdjust="spacingAndGlyphs" textLength="80" x="318" y="28.2399">本地dev分支</text><rect fill="#FEFECE" filter="url(#f10blb82e0493j)" height="34.2719" style="stroke: #A80036; stroke-width: 1.5;" width="94" x="311" y="286.216"/><text fill="#000000" font-family="sans-serif" font-size="14" lengthAdjust="spacingAndGlyphs" textLength="80" x="318" y="309.4559">本地dev分支</text><rect fill="#FEFECE" filter="url(#f10blb82e0493j)" height="34.2719" style="stroke: #A80036; stroke-width: 1.5;" width="127" x="547.5" y="5"/><text fill="#000000" font-family="sans-serif" font-size="14" lengthAdjust="spacingAndGlyphs" textLength="113" x="554.5" y="28.2399">remote的dev分支</text><rect fill="#FEFECE" filter="url(#f10blb82e0493j)" height="34.2719" style="stroke: #A80036; stroke-width: 1.5;" width="127" x="547.5" y="286.216"/><text fill="#000000" font-family="sans-serif" font-size="14" lengthAdjust="spacingAndGlyphs" textLength="113" x="554.5" y="309.4559">remote的dev分支</text><polygon fill="#A80036" points="348,75.0959,358,79.0959,348,83.0959,352,79.0959" style="stroke: #A80036; stroke-width: 1.0;"/><line style="stroke: #A80036; stroke-width: 1.0;" x1="65" x2="354" y1="79.0959" y2="79.0959"/><text fill="#000000" font-family="sans-serif" font-size="13" lengthAdjust="spacingAndGlyphs" textLength="178" x="72" y="73.3519">创建本地分支(git checkout -b)</text><line style="stroke: #A80036; stroke-width: 1.0;" x1="360" x2="402" y1="111.9199" y2="111.9199"/><line style="stroke: #A80036; stroke-width: 1.0;" x1="402" x2="402" y1="111.9199" y2="124.9199"/><line style="stroke: #A80036; stroke-width: 1.0;" x1="361" x2="402" y1="124.9199" y2="124.9199"/><polygon fill="#A80036" points="371,120.9199,361,124.9199,371,128.9199,367,124.9199" style="stroke: #A80036; stroke-width: 1.0;"/><text fill="#000000" font-family="sans-serif" font-size="13" lengthAdjust="spacingAndGlyphs" textLength="179" x="367" y="106.1759">git工作流(git add, git commit)</text><polygon fill="#A80036" points="601,153.744,611,157.744,601,161.744,605,157.744" style="stroke: #A80036; stroke-width: 1.0;"/><line style="stroke: #A80036; stroke-width: 1.0;" x1="360" x2="607" y1="157.744" y2="157.744"/><text fill="#000000" font-family="sans-serif" font-size="13" lengthAdjust="spacingAndGlyphs" textLength="229" x="367" y="152">创建远端分支并推送(git push -u origin)</text><line style="stroke: #A80036; stroke-width: 1.0;" x1="360" x2="402" y1="190.568" y2="190.568"/><line style="stroke: #A80036; stroke-width: 1.0;" x1="402" x2="402" y1="190.568" y2="203.568"/><line style="stroke: #A80036; stroke-width: 1.0;" x1="361" x2="402" y1="203.568" y2="203.568"/><polygon fill="#A80036" points="371,199.568,361,203.568,371,207.568,367,203.568" style="stroke: #A80036; stroke-width: 1.0;"/><text fill="#000000" font-family="sans-serif" font-size="13" lengthAdjust="spacingAndGlyphs" textLength="179" x="367" y="184.824">git工作流(git add, git commit)</text><polygon fill="#A80036" points="601,232.392,611,236.392,601,240.392,605,236.392" style="stroke: #A80036; stroke-width: 1.0;"/><line style="stroke: #A80036; stroke-width: 1.0;" x1="360" x2="607" y1="236.392" y2="236.392"/><text fill="#000000" font-family="sans-serif" font-size="13" lengthAdjust="spacingAndGlyphs" textLength="196" x="367" y="230.648">推送到远端本地dev分支(git push)</text><polygon fill="#A80036" points="76,265.216,66,269.216,76,273.216,72,269.216" style="stroke: #A80036; stroke-width: 1.0;"/><line style="stroke: #A80036; stroke-width: 1.0;" x1="70" x2="359" y1="269.216" y2="269.216"/><text fill="#000000" font-family="sans-serif" font-size="13" lengthAdjust="spacingAndGlyphs" textLength="271" x="82" y="263.472">合并dev分支到本地master分支(git merge dev)</text><!--MD5=[62715823604a382c156f4bc59fce70f6]
@startuml
本地master分支 -> 本地dev分支: 创建本地分支(git checkout -b)
本地dev分支 -> 本地dev分支: git工作流(git add, git commit)
本地dev分支 -> remote的dev分支: 创建远端分支并推送(git push -u origin)
本地dev分支 -> 本地dev分支: git工作流(git add, git commit)
本地dev分支 -> remote的dev分支: 推送到远端本地dev分支(git push)
本地master分支 <- 本地dev分支: 合并dev分支到本地master分支(git merge dev)
@enduml

PlantUML version 1.2020.19(Mon Oct 12 23:10:01 CST 2020)
(GPL source distribution)
Java Runtime: OpenJDK Runtime Environment
JVM: OpenJDK 64-Bit Server VM
Default Encoding: UTF-8
Language: en
Country: US
--></g></svg>