<?xml version="1.0" encoding="UTF-8" standalone="no"?><svg xmlns="http://www.w3.org/2000/svg" xmlns:xlink="http://www.w3.org/1999/xlink" contentScriptType="application/ecmascript" contentStyleType="text/css" height="462px" preserveAspectRatio="none" style="width:595px;height:462px;" version="1.1" viewBox="0 0 595 462" width="595px" zoomAndPan="magnify"><defs><filter height="300%" id="fa7xpgfs8s0lp" width="300%" x="-1" y="-1"><feGaussianBlur result="blurOut" stdDeviation="2.0"/><feColorMatrix in="blurOut" result="blurOut2" type="matrix" values="0 0 0 0 0 0 0 0 0 0 0 0 0 0 0 0 0 0 .4 0"/><feOffset dx="4.0" dy="4.0" in="blurOut2" result="blurOut3"/><feBlend in="SourceGraphic" in2="blurOut3" mode="normal"/></filter></defs><g><line style="stroke: #A80036; stroke-width: 1.0; stroke-dasharray: 5.0,5.0;" x1="152" x2="152" y1="44.2719" y2="415.3361"/><line style="stroke: #A80036; stroke-width: 1.0; stroke-dasharray: 5.0,5.0;" x1="357" x2="357" y1="44.2719" y2="415.3361"/><line style="stroke: #A80036; stroke-width: 1.0; stroke-dasharray: 5.0,5.0;" x1="519.5" x2="519.5" y1="44.2719" y2="415.3361"/><rect fill="#FEFECE" filter="url(#fa7xpgfs8s0lp)" height="34.2719" style="stroke: #A80036; stroke-width: 1.5;" width="116" x="92" y="5"/><text fill="#000000" font-family="sans-serif" font-size="14" lengthAdjust="spacingAndGlyphs" textLength="102" x="99" y="28.2399">本地master分支</text><rect fill="#FEFECE" filter="url(#fa7xpgfs8s0lp)" height="34.2719" style="stroke: #A80036; stroke-width: 1.5;" width="116" x="92" y="414.3361"/><text fill="#000000" font-family="sans-serif" font-size="14" lengthAdjust="spacingAndGlyphs" textLength="102" x="99" y="437.576">本地master分支</text><rect fill="#FEFECE" filter="url(#fa7xpgfs8s0lp)" height="34.2719" style="stroke: #A80036; stroke-width: 1.5;" width="94" x="308" y="5"/><text fill="#000000" font-family="sans-serif" font-size="14" lengthAdjust="spacingAndGlyphs" textLength="80" x="315" y="28.2399">本地dev分支</text><rect fill="#FEFECE" filter="url(#fa7xpgfs8s0lp)" height="34.2719" style="stroke: #A80036; stroke-width: 1.5;" width="94" x="308" y="414.3361"/><text fill="#000000" font-family="sans-serif" font-size="14" lengthAdjust="spacingAndGlyphs" textLength="80" x="315" y="437.576">本地dev分支</text><rect fill="#FEFECE" filter="url(#fa7xpgfs8s0lp)" height="34.2719" style="stroke: #A80036; stroke-width: 1.5;" width="127" x="454.5" y="5"/><text fill="#000000" font-family="sans-serif" font-size="14" lengthAdjust="spacingAndGlyphs" textLength="113" x="461.5" y="28.2399">remote的dev分支</text><rect fill="#FEFECE" filter="url(#fa7xpgfs8s0lp)" height="34.2719" style="stroke: #A80036; stroke-width: 1.5;" width="127" x="454.5" y="414.3361"/><text fill="#000000" font-family="sans-serif" font-size="14" lengthAdjust="spacingAndGlyphs" textLength="113" x="461.5" y="437.576">remote的dev分支</text><polygon fill="#A80036" points="345,80.0959,355,84.0959,345,88.0959,349,84.0959" style="stroke: #A80036; stroke-width: 1.0;"/><line style="stroke: #A80036; stroke-width: 1.0;" x1="152" x2="351" y1="84.0959" y2="84.0959"/><text fill="#000000" font-family="sans-serif" font-size="13" lengthAdjust="spacingAndGlyphs" textLength="78" x="159" y="78.3519">创建本地分支</text><path d="M5,59.2719 L5,87.2719 L143,87.2719 L143,69.2719 L133,59.2719 L5,59.2719 " fill="#FBFB77" filter="url(#fa7xpgfs8s0lp)" style="stroke: #A80036; stroke-width: 1.0;"/><path d="M133,59.2719 L133,69.2719 L143,69.2719 L133,59.2719 " fill="#FBFB77" style="stroke: #A80036; stroke-width: 1.0;"/><text fill="#000000" font-family="sans-serif" font-size="13" lengthAdjust="spacingAndGlyphs" textLength="117" x="11" y="79.3519">git checkout -b dev</text><line style="stroke: #A80036; stroke-width: 1.0;" x1="357" x2="399" y1="139.244" y2="139.244"/><line style="stroke: #A80036; stroke-width: 1.0;" x1="399" x2="399" y1="139.244" y2="152.244"/><line style="stroke: #A80036; stroke-width: 1.0;" x1="358" x2="399" y1="152.244" y2="152.244"/><polygon fill="#A80036" points="368,148.244,358,152.244,368,156.244,364,152.244" style="stroke: #A80036; stroke-width: 1.0;"/><text fill="#000000" font-family="sans-serif" font-size="13" lengthAdjust="spacingAndGlyphs" textLength="55" x="364" y="133.5">git工作流</text><path d="M168,102.0959 L168,168.0959 L348,168.0959 L348,112.0959 L338,102.0959 L168,102.0959 " fill="#FBFB77" filter="url(#fa7xpgfs8s0lp)" style="stroke: #A80036; stroke-width: 1.0;"/><path d="M338,102.0959 L338,112.0959 L348,112.0959 L338,102.0959 " fill="#FBFB77" style="stroke: #A80036; stroke-width: 1.0;"/><text fill="#000000" font-family="sans-serif" font-size="13" lengthAdjust="spacingAndGlyphs" textLength="159" x="174" y="122.1759">工作区变更(新增,修改,删除)</text><text fill="#000000" font-family="sans-serif" font-size="13" lengthAdjust="spacingAndGlyphs" textLength="49" x="174" y="141">git add .</text><text fill="#000000" font-family="sans-serif" font-size="13" lengthAdjust="spacingAndGlyphs" textLength="102" x="174" y="159.824">git commit -m ""</text><polygon fill="#A80036" points="508,203.392,518,207.392,508,211.392,512,207.392" style="stroke: #A80036; stroke-width: 1.0;"/><line style="stroke: #A80036; stroke-width: 1.0;" x1="357" x2="514" y1="207.392" y2="207.392"/><text fill="#000000" font-family="sans-serif" font-size="13" lengthAdjust="spacingAndGlyphs" textLength="130" x="364" y="201.648">创建并推送到远端分支</text><path d="M196,182.568 L196,210.568 L348,210.568 L348,192.568 L338,182.568 L196,182.568 " fill="#FBFB77" filter="url(#fa7xpgfs8s0lp)" style="stroke: #A80036; stroke-width: 1.0;"/><path d="M338,182.568 L338,192.568 L348,192.568 L338,182.568 " fill="#FBFB77" style="stroke: #A80036; stroke-width: 1.0;"/><text fill="#000000" font-family="sans-serif" font-size="13" lengthAdjust="spacingAndGlyphs" textLength="131" x="202" y="202.648">git push -u origin/dev</text><line style="stroke: #A80036; stroke-width: 1.0;" x1="357" x2="399" y1="271.952" y2="271.952"/><line style="stroke: #A80036; stroke-width: 1.0;" x1="399" x2="399" y1="271.952" y2="284.952"/><line style="stroke: #A80036; stroke-width: 1.0;" x1="358" x2="399" y1="284.952" y2="284.952"/><polygon fill="#A80036" points="368,280.952,358,284.952,368,288.952,364,284.952" style="stroke: #A80036; stroke-width: 1.0;"/><text fill="#000000" font-family="sans-serif" font-size="13" lengthAdjust="spacingAndGlyphs" textLength="55" x="364" y="266.208">git工作流</text><path d="M168,225.392 L168,310.392 L348,310.392 L348,235.392 L338,225.392 L168,225.392 " fill="#FBFB77" filter="url(#fa7xpgfs8s0lp)" style="stroke: #A80036; stroke-width: 1.0;"/><path d="M338,225.392 L338,235.392 L348,235.392 L338,225.392 " fill="#FBFB77" style="stroke: #A80036; stroke-width: 1.0;"/><text fill="#000000" font-family="sans-serif" font-size="13" lengthAdjust="spacingAndGlyphs" textLength="159" x="174" y="245.472">工作区变更(新增,修改,删除)</text><text fill="#000000" font-family="sans-serif" font-size="13" lengthAdjust="spacingAndGlyphs" textLength="49" x="174" y="264.296">git add .</text><text fill="#000000" font-family="sans-serif" font-size="13" lengthAdjust="spacingAndGlyphs" textLength="102" x="174" y="283.12">git commit -m ""</text><text fill="#000000" font-family="sans-serif" font-size="13" lengthAdjust="spacingAndGlyphs" textLength="49" x="174" y="301.9441">git push</text><polygon fill="#A80036" points="508,345.5121,518,349.5121,508,353.5121,512,349.5121" style="stroke: #A80036; stroke-width: 1.0;"/><line style="stroke: #A80036; stroke-width: 1.0;" x1="357" x2="514" y1="349.5121" y2="349.5121"/><text fill="#000000" font-family="sans-serif" font-size="13" lengthAdjust="spacingAndGlyphs" textLength="139" x="364" y="343.7681">推送到远端本地dev分支</text><path d="M278,324.6881 L278,352.6881 L348,352.6881 L348,334.6881 L338,324.6881 L278,324.6881 " fill="#FBFB77" filter="url(#fa7xpgfs8s0lp)" style="stroke: #A80036; stroke-width: 1.0;"/><path d="M338,324.6881 L338,334.6881 L348,334.6881 L338,324.6881 " fill="#FBFB77" style="stroke: #A80036; stroke-width: 1.0;"/><text fill="#000000" font-family="sans-serif" font-size="13" lengthAdjust="spacingAndGlyphs" textLength="49" x="284" y="344.7681">git push</text><polygon fill="#A80036" points="163,388.3361,153,392.3361,163,396.3361,159,392.3361" style="stroke: #A80036; stroke-width: 1.0;"/><line style="stroke: #A80036; stroke-width: 1.0;" x1="157" x2="356" y1="392.3361" y2="392.3361"/><text fill="#000000" font-family="sans-serif" font-size="13" lengthAdjust="spacingAndGlyphs" textLength="181" x="169" y="386.5921">合并dev分支到本地master分支</text><path d="M40,367.5121 L40,395.5121 L143,395.5121 L143,377.5121 L133,367.5121 L40,367.5121 " fill="#FBFB77" filter="url(#fa7xpgfs8s0lp)" style="stroke: #A80036; stroke-width: 1.0;"/><path d="M133,367.5121 L133,377.5121 L143,377.5121 L133,367.5121 " fill="#FBFB77" style="stroke: #A80036; stroke-width: 1.0;"/><text fill="#000000" font-family="sans-serif" font-size="13" lengthAdjust="spacingAndGlyphs" textLength="82" x="46" y="387.5921">git merge dev</text><!--MD5=[a23f8ec8893be6bf2896e523013459bd]
@startuml
本地master分支 -> 本地dev分支: 创建本地分支
note left
git checkout -b dev
end note
本地dev分支 -> 本地dev分支: git工作流
note left
工作区变更(新增,修改,删除)
git add .
git commit -m ""
end note
本地dev分支 -> remote的dev分支: 创建并推送到远端分支
note left
git push -u origin/dev
end note
本地dev分支 -> 本地dev分支: git工作流
note left
工作区变更(新增,修改,删除)
git add .
git commit -m ""
git push
end note
本地dev分支 -> remote的dev分支: 推送到远端本地dev分支
note left
git push
end note
本地master分支 <- 本地dev分支: 合并dev分支到本地master分支
note left
git merge dev
end note
@enduml

PlantUML version 1.2020.19(Mon Oct 12 23:10:01 CST 2020)
(GPL source distribution)
Java Runtime: OpenJDK Runtime Environment
JVM: OpenJDK 64-Bit Server VM
Default Encoding: UTF-8
Language: en
Country: US
--></g></svg>