<?xml version="1.0" encoding="UTF-8" standalone="no"?><svg xmlns="http://www.w3.org/2000/svg" xmlns:xlink="http://www.w3.org/1999/xlink" contentScriptType="application/ecmascript" contentStyleType="text/css" height="438px" preserveAspectRatio="none" style="width:424px;height:438px;" version="1.1" viewBox="0 0 424 438" width="424px" zoomAndPan="magnify"><defs><filter height="300%" id="f1w5v9c1ofznni" width="300%" x="-1" y="-1"><feGaussianBlur result="blurOut" stdDeviation="2.0"/><feColorMatrix in="blurOut" result="blurOut2" type="matrix" values="0 0 0 0 0 0 0 0 0 0 0 0 0 0 0 0 0 0 .4 0"/><feOffset dx="4.0" dy="4.0" in="blurOut2" result="blurOut3"/><feBlend in="SourceGraphic" in2="blurOut3" mode="normal"/></filter></defs><g><line style="stroke: #A80036; stroke-width: 1.0; stroke-dasharray: 5.0,5.0;" x1="39" x2="39" y1="38.2969" y2="398.4922"/><line style="stroke: #A80036; stroke-width: 1.0; stroke-dasharray: 5.0,5.0;" x1="217.5" x2="217.5" y1="38.2969" y2="398.4922"/><rect fill="#FEFECE" filter="url(#f1w5v9c1ofznni)" height="30.2969" style="stroke: #A80036; stroke-width: 1.5;" width="58" x="8" y="3"/><text fill="#000000" font-family="sans-serif" font-size="14" lengthAdjust="spacingAndGlyphs" textLength="44" x="15" y="22.9951">github</text><rect fill="#FEFECE" filter="url(#f1w5v9c1ofznni)" height="30.2969" style="stroke: #A80036; stroke-width: 1.5;" width="58" x="8" y="397.4922"/><text fill="#000000" font-family="sans-serif" font-size="14" lengthAdjust="spacingAndGlyphs" textLength="44" x="15" y="417.4873">github</text><rect fill="#FEFECE" filter="url(#f1w5v9c1ofznni)" height="30.2969" style="stroke: #A80036; stroke-width: 1.5;" width="45" x="193.5" y="3"/><text fill="#000000" font-family="sans-serif" font-size="14" lengthAdjust="spacingAndGlyphs" textLength="31" x="200.5" y="22.9951">local</text><rect fill="#FEFECE" filter="url(#f1w5v9c1ofznni)" height="30.2969" style="stroke: #A80036; stroke-width: 1.5;" width="45" x="193.5" y="397.4922"/><text fill="#000000" font-family="sans-serif" font-size="14" lengthAdjust="spacingAndGlyphs" textLength="31" x="200.5" y="417.4873">local</text><line style="stroke: #A80036; stroke-width: 1.0;" x1="39" x2="81" y1="69.4297" y2="69.4297"/><line style="stroke: #A80036; stroke-width: 1.0;" x1="81" x2="81" y1="69.4297" y2="82.4297"/><line style="stroke: #A80036; stroke-width: 1.0;" x1="40" x2="81" y1="82.4297" y2="82.4297"/><polygon fill="#A80036" points="50,78.4297,40,82.4297,50,86.4297,46,82.4297" style="stroke: #A80036; stroke-width: 1.0;"/><text fill="#000000" font-family="sans-serif" font-size="13" lengthAdjust="spacingAndGlyphs" textLength="52" x="46" y="64.3638">创建账号</text><line style="stroke: #A80036; stroke-width: 1.0;" x1="218" x2="260" y1="111.5625" y2="111.5625"/><line style="stroke: #A80036; stroke-width: 1.0;" x1="260" x2="260" y1="111.5625" y2="124.5625"/><line style="stroke: #A80036; stroke-width: 1.0;" x1="219" x2="260" y1="124.5625" y2="124.5625"/><polygon fill="#A80036" points="229,120.5625,219,124.5625,229,128.5625,225,124.5625" style="stroke: #A80036; stroke-width: 1.0;"/><text fill="#000000" font-family="sans-serif" font-size="13" lengthAdjust="spacingAndGlyphs" textLength="75" x="225" y="106.4966">创建ssh-key</text><polygon fill="#A80036" points="50,149.6953,40,153.6953,50,157.6953,46,153.6953" style="stroke: #A80036; stroke-width: 1.0;"/><line style="stroke: #A80036; stroke-width: 1.0;" x1="44" x2="217" y1="153.6953" y2="153.6953"/><text fill="#000000" font-family="sans-serif" font-size="13" lengthAdjust="spacingAndGlyphs" textLength="140" x="56" y="148.6294">保存ssh公钥到github上</text><line style="stroke: #A80036; stroke-width: 1.0;" x1="39" x2="81" y1="182.8281" y2="182.8281"/><line style="stroke: #A80036; stroke-width: 1.0;" x1="81" x2="81" y1="182.8281" y2="195.8281"/><line style="stroke: #A80036; stroke-width: 1.0;" x1="40" x2="81" y1="195.8281" y2="195.8281"/><polygon fill="#A80036" points="50,191.8281,40,195.8281,50,199.8281,46,195.8281" style="stroke: #A80036; stroke-width: 1.0;"/><text fill="#000000" font-family="sans-serif" font-size="13" lengthAdjust="spacingAndGlyphs" textLength="52" x="46" y="177.7622">创建项目</text><polygon fill="#A80036" points="206,220.9609,216,224.9609,206,228.9609,210,224.9609" style="stroke: #A80036; stroke-width: 1.0;"/><line style="stroke: #A80036; stroke-width: 1.0;" x1="39" x2="212" y1="224.9609" y2="224.9609"/><text fill="#000000" font-family="sans-serif" font-size="13" lengthAdjust="spacingAndGlyphs" textLength="155" x="46" y="219.895">git clone(克隆项目到本地)</text><line style="stroke: #A80036; stroke-width: 1.0;" x1="218" x2="260" y1="254.0938" y2="254.0938"/><line style="stroke: #A80036; stroke-width: 1.0;" x1="260" x2="260" y1="254.0938" y2="267.0938"/><line style="stroke: #A80036; stroke-width: 1.0;" x1="219" x2="260" y1="267.0938" y2="267.0938"/><polygon fill="#A80036" points="229,263.0938,219,267.0938,229,271.0938,225,267.0938" style="stroke: #A80036; stroke-width: 1.0;"/><text fill="#000000" font-family="sans-serif" font-size="13" lengthAdjust="spacingAndGlyphs" textLength="78" x="225" y="249.0278">修改本地项目</text><line style="stroke: #A80036; stroke-width: 1.0;" x1="218" x2="260" y1="296.2266" y2="296.2266"/><line style="stroke: #A80036; stroke-width: 1.0;" x1="260" x2="260" y1="296.2266" y2="309.2266"/><line style="stroke: #A80036; stroke-width: 1.0;" x1="219" x2="260" y1="309.2266" y2="309.2266"/><polygon fill="#A80036" points="229,305.2266,219,309.2266,229,313.2266,225,309.2266" style="stroke: #A80036; stroke-width: 1.0;"/><text fill="#000000" font-family="sans-serif" font-size="13" lengthAdjust="spacingAndGlyphs" textLength="187" x="225" y="291.1606">git add(将修改内容纳入git管理)</text><line style="stroke: #A80036; stroke-width: 1.0;" x1="218" x2="260" y1="338.3594" y2="338.3594"/><line style="stroke: #A80036; stroke-width: 1.0;" x1="260" x2="260" y1="338.3594" y2="351.3594"/><line style="stroke: #A80036; stroke-width: 1.0;" x1="219" x2="260" y1="351.3594" y2="351.3594"/><polygon fill="#A80036" points="229,347.3594,219,351.3594,229,355.3594,225,351.3594" style="stroke: #A80036; stroke-width: 1.0;"/><text fill="#000000" font-family="sans-serif" font-size="13" lengthAdjust="spacingAndGlyphs" textLength="183" x="225" y="333.2935">git commit(将修改固化到版本)</text><polygon fill="#A80036" points="50,376.4922,40,380.4922,50,384.4922,46,380.4922" style="stroke: #A80036; stroke-width: 1.0;"/><line style="stroke: #A80036; stroke-width: 1.0;" x1="44" x2="217" y1="380.4922" y2="380.4922"/><text fill="#000000" font-family="sans-serif" font-size="13" lengthAdjust="spacingAndGlyphs" textLength="152" x="56" y="375.4263">git push(版本推送到远端)</text><!--MD5=[5f18e5e372df0decf6404b4cb1ec06c0]
@startuml
github->github: 创建账号
local->local: 创建ssh-key
local->github:保存ssh公钥到github上
github->github: 创建项目
github->local: git clone(克隆项目到本地)
local->local: 修改本地项目
local->local: git add(将修改内容纳入git管理)
local->local: git commit(将修改固化到版本)
local->github: git push(版本推送到远端)
@enduml

PlantUML version 1.2020.00(Sat Jan 11 20:30:53 CST 2020)
(GPL source distribution)
Java Runtime: OpenJDK Runtime Environment
JVM: OpenJDK 64-Bit Server VM
Java Version: 11.0.6+10-post-Ubuntu-1ubuntu119.10.1
Operating System: Linux
Default Encoding: UTF-8
Language: en
Country: US
--></g></svg>