<?xml version="1.0" encoding="UTF-8" standalone="no"?><svg xmlns="http://www.w3.org/2000/svg" xmlns:xlink="http://www.w3.org/1999/xlink" contentScriptType="application/ecmascript" contentStyleType="text/css" height="417px" preserveAspectRatio="none" style="width:227px;height:417px;" version="1.1" viewBox="0 0 227 417" width="227px" zoomAndPan="magnify"><defs><filter height="300%" id="fykve1ksannjb" width="300%" x="-1" y="-1"><feGaussianBlur result="blurOut" stdDeviation="2.0"/><feColorMatrix in="blurOut" result="blurOut2" type="matrix" values="0 0 0 0 0 0 0 0 0 0 0 0 0 0 0 0 0 0 .4 0"/><feOffset dx="4.0" dy="4.0" in="blurOut2" result="blurOut3"/><feBlend in="SourceGraphic" in2="blurOut3" mode="normal"/></filter></defs><g><ellipse cx="99.5" cy="20" fill="#000000" filter="url(#fykve1ksannjb)" rx="10" ry="10" style="stroke: none; stroke-width: 1.0;"/><rect fill="#FEFECE" filter="url(#fykve1ksannjb)" height="33.9688" rx="12.5" ry="12.5" style="stroke: #A80036; stroke-width: 1.5;" width="144" x="27.5" y="50"/><text fill="#000000" font-family="sans-serif" font-size="12" lengthAdjust="spacingAndGlyphs" textLength="124" x="37.5" y="71.1387">git clone(远端到本地)</text><rect fill="#FEFECE" filter="url(#fykve1ksannjb)" height="33.9688" rx="12.5" ry="12.5" style="stroke: #A80036; stroke-width: 1.5;" width="92" x="53.5" y="147.9688"/><text fill="#000000" font-family="sans-serif" font-size="12" lengthAdjust="spacingAndGlyphs" textLength="72" x="63.5" y="169.1074">做了一些修改</text><rect fill="#FEFECE" filter="url(#fykve1ksannjb)" height="33.9688" rx="12.5" ry="12.5" style="stroke: #A80036; stroke-width: 1.5;" width="64" x="67.5" y="201.9375"/><text fill="#000000" font-family="sans-serif" font-size="12" lengthAdjust="spacingAndGlyphs" textLength="44" x="77.5" y="223.0762">git add</text><rect fill="#FEFECE" filter="url(#fykve1ksannjb)" height="33.9688" rx="12.5" ry="12.5" style="stroke: #A80036; stroke-width: 1.5;" width="179" x="10" y="269.4063"/><text fill="#000000" font-family="sans-serif" font-size="12" lengthAdjust="spacingAndGlyphs" textLength="159" x="20" y="290.5449">git commit(修改保存到本地)</text><rect fill="#FEFECE" filter="url(#fykve1ksannjb)" height="33.9688" rx="12.5" ry="12.5" style="stroke: #A80036; stroke-width: 1.5;" width="141" x="29" y="323.375"/><text fill="#000000" font-family="sans-serif" font-size="12" lengthAdjust="spacingAndGlyphs" textLength="121" x="39" y="344.5137">git push(本地到远端)</text><polygon fill="#FEFECE" filter="url(#fykve1ksannjb)" points="99.5,103.9688,111.5,115.9688,99.5,127.9688,87.5,115.9688,99.5,103.9688" style="stroke: #A80036; stroke-width: 1.5;"/><line style="stroke: #A80036; stroke-width: 1.5;" x1="99.5" x2="99.5" y1="30" y2="50"/><polygon fill="#A80036" points="95.5,40,99.5,50,103.5,40,99.5,44" style="stroke: #A80036; stroke-width: 1.0;"/><line style="stroke: #A80036; stroke-width: 1.5;" x1="99.5" x2="99.5" y1="181.9375" y2="201.9375"/><polygon fill="#A80036" points="95.5,191.9375,99.5,201.9375,103.5,191.9375,99.5,195.9375" style="stroke: #A80036; stroke-width: 1.0;"/><line style="stroke: #A80036; stroke-width: 1.5;" x1="99.5" x2="99.5" y1="235.9063" y2="269.4063"/><polygon fill="#A80036" points="95.5,259.4063,99.5,269.4063,103.5,259.4063,99.5,263.4063" style="stroke: #A80036; stroke-width: 1.0;"/><line style="stroke: #A80036; stroke-width: 1.5;" x1="99.5" x2="99.5" y1="303.375" y2="323.375"/><polygon fill="#A80036" points="95.5,313.375,99.5,323.375,103.5,313.375,99.5,317.375" style="stroke: #A80036; stroke-width: 1.0;"/><line style="stroke: #A80036; stroke-width: 1.5;" x1="99.5" x2="99.5" y1="127.9688" y2="147.9688"/><polygon fill="#A80036" points="95.5,137.9688,99.5,147.9688,103.5,137.9688,99.5,141.9688" style="stroke: #A80036; stroke-width: 1.0;"/><line style="stroke: #A80036; stroke-width: 1.5;" x1="99.5" x2="99.5" y1="357.3438" y2="405.3438"/><line style="stroke: #A80036; stroke-width: 1.5;" x1="99.5" x2="201" y1="405.3438" y2="405.3438"/><polygon fill="#A80036" points="197,255.9063,201,245.9063,205,255.9063,201,251.9063" style="stroke: #A80036; stroke-width: 1.5;"/><line style="stroke: #A80036; stroke-width: 1.5;" x1="201" x2="201" y1="115.9688" y2="405.3438"/><line style="stroke: #A80036; stroke-width: 1.5;" x1="201" x2="111.5" y1="115.9688" y2="115.9688"/><polygon fill="#A80036" points="121.5,111.9688,111.5,115.9688,121.5,119.9688,117.5,115.9688" style="stroke: #A80036; stroke-width: 1.0;"/><line style="stroke: #A80036; stroke-width: 1.5;" x1="99.5" x2="99.5" y1="83.9688" y2="103.9688"/><polygon fill="#A80036" points="95.5,93.9688,99.5,103.9688,103.5,93.9688,99.5,97.9688" style="stroke: #A80036; stroke-width: 1.0;"/><!--MD5=[79352cf447606c40a87f4cbcd3df8c19]
@startuml
start
:git clone(远端到本地);
repeat
  :做了一些修改;
  :git add;
  :git commit(修改保存到本地);
  :git push(本地到远端);
@enduml

PlantUML version 1.2020.00(Sat Jan 11 20:30:53 CST 2020)
(GPL source distribution)
Java Runtime: OpenJDK Runtime Environment
JVM: OpenJDK 64-Bit Server VM
Java Version: 11.0.6+10-post-Ubuntu-1ubuntu119.10.1
Operating System: Linux
Default Encoding: UTF-8
Language: en
Country: US
--></g></svg>