<?xml version="1.0" encoding="UTF-8" standalone="no"?><svg xmlns="http://www.w3.org/2000/svg" xmlns:xlink="http://www.w3.org/1999/xlink" contentScriptType="application/ecmascript" contentStyleType="text/css" height="484px" preserveAspectRatio="none" style="width:409px;height:484px;" version="1.1" viewBox="0 0 409 484" width="409px" zoomAndPan="magnify"><defs><filter height="300%" id="f1w5v9c1ofznni" width="300%" x="-1" y="-1"><feGaussianBlur result="blurOut" stdDeviation="2.0"/><feColorMatrix in="blurOut" result="blurOut2" type="matrix" values="0 0 0 0 0 0 0 0 0 0 0 0 0 0 0 0 0 0 .4 0"/><feOffset dx="4.0" dy="4.0" in="blurOut2" result="blurOut3"/><feBlend in="SourceGraphic" in2="blurOut3" mode="normal"/></filter></defs><g><line style="stroke: #A80036; stroke-width: 1.0; stroke-dasharray: 5.0,5.0;" x1="36" x2="36" y1="44.2719" y2="437.6881"/><line style="stroke: #A80036; stroke-width: 1.0; stroke-dasharray: 5.0,5.0;" x1="211.5" x2="211.5" y1="44.2719" y2="437.6881"/><rect fill="#FEFECE" filter="url(#f1w5v9c1ofznni)" height="34.2719" style="stroke: #A80036; stroke-width: 1.5;" width="58" x="5" y="5"/><text fill="#000000" font-family="sans-serif" font-size="14" lengthAdjust="spacingAndGlyphs" textLength="44" x="12" y="28.2399">github</text><rect fill="#FEFECE" filter="url(#f1w5v9c1ofznni)" height="34.2719" style="stroke: #A80036; stroke-width: 1.5;" width="58" x="5" y="436.6881"/><text fill="#000000" font-family="sans-serif" font-size="14" lengthAdjust="spacingAndGlyphs" textLength="44" x="12" y="459.928">github</text><rect fill="#FEFECE" filter="url(#f1w5v9c1ofznni)" height="34.2719" style="stroke: #A80036; stroke-width: 1.5;" width="45" x="187.5" y="5"/><text fill="#000000" font-family="sans-serif" font-size="14" lengthAdjust="spacingAndGlyphs" textLength="31" x="194.5" y="28.2399">local</text><rect fill="#FEFECE" filter="url(#f1w5v9c1ofznni)" height="34.2719" style="stroke: #A80036; stroke-width: 1.5;" width="45" x="187.5" y="436.6881"/><text fill="#000000" font-family="sans-serif" font-size="14" lengthAdjust="spacingAndGlyphs" textLength="31" x="194.5" y="459.928">local</text><line style="stroke: #A80036; stroke-width: 1.0;" x1="36" x2="78" y1="79.0959" y2="79.0959"/><line style="stroke: #A80036; stroke-width: 1.0;" x1="78" x2="78" y1="79.0959" y2="92.0959"/><line style="stroke: #A80036; stroke-width: 1.0;" x1="37" x2="78" y1="92.0959" y2="92.0959"/><polygon fill="#A80036" points="47,88.0959,37,92.0959,47,96.0959,43,92.0959" style="stroke: #A80036; stroke-width: 1.0;"/><text fill="#000000" font-family="sans-serif" font-size="13" lengthAdjust="spacingAndGlyphs" textLength="52" x="43" y="73.3519">创建账号</text><line style="stroke: #A80036; stroke-width: 1.0;" x1="212" x2="254" y1="124.9199" y2="124.9199"/><line style="stroke: #A80036; stroke-width: 1.0;" x1="254" x2="254" y1="124.9199" y2="137.9199"/><line style="stroke: #A80036; stroke-width: 1.0;" x1="213" x2="254" y1="137.9199" y2="137.9199"/><polygon fill="#A80036" points="223,133.9199,213,137.9199,223,141.9199,219,137.9199" style="stroke: #A80036; stroke-width: 1.0;"/><text fill="#000000" font-family="sans-serif" font-size="13" lengthAdjust="spacingAndGlyphs" textLength="72" x="219" y="119.1759">创建ssh-key</text><polygon fill="#A80036" points="47,166.744,37,170.744,47,174.744,43,170.744" style="stroke: #A80036; stroke-width: 1.0;"/><line style="stroke: #A80036; stroke-width: 1.0;" x1="41" x2="211" y1="170.744" y2="170.744"/><text fill="#000000" font-family="sans-serif" font-size="13" lengthAdjust="spacingAndGlyphs" textLength="138" x="53" y="165">保存ssh公钥到github上</text><line style="stroke: #A80036; stroke-width: 1.0;" x1="36" x2="78" y1="203.568" y2="203.568"/><line style="stroke: #A80036; stroke-width: 1.0;" x1="78" x2="78" y1="203.568" y2="216.568"/><line style="stroke: #A80036; stroke-width: 1.0;" x1="37" x2="78" y1="216.568" y2="216.568"/><polygon fill="#A80036" points="47,212.568,37,216.568,47,220.568,43,216.568" style="stroke: #A80036; stroke-width: 1.0;"/><text fill="#000000" font-family="sans-serif" font-size="13" lengthAdjust="spacingAndGlyphs" textLength="52" x="43" y="197.824">创建项目</text><polygon fill="#A80036" points="200,245.392,210,249.392,200,253.392,204,249.392" style="stroke: #A80036; stroke-width: 1.0;"/><line style="stroke: #A80036; stroke-width: 1.0;" x1="36" x2="206" y1="249.392" y2="249.392"/><text fill="#000000" font-family="sans-serif" font-size="13" lengthAdjust="spacingAndGlyphs" textLength="152" x="43" y="243.648">git clone(克隆项目到本地)</text><line style="stroke: #A80036; stroke-width: 1.0;" x1="212" x2="254" y1="282.216" y2="282.216"/><line style="stroke: #A80036; stroke-width: 1.0;" x1="254" x2="254" y1="282.216" y2="295.216"/><line style="stroke: #A80036; stroke-width: 1.0;" x1="213" x2="254" y1="295.216" y2="295.216"/><polygon fill="#A80036" points="223,291.216,213,295.216,223,299.216,219,295.216" style="stroke: #A80036; stroke-width: 1.0;"/><text fill="#000000" font-family="sans-serif" font-size="13" lengthAdjust="spacingAndGlyphs" textLength="78" x="219" y="276.472">修改本地项目</text><line style="stroke: #A80036; stroke-width: 1.0;" x1="212" x2="254" y1="328.04" y2="328.04"/><line style="stroke: #A80036; stroke-width: 1.0;" x1="254" x2="254" y1="328.04" y2="341.04"/><line style="stroke: #A80036; stroke-width: 1.0;" x1="213" x2="254" y1="341.04" y2="341.04"/><polygon fill="#A80036" points="223,337.04,213,341.04,223,345.04,219,341.04" style="stroke: #A80036; stroke-width: 1.0;"/><text fill="#000000" font-family="sans-serif" font-size="13" lengthAdjust="spacingAndGlyphs" textLength="183" x="219" y="322.296">git add(将修改内容纳入git管理)</text><line style="stroke: #A80036; stroke-width: 1.0;" x1="212" x2="254" y1="373.864" y2="373.864"/><line style="stroke: #A80036; stroke-width: 1.0;" x1="254" x2="254" y1="373.864" y2="386.864"/><line style="stroke: #A80036; stroke-width: 1.0;" x1="213" x2="254" y1="386.864" y2="386.864"/><polygon fill="#A80036" points="223,382.864,213,386.864,223,390.864,219,386.864" style="stroke: #A80036; stroke-width: 1.0;"/><text fill="#000000" font-family="sans-serif" font-size="13" lengthAdjust="spacingAndGlyphs" textLength="179" x="219" y="368.12">git commit(将修改固化到版本)</text><polygon fill="#A80036" points="47,415.6881,37,419.6881,47,423.6881,43,419.6881" style="stroke: #A80036; stroke-width: 1.0;"/><line style="stroke: #A80036; stroke-width: 1.0;" x1="41" x2="211" y1="419.6881" y2="419.6881"/><text fill="#000000" font-family="sans-serif" font-size="13" lengthAdjust="spacingAndGlyphs" textLength="148" x="53" y="413.9441">git push(版本推送到远端)</text><!--MD5=[bf70d3d1701cb36a43426e198d53d7a8]
@startuml
github->github: 创建账号
local->local: 创建ssh-key
local->github:保存ssh公钥到github上
github->github: 创建项目
github->local: git clone(克隆项目到本地)
local->local: 修改本地项目
local->local: git add(将修改内容纳入git管理)
local->local: git commit(将修改固化到版本)
local->github: git push(版本推送到远端)
@enduml

PlantUML version 1.2020.19(Mon Oct 12 23:10:01 CST 2020)
(GPL source distribution)
Java Runtime: OpenJDK Runtime Environment
JVM: OpenJDK 64-Bit Server VM
Default Encoding: UTF-8
Language: en
Country: US
--></g></svg>