<?xml version="1.0" encoding="UTF-8" standalone="no"?><svg xmlns="http://www.w3.org/2000/svg" xmlns:xlink="http://www.w3.org/1999/xlink" contentScriptType="application/ecmascript" contentStyleType="text/css" height="434px" preserveAspectRatio="none" style="width:221px;height:434px;" version="1.1" viewBox="0 0 221 434" width="221px" zoomAndPan="magnify"><defs><filter height="300%" id="fykve1ksannjb" width="300%" x="-1" y="-1"><feGaussianBlur result="blurOut" stdDeviation="2.0"/><feColorMatrix in="blurOut" result="blurOut2" type="matrix" values="0 0 0 0 0 0 0 0 0 0 0 0 0 0 0 0 0 0 .4 0"/><feOffset dx="4.0" dy="4.0" in="blurOut2" result="blurOut3"/><feBlend in="SourceGraphic" in2="blurOut3" mode="normal"/></filter></defs><g><ellipse cx="96.5" cy="20" fill="#000000" filter="url(#fykve1ksannjb)" rx="10" ry="10" style="stroke: none; stroke-width: 1.0;"/><rect fill="#FEFECE" filter="url(#fykve1ksannjb)" height="37.3761" rx="12.5" ry="12.5" style="stroke: #A80036; stroke-width: 1.5;" width="136" x="28.5" y="50"/><text fill="#000000" font-family="sans-serif" font-size="12" lengthAdjust="spacingAndGlyphs" textLength="116" x="38.5" y="73.9201">git clone(远端到本地)</text><rect fill="#FEFECE" filter="url(#fykve1ksannjb)" height="37.3761" rx="12.5" ry="12.5" style="stroke: #A80036; stroke-width: 1.5;" width="92" x="50.5" y="151.3761"/><text fill="#000000" font-family="sans-serif" font-size="12" lengthAdjust="spacingAndGlyphs" textLength="72" x="60.5" y="175.2962">做了一些修改</text><rect fill="#FEFECE" filter="url(#fykve1ksannjb)" height="37.3761" rx="12.5" ry="12.5" style="stroke: #A80036; stroke-width: 1.5;" width="59" x="67" y="208.7522"/><text fill="#000000" font-family="sans-serif" font-size="12" lengthAdjust="spacingAndGlyphs" textLength="39" x="77" y="232.6723">git add</text><rect fill="#FEFECE" filter="url(#fykve1ksannjb)" height="37.3761" rx="12.5" ry="12.5" style="stroke: #A80036; stroke-width: 1.5;" width="173" x="10" y="279.6284"/><text fill="#000000" font-family="sans-serif" font-size="12" lengthAdjust="spacingAndGlyphs" textLength="153" x="20" y="303.5485">git commit(修改保存到本地)</text><rect fill="#FEFECE" filter="url(#fykve1ksannjb)" height="37.3761" rx="12.5" ry="12.5" style="stroke: #A80036; stroke-width: 1.5;" width="133" x="30" y="337.0045"/><text fill="#000000" font-family="sans-serif" font-size="12" lengthAdjust="spacingAndGlyphs" textLength="113" x="40" y="360.9246">git push(本地到远端)</text><polygon fill="#FEFECE" filter="url(#fykve1ksannjb)" points="96.5,107.3761,108.5,119.3761,96.5,131.3761,84.5,119.3761,96.5,107.3761" style="stroke: #A80036; stroke-width: 1.5;"/><line style="stroke: #A80036; stroke-width: 1.5;" x1="96.5" x2="96.5" y1="30" y2="50"/><polygon fill="#A80036" points="92.5,40,96.5,50,100.5,40,96.5,44" style="stroke: #A80036; stroke-width: 1.0;"/><line style="stroke: #A80036; stroke-width: 1.5;" x1="96.5" x2="96.5" y1="188.7522" y2="208.7522"/><polygon fill="#A80036" points="92.5,198.7522,96.5,208.7522,100.5,198.7522,96.5,202.7522" style="stroke: #A80036; stroke-width: 1.0;"/><line style="stroke: #A80036; stroke-width: 1.5;" x1="96.5" x2="96.5" y1="246.1284" y2="279.6284"/><polygon fill="#A80036" points="92.5,269.6284,96.5,279.6284,100.5,269.6284,96.5,273.6284" style="stroke: #A80036; stroke-width: 1.0;"/><line style="stroke: #A80036; stroke-width: 1.5;" x1="96.5" x2="96.5" y1="317.0045" y2="337.0045"/><polygon fill="#A80036" points="92.5,327.0045,96.5,337.0045,100.5,327.0045,96.5,331.0045" style="stroke: #A80036; stroke-width: 1.0;"/><line style="stroke: #A80036; stroke-width: 1.5;" x1="96.5" x2="96.5" y1="131.3761" y2="151.3761"/><polygon fill="#A80036" points="92.5,141.3761,96.5,151.3761,100.5,141.3761,96.5,145.3761" style="stroke: #A80036; stroke-width: 1.0;"/><line style="stroke: #A80036; stroke-width: 1.5;" x1="96.5" x2="96.5" y1="374.3806" y2="422.3806"/><line style="stroke: #A80036; stroke-width: 1.5;" x1="96.5" x2="195" y1="422.3806" y2="422.3806"/><polygon fill="#A80036" points="191,266.1284,195,256.1284,199,266.1284,195,262.1284" style="stroke: #A80036; stroke-width: 1.5;"/><line style="stroke: #A80036; stroke-width: 1.5;" x1="195" x2="195" y1="119.3761" y2="422.3806"/><line style="stroke: #A80036; stroke-width: 1.5;" x1="195" x2="108.5" y1="119.3761" y2="119.3761"/><polygon fill="#A80036" points="118.5,115.3761,108.5,119.3761,118.5,123.3761,114.5,119.3761" style="stroke: #A80036; stroke-width: 1.0;"/><line style="stroke: #A80036; stroke-width: 1.5;" x1="96.5" x2="96.5" y1="87.3761" y2="107.3761"/><polygon fill="#A80036" points="92.5,97.3761,96.5,107.3761,100.5,97.3761,96.5,101.3761" style="stroke: #A80036; stroke-width: 1.0;"/><!--MD5=[156166d190ca78913c56a259daacf104]
@startuml
start
:git clone(远端到本地);
repeat
  :做了一些修改;
  :git add;
  :git commit(修改保存到本地);
  :git push(本地到远端);
@enduml

PlantUML version 1.2020.06(Sun Apr 05 20:38:32 CST 2020)
(GPL source distribution)
Java Runtime: OpenJDK Runtime Environment
JVM: OpenJDK 64-Bit Server VM
Java Version: 11.0.6+10-post-Ubuntu-1ubuntu119.10.1
Operating System: Linux
Default Encoding: UTF-8
Language: en
Country: US
--></g></svg>