<?xml version="1.0" encoding="UTF-8" standalone="no"?><svg xmlns="http://www.w3.org/2000/svg" xmlns:xlink="http://www.w3.org/1999/xlink" contentScriptType="application/ecmascript" contentStyleType="text/css" height="479px" preserveAspectRatio="none" style="width:417px;height:479px;" version="1.1" viewBox="0 0 417 479" width="417px" zoomAndPan="magnify"><defs><filter height="300%" id="f1w5v9c1ofznni" width="300%" x="-1" y="-1"><feGaussianBlur result="blurOut" stdDeviation="2.0"/><feColorMatrix in="blurOut" result="blurOut2" type="matrix" values="0 0 0 0 0 0 0 0 0 0 0 0 0 0 0 0 0 0 .4 0"/><feOffset dx="4.0" dy="4.0" in="blurOut2" result="blurOut3"/><feBlend in="SourceGraphic" in2="blurOut3" mode="normal"/></filter></defs><g><line style="stroke: #A80036; stroke-width: 1.0; stroke-dasharray: 5.0,5.0;" x1="39" x2="39" y1="42.2719" y2="435.6881"/><line style="stroke: #A80036; stroke-width: 1.0; stroke-dasharray: 5.0,5.0;" x1="214.5" x2="214.5" y1="42.2719" y2="435.6881"/><rect fill="#FEFECE" filter="url(#f1w5v9c1ofznni)" height="34.2719" style="stroke: #A80036; stroke-width: 1.5;" width="58" x="8" y="3"/><text fill="#000000" font-family="sans-serif" font-size="14" lengthAdjust="spacingAndGlyphs" textLength="44" x="15" y="26.2399">github</text><rect fill="#FEFECE" filter="url(#f1w5v9c1ofznni)" height="34.2719" style="stroke: #A80036; stroke-width: 1.5;" width="58" x="8" y="434.6881"/><text fill="#000000" font-family="sans-serif" font-size="14" lengthAdjust="spacingAndGlyphs" textLength="44" x="15" y="457.928">github</text><rect fill="#FEFECE" filter="url(#f1w5v9c1ofznni)" height="34.2719" style="stroke: #A80036; stroke-width: 1.5;" width="45" x="190.5" y="3"/><text fill="#000000" font-family="sans-serif" font-size="14" lengthAdjust="spacingAndGlyphs" textLength="31" x="197.5" y="26.2399">local</text><rect fill="#FEFECE" filter="url(#f1w5v9c1ofznni)" height="34.2719" style="stroke: #A80036; stroke-width: 1.5;" width="45" x="190.5" y="434.6881"/><text fill="#000000" font-family="sans-serif" font-size="14" lengthAdjust="spacingAndGlyphs" textLength="31" x="197.5" y="457.928">local</text><line style="stroke: #A80036; stroke-width: 1.0;" x1="39" x2="81" y1="77.0959" y2="77.0959"/><line style="stroke: #A80036; stroke-width: 1.0;" x1="81" x2="81" y1="77.0959" y2="90.0959"/><line style="stroke: #A80036; stroke-width: 1.0;" x1="40" x2="81" y1="90.0959" y2="90.0959"/><polygon fill="#A80036" points="50,86.0959,40,90.0959,50,94.0959,46,90.0959" style="stroke: #A80036; stroke-width: 1.0;"/><text fill="#000000" font-family="sans-serif" font-size="13" lengthAdjust="spacingAndGlyphs" textLength="52" x="46" y="71.3519">创建账号</text><line style="stroke: #A80036; stroke-width: 1.0;" x1="215" x2="257" y1="122.9199" y2="122.9199"/><line style="stroke: #A80036; stroke-width: 1.0;" x1="257" x2="257" y1="122.9199" y2="135.9199"/><line style="stroke: #A80036; stroke-width: 1.0;" x1="216" x2="257" y1="135.9199" y2="135.9199"/><polygon fill="#A80036" points="226,131.9199,216,135.9199,226,139.9199,222,135.9199" style="stroke: #A80036; stroke-width: 1.0;"/><text fill="#000000" font-family="sans-serif" font-size="13" lengthAdjust="spacingAndGlyphs" textLength="72" x="222" y="117.1759">创建ssh-key</text><polygon fill="#A80036" points="50,164.744,40,168.744,50,172.744,46,168.744" style="stroke: #A80036; stroke-width: 1.0;"/><line style="stroke: #A80036; stroke-width: 1.0;" x1="44" x2="214" y1="168.744" y2="168.744"/><text fill="#000000" font-family="sans-serif" font-size="13" lengthAdjust="spacingAndGlyphs" textLength="138" x="56" y="163">保存ssh公钥到github上</text><line style="stroke: #A80036; stroke-width: 1.0;" x1="39" x2="81" y1="201.568" y2="201.568"/><line style="stroke: #A80036; stroke-width: 1.0;" x1="81" x2="81" y1="201.568" y2="214.568"/><line style="stroke: #A80036; stroke-width: 1.0;" x1="40" x2="81" y1="214.568" y2="214.568"/><polygon fill="#A80036" points="50,210.568,40,214.568,50,218.568,46,214.568" style="stroke: #A80036; stroke-width: 1.0;"/><text fill="#000000" font-family="sans-serif" font-size="13" lengthAdjust="spacingAndGlyphs" textLength="52" x="46" y="195.824">创建项目</text><polygon fill="#A80036" points="203,243.392,213,247.392,203,251.392,207,247.392" style="stroke: #A80036; stroke-width: 1.0;"/><line style="stroke: #A80036; stroke-width: 1.0;" x1="39" x2="209" y1="247.392" y2="247.392"/><text fill="#000000" font-family="sans-serif" font-size="13" lengthAdjust="spacingAndGlyphs" textLength="152" x="46" y="241.648">git clone(克隆项目到本地)</text><line style="stroke: #A80036; stroke-width: 1.0;" x1="215" x2="257" y1="280.216" y2="280.216"/><line style="stroke: #A80036; stroke-width: 1.0;" x1="257" x2="257" y1="280.216" y2="293.216"/><line style="stroke: #A80036; stroke-width: 1.0;" x1="216" x2="257" y1="293.216" y2="293.216"/><polygon fill="#A80036" points="226,289.216,216,293.216,226,297.216,222,293.216" style="stroke: #A80036; stroke-width: 1.0;"/><text fill="#000000" font-family="sans-serif" font-size="13" lengthAdjust="spacingAndGlyphs" textLength="78" x="222" y="274.472">修改本地项目</text><line style="stroke: #A80036; stroke-width: 1.0;" x1="215" x2="257" y1="326.04" y2="326.04"/><line style="stroke: #A80036; stroke-width: 1.0;" x1="257" x2="257" y1="326.04" y2="339.04"/><line style="stroke: #A80036; stroke-width: 1.0;" x1="216" x2="257" y1="339.04" y2="339.04"/><polygon fill="#A80036" points="226,335.04,216,339.04,226,343.04,222,339.04" style="stroke: #A80036; stroke-width: 1.0;"/><text fill="#000000" font-family="sans-serif" font-size="13" lengthAdjust="spacingAndGlyphs" textLength="183" x="222" y="320.296">git add(将修改内容纳入git管理)</text><line style="stroke: #A80036; stroke-width: 1.0;" x1="215" x2="257" y1="371.864" y2="371.864"/><line style="stroke: #A80036; stroke-width: 1.0;" x1="257" x2="257" y1="371.864" y2="384.864"/><line style="stroke: #A80036; stroke-width: 1.0;" x1="216" x2="257" y1="384.864" y2="384.864"/><polygon fill="#A80036" points="226,380.864,216,384.864,226,388.864,222,384.864" style="stroke: #A80036; stroke-width: 1.0;"/><text fill="#000000" font-family="sans-serif" font-size="13" lengthAdjust="spacingAndGlyphs" textLength="179" x="222" y="366.12">git commit(将修改固化到版本)</text><polygon fill="#A80036" points="50,413.6881,40,417.6881,50,421.6881,46,417.6881" style="stroke: #A80036; stroke-width: 1.0;"/><line style="stroke: #A80036; stroke-width: 1.0;" x1="44" x2="214" y1="417.6881" y2="417.6881"/><text fill="#000000" font-family="sans-serif" font-size="13" lengthAdjust="spacingAndGlyphs" textLength="148" x="56" y="411.9441">git push(版本推送到远端)</text><!--MD5=[370f6d4640407387540f68f81f947b43]
@startuml
github->github: 创建账号
local->local: 创建ssh-key
local->github:保存ssh公钥到github上
github->github: 创建项目
github->local: git clone(克隆项目到本地)
local->local: 修改本地项目
local->local: git add(将修改内容纳入git管理)
local->local: git commit(将修改固化到版本)
local->github: git push(版本推送到远端)
@enduml

PlantUML version 1.2020.06(Sun Apr 05 20:38:32 CST 2020)
(GPL source distribution)
Java Runtime: OpenJDK Runtime Environment
JVM: OpenJDK 64-Bit Server VM
Java Version: 11.0.6+10-post-Ubuntu-1ubuntu119.10.1
Operating System: Linux
Default Encoding: UTF-8
Language: en
Country: US
--></g></svg>