<?xml version="1.0" encoding="UTF-8" standalone="no"?><svg xmlns="http://www.w3.org/2000/svg" xmlns:xlink="http://www.w3.org/1999/xlink" contentScriptType="application/ecmascript" contentStyleType="text/css" height="630px" preserveAspectRatio="none" style="width:1301px;height:630px;" version="1.1" viewBox="0 0 1301 630" width="1301px" zoomAndPan="magnify"><defs><filter height="300%" id="f1nq94msgk03mu" width="300%" x="-1" y="-1"><feGaussianBlur result="blurOut" stdDeviation="2.0"/><feColorMatrix in="blurOut" result="blurOut2" type="matrix" values="0 0 0 0 0 0 0 0 0 0 0 0 0 0 0 0 0 0 .4 0"/><feOffset dx="4.0" dy="4.0" in="blurOut2" result="blurOut3"/><feBlend in="SourceGraphic" in2="blurOut3" mode="normal"/></filter></defs><g><rect fill="#FEFECE" filter="url(#f1nq94msgk03mu)" height="36.2969" rx="12.5" ry="12.5" style="stroke: #A80036; stroke-width: 1.5;" width="118" x="668" y="301.4844"/><text fill="#000000" font-family="sans-serif" font-size="14" lengthAdjust="spacingAndGlyphs" textLength="98" x="678" y="324.4795">预备课必备知识</text><rect fill="#FEFECE" filter="url(#f1nq94msgk03mu)" height="36.2969" rx="12.5" ry="12.5" style="stroke: #A80036; stroke-width: 1.5;" width="90" x="836" y="76.2969"/><text fill="#000000" font-family="sans-serif" font-size="14" lengthAdjust="spacingAndGlyphs" textLength="70" x="846" y="99.292">命令行操作</text><rect fill="#FEFECE" filter="url(#f1nq94msgk03mu)" height="36.2969" rx="12.5" ry="12.5" style="stroke: #A80036; stroke-width: 1.5;" width="121" x="976" y="48.1484"/><text fill="#000000" font-family="sans-serif" font-size="14" lengthAdjust="spacingAndGlyphs" textLength="101" x="986" y="71.1436">linux文件和目录</text><rect fill="#FEFECE" filter="url(#f1nq94msgk03mu)" height="36.2969" rx="12.5" ry="12.5" style="stroke: #A80036; stroke-width: 1.5;" width="132" x="1147" y="20"/><text fill="#000000" font-family="sans-serif" font-size="14" lengthAdjust="spacingAndGlyphs" textLength="112" x="1157" y="42.9951">文件和文件夹操作</text><path d="M1097,66.2969 L1107,66.2969 C1122,66.2969 1122,38.1484 1137,38.1484 L1147,38.1484 " fill="none" style="stroke: #A80036; stroke-width: 1.0;"/><rect fill="#FEFECE" filter="url(#f1nq94msgk03mu)" height="36.2969" rx="12.5" ry="12.5" style="stroke: #A80036; stroke-width: 1.5;" width="104" x="1147" y="76.2969"/><text fill="#000000" font-family="sans-serif" font-size="14" lengthAdjust="spacingAndGlyphs" textLength="84" x="1157" y="99.292">变更工作目录</text><path d="M1097,66.2969 L1107,66.2969 C1122,66.2969 1122,94.4453 1137,94.4453 L1147,94.4453 " fill="none" style="stroke: #A80036; stroke-width: 1.0;"/><path d="M926,94.4453 L936,94.4453 C951,94.4453 951,66.2969 966,66.2969 L976,66.2969 " fill="none" style="stroke: #A80036; stroke-width: 1.0;"/><rect fill="#FEFECE" filter="url(#f1nq94msgk03mu)" height="36.2969" rx="12.5" ry="12.5" style="stroke: #A80036; stroke-width: 1.5;" width="104" x="976" y="132.5938"/><text fill="#000000" font-family="sans-serif" font-size="14" lengthAdjust="spacingAndGlyphs" textLength="84" x="986" y="155.5889">命令行快捷键</text><rect fill="#FEFECE" filter="url(#f1nq94msgk03mu)" height="36.2969" rx="12.5" ry="12.5" style="stroke: #A80036; stroke-width: 1.5;" width="160" x="1130" y="132.5938"/><text fill="#000000" font-family="sans-serif" font-size="14" lengthAdjust="spacingAndGlyphs" textLength="140" x="1140" y="155.5889">如何让你的操作更快捷</text><path d="M1080,150.7422 L1090,150.7422 C1105,150.7422 1105,150.7422 1120,150.7422 L1130,150.7422 " fill="none" style="stroke: #A80036; stroke-width: 1.0;"/><path d="M926,94.4453 L936,94.4453 C951,94.4453 951,150.7422 966,150.7422 L976,150.7422 " fill="none" style="stroke: #A80036; stroke-width: 1.0;"/><path d="M786,319.6328 L796,319.6328 C811,319.6328 811,94.4453 826,94.4453 L836,94.4453 " fill="none" style="stroke: #A80036; stroke-width: 1.0;"/><rect fill="#FEFECE" filter="url(#f1nq94msgk03mu)" height="36.2969" rx="12.5" ry="12.5" style="stroke: #A80036; stroke-width: 1.5;" width="48" x="836" y="188.8906"/><text fill="#000000" font-family="sans-serif" font-size="14" lengthAdjust="spacingAndGlyphs" textLength="28" x="846" y="211.8857">笔记</text><rect fill="#FEFECE" filter="url(#f1nq94msgk03mu)" height="36.2969" rx="12.5" ry="12.5" style="stroke: #A80036; stroke-width: 1.5;" width="120" x="934" y="188.8906"/><text fill="#000000" font-family="sans-serif" font-size="14" lengthAdjust="spacingAndGlyphs" textLength="100" x="944" y="211.8857">markdown语法</text><path d="M884,207.0391 L894,207.0391 C909,207.0391 909,207.0391 924,207.0391 L934,207.0391 " fill="none" style="stroke: #A80036; stroke-width: 1.0;"/><path d="M786,319.6328 L796,319.6328 C811,319.6328 811,207.0391 826,207.0391 L836,207.0391 " fill="none" style="stroke: #A80036; stroke-width: 1.0;"/><rect fill="#FEFECE" filter="url(#f1nq94msgk03mu)" height="36.2969" rx="12.5" ry="12.5" style="stroke: #A80036; stroke-width: 1.5;" width="76" x="836" y="245.1875"/><text fill="#000000" font-family="sans-serif" font-size="14" lengthAdjust="spacingAndGlyphs" textLength="56" x="846" y="268.1826">软件管理</text><rect fill="#FEFECE" filter="url(#f1nq94msgk03mu)" height="36.2969" rx="12.5" ry="12.5" style="stroke: #A80036; stroke-width: 1.5;" width="54" x="962" y="245.1875"/><text fill="#000000" font-family="sans-serif" font-size="14" lengthAdjust="spacingAndGlyphs" textLength="34" x="972" y="268.1826">brew</text><path d="M912,263.3359 L922,263.3359 C937,263.3359 937,263.3359 952,263.3359 L962,263.3359 " fill="none" style="stroke: #A80036; stroke-width: 1.0;"/><path d="M786,319.6328 L796,319.6328 C811,319.6328 811,263.3359 826,263.3359 L836,263.3359 " fill="none" style="stroke: #A80036; stroke-width: 1.0;"/><rect fill="#FEFECE" filter="url(#f1nq94msgk03mu)" height="36.2969" rx="12.5" ry="12.5" style="stroke: #A80036; stroke-width: 1.5;" width="37" x="836" y="442.2266"/><text fill="#000000" font-family="sans-serif" font-size="14" lengthAdjust="spacingAndGlyphs" textLength="17" x="846" y="465.2217">git</text><rect fill="#FEFECE" filter="url(#f1nq94msgk03mu)" height="36.2969" rx="12.5" ry="12.5" style="stroke: #A80036; stroke-width: 1.5;" width="120" x="923" y="301.4844"/><text fill="#000000" font-family="sans-serif" font-size="14" lengthAdjust="spacingAndGlyphs" textLength="100" x="933" y="324.4795">github创建项目</text><path d="M873,460.375 L883,460.375 C898,460.375 898,319.6328 913,319.6328 L923,319.6328 " fill="none" style="stroke: #A80036; stroke-width: 1.0;"/><rect fill="#FEFECE" filter="url(#f1nq94msgk03mu)" height="36.2969" rx="12.5" ry="12.5" style="stroke: #A80036; stroke-width: 1.5;" width="93" x="923" y="470.375"/><text fill="#000000" font-family="sans-serif" font-size="14" lengthAdjust="spacingAndGlyphs" textLength="73" x="933" y="493.3701">git项目管理</text><rect fill="#FEFECE" filter="url(#f1nq94msgk03mu)" height="36.2969" rx="12.5" ry="12.5" style="stroke: #A80036; stroke-width: 1.5;" width="40" x="1066" y="357.7813"/><text fill="#000000" font-family="sans-serif" font-size="14" lengthAdjust="spacingAndGlyphs" textLength="20" x="1076" y="380.7764">init</text><path d="M1016,488.5234 L1026,488.5234 C1041,488.5234 1041,375.9297 1056,375.9297 L1066,375.9297 " fill="none" style="stroke: #A80036; stroke-width: 1.0;"/><rect fill="#FEFECE" filter="url(#f1nq94msgk03mu)" height="36.2969" rx="12.5" ry="12.5" style="stroke: #A80036; stroke-width: 1.5;" width="58" x="1066" y="414.0781"/><text fill="#000000" font-family="sans-serif" font-size="14" lengthAdjust="spacingAndGlyphs" textLength="38" x="1076" y="437.0732">clone</text><path d="M1016,488.5234 L1026,488.5234 C1041,488.5234 1041,432.2266 1056,432.2266 L1066,432.2266 " fill="none" style="stroke: #A80036; stroke-width: 1.0;"/><rect fill="#FEFECE" filter="url(#f1nq94msgk03mu)" height="36.2969" rx="12.5" ry="12.5" style="stroke: #A80036; stroke-width: 1.5;" width="46" x="1066" y="470.375"/><text fill="#000000" font-family="sans-serif" font-size="14" lengthAdjust="spacingAndGlyphs" textLength="26" x="1076" y="493.3701">add</text><path d="M1016,488.5234 L1026,488.5234 C1041,488.5234 1041,488.5234 1056,488.5234 L1066,488.5234 " fill="none" style="stroke: #A80036; stroke-width: 1.0;"/><rect fill="#FEFECE" filter="url(#f1nq94msgk03mu)" height="36.2969" rx="12.5" ry="12.5" style="stroke: #A80036; stroke-width: 1.5;" width="71" x="1066" y="526.6719"/><text fill="#000000" font-family="sans-serif" font-size="14" lengthAdjust="spacingAndGlyphs" textLength="51" x="1076" y="549.667">commit</text><path d="M1016,488.5234 L1026,488.5234 C1041,488.5234 1041,544.8203 1056,544.8203 L1066,544.8203 " fill="none" style="stroke: #A80036; stroke-width: 1.0;"/><rect fill="#FEFECE" filter="url(#f1nq94msgk03mu)" height="36.2969" rx="12.5" ry="12.5" style="stroke: #A80036; stroke-width: 1.5;" width="55" x="1066" y="582.9688"/><text fill="#000000" font-family="sans-serif" font-size="14" lengthAdjust="spacingAndGlyphs" textLength="35" x="1076" y="605.9639">push</text><path d="M1016,488.5234 L1026,488.5234 C1041,488.5234 1041,601.1172 1056,601.1172 L1066,601.1172 " fill="none" style="stroke: #A80036; stroke-width: 1.0;"/><path d="M873,460.375 L883,460.375 C898,460.375 898,488.5234 913,488.5234 L923,488.5234 " fill="none" style="stroke: #A80036; stroke-width: 1.0;"/><path d="M786,319.6328 L796,319.6328 C811,319.6328 811,460.375 826,460.375 L836,460.375 " fill="none" style="stroke: #A80036; stroke-width: 1.0;"/><rect fill="#FEFECE" filter="url(#f1nq94msgk03mu)" height="36.2969" rx="12.5" ry="12.5" style="stroke: #A80036; stroke-width: 1.5;" width="76" x="542" y="273.3359"/><text fill="#000000" font-family="sans-serif" font-size="14" lengthAdjust="spacingAndGlyphs" textLength="56" x="552" y="296.3311">核心工具</text><rect fill="#FEFECE" filter="url(#f1nq94msgk03mu)" height="36.2969" rx="12.5" ry="12.5" style="stroke: #A80036; stroke-width: 1.5;" width="48" x="444" y="217.0391"/><text fill="#000000" font-family="sans-serif" font-size="14" lengthAdjust="spacingAndGlyphs" textLength="28" x="454" y="240.0342">终端</text><rect fill="#FEFECE" filter="url(#f1nq94msgk03mu)" height="36.2969" rx="12.5" ry="12.5" style="stroke: #A80036; stroke-width: 1.5;" width="75" x="319" y="188.8906"/><text fill="#000000" font-family="sans-serif" font-size="14" lengthAdjust="spacingAndGlyphs" textLength="55" x="329" y="211.8857">terminal</text><path d="M444,235.1875 L434,235.1875 C419,235.1875 419,207.0391 404,207.0391 L394,207.0391 " fill="none" style="stroke: #A80036; stroke-width: 1.0;"/><rect fill="#FEFECE" filter="url(#f1nq94msgk03mu)" height="36.2969" rx="12.5" ry="12.5" style="stroke: #A80036; stroke-width: 1.5;" width="59" x="335" y="245.1875"/><text fill="#000000" font-family="sans-serif" font-size="14" lengthAdjust="spacingAndGlyphs" textLength="39" x="345" y="268.1826">iTerm</text><path d="M444,235.1875 L434,235.1875 C419,235.1875 419,263.3359 404,263.3359 L394,263.3359 " fill="none" style="stroke: #A80036; stroke-width: 1.0;"/><path d="M542,291.4844 L532,291.4844 C517,291.4844 517,235.1875 502,235.1875 L492,235.1875 " fill="none" style="stroke: #A80036; stroke-width: 1.0;"/><rect fill="#FEFECE" filter="url(#f1nq94msgk03mu)" height="36.2969" rx="12.5" ry="12.5" style="stroke: #A80036; stroke-width: 1.5;" width="62" x="430" y="301.4844"/><text fill="#000000" font-family="sans-serif" font-size="14" lengthAdjust="spacingAndGlyphs" textLength="42" x="440" y="324.4795">浏览器</text><rect fill="#FEFECE" filter="url(#f1nq94msgk03mu)" height="36.2969" rx="12.5" ry="12.5" style="stroke: #A80036; stroke-width: 1.5;" width="73" x="307" y="301.4844"/><text fill="#000000" font-family="sans-serif" font-size="14" lengthAdjust="spacingAndGlyphs" textLength="53" x="317" y="324.4795">chrome</text><path d="M430,319.6328 L420,319.6328 C405,319.6328 405,319.6328 390,319.6328 L380,319.6328 " fill="none" style="stroke: #A80036; stroke-width: 1.0;"/><path d="M542,291.4844 L532,291.4844 C517,291.4844 517,319.6328 502,319.6328 L492,319.6328 " fill="none" style="stroke: #A80036; stroke-width: 1.0;"/><rect fill="#FEFECE" filter="url(#f1nq94msgk03mu)" height="36.2969" rx="12.5" ry="12.5" style="stroke: #A80036; stroke-width: 1.5;" width="62" x="430" y="357.7813"/><text fill="#000000" font-family="sans-serif" font-size="14" lengthAdjust="spacingAndGlyphs" textLength="42" x="440" y="380.7764">编辑器</text><rect fill="#FEFECE" filter="url(#f1nq94msgk03mu)" height="36.2969" rx="12.5" ry="12.5" style="stroke: #A80036; stroke-width: 1.5;" width="370" x="10" y="357.7813"/><text fill="#000000" font-family="sans-serif" font-size="14" lengthAdjust="spacingAndGlyphs" textLength="350" x="20" y="380.7764">在编辑器里可用键盘完成所有操作（少用鼠标和触摸板）</text><path d="M430,375.9297 L420,375.9297 C405,375.9297 405,375.9297 390,375.9297 L380,375.9297 " fill="none" style="stroke: #A80036; stroke-width: 1.0;"/><path d="M542,291.4844 L532,291.4844 C517,291.4844 517,375.9297 502,375.9297 L492,375.9297 " fill="none" style="stroke: #A80036; stroke-width: 1.0;"/><path d="M668,319.6328 L658,319.6328 C643,319.6328 643,291.4844 628,291.4844 L618,291.4844 " fill="none" style="stroke: #A80036; stroke-width: 1.0;"/><rect fill="#FEFECE" filter="url(#f1nq94msgk03mu)" height="36.2969" rx="12.5" ry="12.5" style="stroke: #A80036; stroke-width: 1.5;" width="90" x="528" y="414.0781"/><text fill="#000000" font-family="sans-serif" font-size="14" lengthAdjust="spacingAndGlyphs" textLength="70" x="538" y="437.0732">怎么问问题</text><rect fill="#FEFECE" filter="url(#f1nq94msgk03mu)" height="36.2969" rx="12.5" ry="12.5" style="stroke: #A80036; stroke-width: 1.5;" width="166" x="312" y="414.0781"/><text fill="#000000" font-family="sans-serif" font-size="14" lengthAdjust="spacingAndGlyphs" textLength="146" x="322" y="437.0732">多用google，少用百度</text><path d="M528,432.2266 L518,432.2266 C503,432.2266 503,432.2266 488,432.2266 L478,432.2266 " fill="none" style="stroke: #A80036; stroke-width: 1.0;"/><path d="M668,319.6328 L658,319.6328 C643,319.6328 643,432.2266 628,432.2266 L618,432.2266 " fill="none" style="stroke: #A80036; stroke-width: 1.0;"/><!--MD5=[c7baea07b937714007c8065627b86bed]
@startmindmap
* 预备课必备知识
** 命令行操作
*** linux文件和目录
**** 文件和文件夹操作
**** 变更工作目录
*** 命令行快捷键
**** 如何让你的操作更快捷
** 笔记
*** markdown语法
** 软件管理
*** brew
** git
*** github创建项目
*** git项目管理
**** init
**** clone
**** add
**** commit
**** push
left side
** 核心工具
*** 终端
**** terminal
**** iTerm
*** 浏览器
**** chrome
*** 编辑器
**** 在编辑器里可用键盘完成所有操作（少用鼠标和触摸板）
** 怎么问问题
*** 多用google，少用百度
@endmindmap

PlantUML version 1.2020.00(Sat Jan 11 20:30:53 CST 2020)
(GPL source distribution)
Java Runtime: OpenJDK Runtime Environment
JVM: OpenJDK 64-Bit Server VM
Java Version: 11.0.6+10-post-Ubuntu-1ubuntu119.10.1
Operating System: Linux
Default Encoding: UTF-8
Language: en
Country: US
--></g></svg>