<?xml version="1.0" encoding="UTF-8" standalone="no"?><svg xmlns="http://www.w3.org/2000/svg" xmlns:xlink="http://www.w3.org/1999/xlink" contentScriptType="application/ecmascript" contentStyleType="text/css" height="866px" preserveAspectRatio="none" style="width:1362px;height:866px;" version="1.1" viewBox="0 0 1362 866" width="1362px" zoomAndPan="magnify"><defs><filter height="300%" id="f102wydmel9bfo" width="300%" x="-1" y="-1"><feGaussianBlur result="blurOut" stdDeviation="2.0"/><feColorMatrix in="blurOut" result="blurOut2" type="matrix" values="0 0 0 0 0 0 0 0 0 0 0 0 0 0 0 0 0 0 .4 0"/><feOffset dx="4.0" dy="4.0" in="blurOut2" result="blurOut3"/><feBlend in="SourceGraphic" in2="blurOut3" mode="normal"/></filter></defs><g><rect fill="#FEFECE" filter="url(#f102wydmel9bfo)" height="36.2969" rx="12.5" ry="12.5" style="stroke: #A80036; stroke-width: 1.5;" width="118" x="669" y="419.7109"/><text fill="#000000" font-family="sans-serif" font-size="14" lengthAdjust="spacingAndGlyphs" textLength="98" x="679" y="442.7061">预备课必备知识</text><rect fill="#FEFECE" filter="url(#f102wydmel9bfo)" height="36.2969" rx="12.5" ry="12.5" style="stroke: #A80036; stroke-width: 1.5;" width="121" x="837" y="88.9648"/><text fill="#000000" font-family="sans-serif" font-size="14" lengthAdjust="spacingAndGlyphs" textLength="101" x="847" y="111.96">linux文件和目录</text><rect fill="#FEFECE" filter="url(#f102wydmel9bfo)" height="36.2969" rx="12.5" ry="12.5" style="stroke: #A80036; stroke-width: 1.5;" width="146" x="1008" y="20"/><text fill="#000000" font-family="sans-serif" font-size="14" lengthAdjust="spacingAndGlyphs" textLength="126" x="1018" y="42.9951">变更和查看工作目录</text><text fill="#000000" font-family="sans-serif" font-size="14" lengthAdjust="spacingAndGlyphs" textLength="143" x="1207" y="33.8467">cd(change directory)</text><path d="M1154,38.1484 L1164,38.1484 C1179,38.1484 1179,29 1194,29 L1204,29 " fill="none" style="stroke: #A80036; stroke-width: 1.0;"/><text fill="#000000" font-family="sans-serif" font-size="14" lengthAdjust="spacingAndGlyphs" textLength="40" x="1207" y="52.1436">ls(list)</text><path d="M1154,38.1484 L1164,38.1484 C1179,38.1484 1179,47.2969 1194,47.2969 L1204,47.2969 " fill="none" style="stroke: #A80036; stroke-width: 1.0;"/><path d="M958,107.1133 L968,107.1133 C983,107.1133 983,38.1484 998,38.1484 L1008,38.1484 " fill="none" style="stroke: #A80036; stroke-width: 1.0;"/><rect fill="#FEFECE" filter="url(#f102wydmel9bfo)" height="36.2969" rx="12.5" ry="12.5" style="stroke: #A80036; stroke-width: 1.5;" width="132" x="1008" y="93.8906"/><text fill="#000000" font-family="sans-serif" font-size="14" lengthAdjust="spacingAndGlyphs" textLength="112" x="1018" y="116.8857">文件和文件夹操作</text><text fill="#000000" font-family="sans-serif" font-size="14" lengthAdjust="spacingAndGlyphs" textLength="40" x="1193" y="80.292">touch</text><path d="M1140,112.0391 L1150,112.0391 C1165,112.0391 1165,75.4453 1180,75.4453 L1190,75.4453 " fill="none" style="stroke: #A80036; stroke-width: 1.0;"/><text fill="#000000" font-family="sans-serif" font-size="14" lengthAdjust="spacingAndGlyphs" textLength="38" x="1193" y="98.5889">mkdir</text><path d="M1140,112.0391 L1150,112.0391 C1165,112.0391 1165,93.7422 1180,93.7422 L1190,93.7422 " fill="none" style="stroke: #A80036; stroke-width: 1.0;"/><text fill="#000000" font-family="sans-serif" font-size="14" lengthAdjust="spacingAndGlyphs" textLength="17" x="1193" y="116.8857">cp</text><path d="M1140,112.0391 L1150,112.0391 C1165,112.0391 1165,112.0391 1180,112.0391 L1190,112.0391 " fill="none" style="stroke: #A80036; stroke-width: 1.0;"/><text fill="#000000" font-family="sans-serif" font-size="14" lengthAdjust="spacingAndGlyphs" textLength="20" x="1193" y="135.1826">mv</text><path d="M1140,112.0391 L1150,112.0391 C1165,112.0391 1165,130.3359 1180,130.3359 L1190,130.3359 " fill="none" style="stroke: #A80036; stroke-width: 1.0;"/><text fill="#000000" font-family="sans-serif" font-size="14" lengthAdjust="spacingAndGlyphs" textLength="18" x="1193" y="153.4795">rm</text><path d="M1140,112.0391 L1150,112.0391 C1165,112.0391 1165,148.6328 1180,148.6328 L1190,148.6328 " fill="none" style="stroke: #A80036; stroke-width: 1.0;"/><path d="M958,107.1133 L968,107.1133 C983,107.1133 983,112.0391 998,112.0391 L1008,112.0391 " fill="none" style="stroke: #A80036; stroke-width: 1.0;"/><rect fill="#FEFECE" filter="url(#f102wydmel9bfo)" height="36.2969" rx="12.5" ry="12.5" style="stroke: #A80036; stroke-width: 1.5;" width="118" x="1008" y="157.9297"/><text fill="#000000" font-family="sans-serif" font-size="14" lengthAdjust="spacingAndGlyphs" textLength="98" x="1018" y="180.9248">修改文件的权限</text><text fill="#000000" font-family="sans-serif" font-size="14" lengthAdjust="spacingAndGlyphs" textLength="48" x="1179" y="171.7764">chmod</text><path d="M1126,176.0781 L1136,176.0781 C1151,176.0781 1151,166.9297 1166,166.9297 L1176,166.9297 " fill="none" style="stroke: #A80036; stroke-width: 1.0;"/><text fill="#000000" font-family="sans-serif" font-size="14" lengthAdjust="spacingAndGlyphs" textLength="40" x="1179" y="190.0732">chgrp</text><path d="M1126,176.0781 L1136,176.0781 C1151,176.0781 1151,185.2266 1166,185.2266 L1176,185.2266 " fill="none" style="stroke: #A80036; stroke-width: 1.0;"/><path d="M958,107.1133 L968,107.1133 C983,107.1133 983,176.0781 998,176.0781 L1008,176.0781 " fill="none" style="stroke: #A80036; stroke-width: 1.0;"/><path d="M787,437.8594 L797,437.8594 C812,437.8594 812,107.1133 827,107.1133 L837,107.1133 " fill="none" style="stroke: #A80036; stroke-width: 1.0;"/><rect fill="#FEFECE" filter="url(#f102wydmel9bfo)" height="36.2969" rx="12.5" ry="12.5" style="stroke: #A80036; stroke-width: 1.5;" width="104" x="837" y="222.6719"/><text fill="#000000" font-family="sans-serif" font-size="14" lengthAdjust="spacingAndGlyphs" textLength="84" x="847" y="245.667">命令行快捷键</text><text fill="#000000" font-family="sans-serif" font-size="14" lengthAdjust="spacingAndGlyphs" textLength="56" x="994" y="218.2217">移动光标</text><path d="M941,240.8203 L951,240.8203 C966,240.8203 966,213.375 981,213.375 L991,213.375 " fill="none" style="stroke: #A80036; stroke-width: 1.0;"/><text fill="#000000" font-family="sans-serif" font-size="14" lengthAdjust="spacingAndGlyphs" textLength="28" x="994" y="236.5186">删除</text><path d="M941,240.8203 L951,240.8203 C966,240.8203 966,231.6719 981,231.6719 L991,231.6719 " fill="none" style="stroke: #A80036; stroke-width: 1.0;"/><text fill="#000000" font-family="sans-serif" font-size="14" lengthAdjust="spacingAndGlyphs" textLength="112" x="994" y="254.8154">上一条下一条命令</text><path d="M941,240.8203 L951,240.8203 C966,240.8203 966,249.9688 981,249.9688 L991,249.9688 " fill="none" style="stroke: #A80036; stroke-width: 1.0;"/><text fill="#000000" font-family="sans-serif" font-size="14" lengthAdjust="spacingAndGlyphs" textLength="84" x="994" y="273.1123">搜索历史命令</text><path d="M941,240.8203 L951,240.8203 C966,240.8203 966,268.2656 981,268.2656 L991,268.2656 " fill="none" style="stroke: #A80036; stroke-width: 1.0;"/><path d="M787,437.8594 L797,437.8594 C812,437.8594 812,240.8203 827,240.8203 L837,240.8203 " fill="none" style="stroke: #A80036; stroke-width: 1.0;"/><rect fill="#FEFECE" filter="url(#f102wydmel9bfo)" height="36.2969" rx="12.5" ry="12.5" style="stroke: #A80036; stroke-width: 1.5;" width="48" x="837" y="329.6367"/><text fill="#000000" font-family="sans-serif" font-size="14" lengthAdjust="spacingAndGlyphs" textLength="28" x="847" y="352.6318">笔记</text><rect fill="#FEFECE" filter="url(#f102wydmel9bfo)" height="36.2969" rx="12.5" ry="12.5" style="stroke: #A80036; stroke-width: 1.5;" width="146" x="935" y="315.5625"/><text fill="#000000" font-family="sans-serif" font-size="14" lengthAdjust="spacingAndGlyphs" textLength="126" x="945" y="338.5576">找一个好的笔记软件</text><rect fill="#FEFECE" filter="url(#f102wydmel9bfo)" height="36.2969" rx="12.5" ry="12.5" style="stroke: #A80036; stroke-width: 1.5;" width="62" x="1131" y="287.4141"/><text fill="#000000" font-family="sans-serif" font-size="14" lengthAdjust="spacingAndGlyphs" textLength="42" x="1141" y="310.4092">有道云</text><path d="M1081,333.7109 L1091,333.7109 C1106,333.7109 1106,305.5625 1121,305.5625 L1131,305.5625 " fill="none" style="stroke: #A80036; stroke-width: 1.0;"/><rect fill="#FEFECE" filter="url(#f102wydmel9bfo)" height="36.2969" rx="12.5" ry="12.5" style="stroke: #A80036; stroke-width: 1.5;" width="106" x="1131" y="343.7109"/><text fill="#000000" font-family="sans-serif" font-size="14" lengthAdjust="spacingAndGlyphs" textLength="86" x="1141" y="366.7061">直接用github</text><path d="M1081,333.7109 L1091,333.7109 C1106,333.7109 1106,361.8594 1121,361.8594 L1131,361.8594 " fill="none" style="stroke: #A80036; stroke-width: 1.0;"/><path d="M885,347.7852 L895,347.7852 C910,347.7852 910,333.7109 925,333.7109 L935,333.7109 " fill="none" style="stroke: #A80036; stroke-width: 1.0;"/><rect fill="#FEFECE" filter="url(#f102wydmel9bfo)" height="36.2969" rx="12.5" ry="12.5" style="stroke: #A80036; stroke-width: 1.5;" width="120" x="935" y="371.8594"/><text fill="#000000" font-family="sans-serif" font-size="14" lengthAdjust="spacingAndGlyphs" textLength="100" x="945" y="394.8545">markdown语法</text><path d="M885,347.7852 L895,347.7852 C910,347.7852 910,390.0078 925,390.0078 L935,390.0078 " fill="none" style="stroke: #A80036; stroke-width: 1.0;"/><path d="M787,437.8594 L797,437.8594 C812,437.8594 812,347.7852 827,347.7852 L837,347.7852 " fill="none" style="stroke: #A80036; stroke-width: 1.0;"/><rect fill="#FEFECE" filter="url(#f102wydmel9bfo)" height="36.2969" rx="12.5" ry="12.5" style="stroke: #A80036; stroke-width: 1.5;" width="76" x="837" y="454.8984"/><text fill="#000000" font-family="sans-serif" font-size="14" lengthAdjust="spacingAndGlyphs" textLength="56" x="847" y="477.8936">软件管理</text><rect fill="#FEFECE" filter="url(#f102wydmel9bfo)" height="36.2969" rx="12.5" ry="12.5" style="stroke: #A80036; stroke-width: 1.5;" width="54" x="963" y="454.8984"/><text fill="#000000" font-family="sans-serif" font-size="14" lengthAdjust="spacingAndGlyphs" textLength="34" x="973" y="477.8936">brew</text><text fill="#000000" font-family="sans-serif" font-size="14" lengthAdjust="spacingAndGlyphs" textLength="19" x="1070" y="432.1514">list</text><path d="M1017,473.0469 L1027,473.0469 C1042,473.0469 1042,427.3047 1057,427.3047 L1067,427.3047 " fill="none" style="stroke: #A80036; stroke-width: 1.0;"/><text fill="#000000" font-family="sans-serif" font-size="14" lengthAdjust="spacingAndGlyphs" textLength="39" x="1070" y="450.4482">install</text><path d="M1017,473.0469 L1027,473.0469 C1042,473.0469 1042,445.6016 1057,445.6016 L1067,445.6016 " fill="none" style="stroke: #A80036; stroke-width: 1.0;"/><text fill="#000000" font-family="sans-serif" font-size="14" lengthAdjust="spacingAndGlyphs" textLength="57" x="1070" y="468.7451">uninstall</text><path d="M1017,473.0469 L1027,473.0469 C1042,473.0469 1042,463.8984 1057,463.8984 L1067,463.8984 " fill="none" style="stroke: #A80036; stroke-width: 1.0;"/><text fill="#000000" font-family="sans-serif" font-size="14" lengthAdjust="spacingAndGlyphs" textLength="47" x="1070" y="487.042">search</text><path d="M1017,473.0469 L1027,473.0469 C1042,473.0469 1042,482.1953 1057,482.1953 L1067,482.1953 " fill="none" style="stroke: #A80036; stroke-width: 1.0;"/><text fill="#000000" font-family="sans-serif" font-size="14" lengthAdjust="spacingAndGlyphs" textLength="58" x="1070" y="505.3389">upgrade</text><path d="M1017,473.0469 L1027,473.0469 C1042,473.0469 1042,500.4922 1057,500.4922 L1067,500.4922 " fill="none" style="stroke: #A80036; stroke-width: 1.0;"/><text fill="#000000" font-family="sans-serif" font-size="14" lengthAdjust="spacingAndGlyphs" textLength="49" x="1070" y="523.6357">update</text><path d="M1017,473.0469 L1027,473.0469 C1042,473.0469 1042,518.7891 1057,518.7891 L1067,518.7891 " fill="none" style="stroke: #A80036; stroke-width: 1.0;"/><path d="M913,473.0469 L923,473.0469 C938,473.0469 938,473.0469 953,473.0469 L963,473.0469 " fill="none" style="stroke: #A80036; stroke-width: 1.0;"/><path d="M787,437.8594 L797,437.8594 C812,437.8594 812,473.0469 827,473.0469 L837,473.0469 " fill="none" style="stroke: #A80036; stroke-width: 1.0;"/><rect fill="#FEFECE" filter="url(#f102wydmel9bfo)" height="36.2969" rx="12.5" ry="12.5" style="stroke: #A80036; stroke-width: 1.5;" width="37" x="837" y="678.6797"/><text fill="#000000" font-family="sans-serif" font-size="14" lengthAdjust="spacingAndGlyphs" textLength="17" x="847" y="701.6748">git</text><rect fill="#FEFECE" filter="url(#f102wydmel9bfo)" height="36.2969" rx="12.5" ry="12.5" style="stroke: #A80036; stroke-width: 1.5;" width="120" x="924" y="537.9375"/><text fill="#000000" font-family="sans-serif" font-size="14" lengthAdjust="spacingAndGlyphs" textLength="100" x="934" y="560.9326">github创建项目</text><path d="M874,696.8281 L884,696.8281 C899,696.8281 899,556.0859 914,556.0859 L924,556.0859 " fill="none" style="stroke: #A80036; stroke-width: 1.0;"/><rect fill="#FEFECE" filter="url(#f102wydmel9bfo)" height="36.2969" rx="12.5" ry="12.5" style="stroke: #A80036; stroke-width: 1.5;" width="74" x="924" y="594.2344"/><text fill="#000000" font-family="sans-serif" font-size="14" lengthAdjust="spacingAndGlyphs" textLength="54" x="934" y="617.2295">ssh-key</text><path d="M874,696.8281 L884,696.8281 C899,696.8281 899,612.3828 914,612.3828 L924,612.3828 " fill="none" style="stroke: #A80036; stroke-width: 1.0;"/><rect fill="#FEFECE" filter="url(#f102wydmel9bfo)" height="36.2969" rx="12.5" ry="12.5" style="stroke: #A80036; stroke-width: 1.5;" width="93" x="924" y="706.8281"/><text fill="#000000" font-family="sans-serif" font-size="14" lengthAdjust="spacingAndGlyphs" textLength="73" x="934" y="729.8232">git项目管理</text><rect fill="#FEFECE" filter="url(#f102wydmel9bfo)" height="36.2969" rx="12.5" ry="12.5" style="stroke: #A80036; stroke-width: 1.5;" width="40" x="1067" y="594.2344"/><text fill="#000000" font-family="sans-serif" font-size="14" lengthAdjust="spacingAndGlyphs" textLength="20" x="1077" y="617.2295">init</text><path d="M1017,724.9766 L1027,724.9766 C1042,724.9766 1042,612.3828 1057,612.3828 L1067,612.3828 " fill="none" style="stroke: #A80036; stroke-width: 1.0;"/><rect fill="#FEFECE" filter="url(#f102wydmel9bfo)" height="36.2969" rx="12.5" ry="12.5" style="stroke: #A80036; stroke-width: 1.5;" width="58" x="1067" y="650.5313"/><text fill="#000000" font-family="sans-serif" font-size="14" lengthAdjust="spacingAndGlyphs" textLength="38" x="1077" y="673.5264">clone</text><path d="M1017,724.9766 L1027,724.9766 C1042,724.9766 1042,668.6797 1057,668.6797 L1067,668.6797 " fill="none" style="stroke: #A80036; stroke-width: 1.0;"/><rect fill="#FEFECE" filter="url(#f102wydmel9bfo)" height="36.2969" rx="12.5" ry="12.5" style="stroke: #A80036; stroke-width: 1.5;" width="46" x="1067" y="706.8281"/><text fill="#000000" font-family="sans-serif" font-size="14" lengthAdjust="spacingAndGlyphs" textLength="26" x="1077" y="729.8232">add</text><path d="M1017,724.9766 L1027,724.9766 C1042,724.9766 1042,724.9766 1057,724.9766 L1067,724.9766 " fill="none" style="stroke: #A80036; stroke-width: 1.0;"/><rect fill="#FEFECE" filter="url(#f102wydmel9bfo)" height="36.2969" rx="12.5" ry="12.5" style="stroke: #A80036; stroke-width: 1.5;" width="71" x="1067" y="763.125"/><text fill="#000000" font-family="sans-serif" font-size="14" lengthAdjust="spacingAndGlyphs" textLength="51" x="1077" y="786.1201">commit</text><path d="M1017,724.9766 L1027,724.9766 C1042,724.9766 1042,781.2734 1057,781.2734 L1067,781.2734 " fill="none" style="stroke: #A80036; stroke-width: 1.0;"/><rect fill="#FEFECE" filter="url(#f102wydmel9bfo)" height="36.2969" rx="12.5" ry="12.5" style="stroke: #A80036; stroke-width: 1.5;" width="55" x="1067" y="819.4219"/><text fill="#000000" font-family="sans-serif" font-size="14" lengthAdjust="spacingAndGlyphs" textLength="35" x="1077" y="842.417">push</text><path d="M1017,724.9766 L1027,724.9766 C1042,724.9766 1042,837.5703 1057,837.5703 L1067,837.5703 " fill="none" style="stroke: #A80036; stroke-width: 1.0;"/><path d="M874,696.8281 L884,696.8281 C899,696.8281 899,724.9766 914,724.9766 L924,724.9766 " fill="none" style="stroke: #A80036; stroke-width: 1.0;"/><path d="M787,437.8594 L797,437.8594 C812,437.8594 812,696.8281 827,696.8281 L837,696.8281 " fill="none" style="stroke: #A80036; stroke-width: 1.0;"/><rect fill="#FEFECE" filter="url(#f102wydmel9bfo)" height="36.2969" rx="12.5" ry="12.5" style="stroke: #A80036; stroke-width: 1.5;" width="76" x="543" y="391.5625"/><text fill="#000000" font-family="sans-serif" font-size="14" lengthAdjust="spacingAndGlyphs" textLength="56" x="553" y="414.5576">核心工具</text><rect fill="#FEFECE" filter="url(#f102wydmel9bfo)" height="36.2969" rx="12.5" ry="12.5" style="stroke: #A80036; stroke-width: 1.5;" width="48" x="445" y="316.9688"/><text fill="#000000" font-family="sans-serif" font-size="14" lengthAdjust="spacingAndGlyphs" textLength="28" x="455" y="339.9639">终端</text><rect fill="#FEFECE" filter="url(#f102wydmel9bfo)" height="36.2969" rx="12.5" ry="12.5" style="stroke: #A80036; stroke-width: 1.5;" width="75" x="320" y="288.8203"/><text fill="#000000" font-family="sans-serif" font-size="14" lengthAdjust="spacingAndGlyphs" textLength="55" x="330" y="311.8154">terminal</text><path d="M445,335.1172 L435,335.1172 C420,335.1172 420,306.9688 405,306.9688 L395,306.9688 " fill="none" style="stroke: #A80036; stroke-width: 1.0;"/><rect fill="#FEFECE" filter="url(#f102wydmel9bfo)" height="36.2969" rx="12.5" ry="12.5" style="stroke: #A80036; stroke-width: 1.5;" width="59" x="336" y="345.1172"/><text fill="#000000" font-family="sans-serif" font-size="14" lengthAdjust="spacingAndGlyphs" textLength="39" x="346" y="368.1123">iTerm</text><path d="M445,335.1172 L435,335.1172 C420,335.1172 420,363.2656 405,363.2656 L395,363.2656 " fill="none" style="stroke: #A80036; stroke-width: 1.0;"/><path d="M543,409.7109 L533,409.7109 C518,409.7109 518,335.1172 503,335.1172 L493,335.1172 " fill="none" style="stroke: #A80036; stroke-width: 1.0;"/><rect fill="#FEFECE" filter="url(#f102wydmel9bfo)" height="36.2969" rx="12.5" ry="12.5" style="stroke: #A80036; stroke-width: 1.5;" width="62" x="431" y="401.4141"/><text fill="#000000" font-family="sans-serif" font-size="14" lengthAdjust="spacingAndGlyphs" textLength="42" x="441" y="424.4092">浏览器</text><rect fill="#FEFECE" filter="url(#f102wydmel9bfo)" height="36.2969" rx="12.5" ry="12.5" style="stroke: #A80036; stroke-width: 1.5;" width="73" x="308" y="401.4141"/><text fill="#000000" font-family="sans-serif" font-size="14" lengthAdjust="spacingAndGlyphs" textLength="53" x="318" y="424.4092">chrome</text><path d="M431,419.5625 L421,419.5625 C406,419.5625 406,419.5625 391,419.5625 L381,419.5625 " fill="none" style="stroke: #A80036; stroke-width: 1.0;"/><path d="M543,409.7109 L533,409.7109 C518,409.7109 518,419.5625 503,419.5625 L493,419.5625 " fill="none" style="stroke: #A80036; stroke-width: 1.0;"/><rect fill="#FEFECE" filter="url(#f102wydmel9bfo)" height="36.2969" rx="12.5" ry="12.5" style="stroke: #A80036; stroke-width: 1.5;" width="62" x="431" y="476.0078"/><text fill="#000000" font-family="sans-serif" font-size="14" lengthAdjust="spacingAndGlyphs" textLength="42" x="441" y="499.0029">编辑器</text><rect fill="#FEFECE" filter="url(#f102wydmel9bfo)" height="52.5938" rx="12.5" ry="12.5" style="stroke: #A80036; stroke-width: 1.5;" width="160" x="221" y="467.8594"/><text fill="#000000" font-family="sans-serif" font-size="14" lengthAdjust="spacingAndGlyphs" textLength="126" x="231" y="490.8545">用键盘完成所有操作</text><text fill="#000000" font-family="sans-serif" font-size="14" lengthAdjust="spacingAndGlyphs" textLength="140" x="231" y="507.1514">（少用鼠标和触摸板）</text><text fill="#000000" font-family="sans-serif" font-size="14" lengthAdjust="spacingAndGlyphs" textLength="46" x="122" y="461.7061">emacs</text><path d="M221,494.1563 L211,494.1563 C196,494.1563 196,456.8594 181,456.8594 L171,456.8594 " fill="none" style="stroke: #A80036; stroke-width: 1.0;"/><text fill="#000000" font-family="sans-serif" font-size="14" lengthAdjust="spacingAndGlyphs" textLength="23" x="145" y="480.0029">vim</text><path d="M221,494.1563 L211,494.1563 C196,494.1563 196,475.1563 181,475.1563 L171,475.1563 " fill="none" style="stroke: #A80036; stroke-width: 1.0;"/><rect fill="#FEFECE" filter="url(#f102wydmel9bfo)" height="36.2969" rx="12.5" ry="12.5" style="stroke: #A80036; stroke-width: 1.5;" width="48" x="123" y="494.3047"/><text fill="#000000" font-family="sans-serif" font-size="14" lengthAdjust="spacingAndGlyphs" textLength="28" x="133" y="517.2998">其他</text><text fill="#000000" font-family="sans-serif" font-size="14" lengthAdjust="spacingAndGlyphs" textLength="55" x="15" y="499.0029">Sublime</text><path d="M123,512.4531 L113,512.4531 C98,512.4531 98,494.1563 83,494.1563 L73,494.1563 " fill="none" style="stroke: #A80036; stroke-width: 1.0;"/><text fill="#000000" font-family="sans-serif" font-size="14" lengthAdjust="spacingAndGlyphs" textLength="60" x="10" y="517.2998">VS-Code</text><path d="M123,512.4531 L113,512.4531 C98,512.4531 98,512.4531 83,512.4531 L73,512.4531 " fill="none" style="stroke: #A80036; stroke-width: 1.0;"/><text fill="#000000" font-family="sans-serif" font-size="14" lengthAdjust="spacingAndGlyphs" textLength="36" x="34" y="535.5967">Atom</text><path d="M123,512.4531 L113,512.4531 C98,512.4531 98,530.75 83,530.75 L73,530.75 " fill="none" style="stroke: #A80036; stroke-width: 1.0;"/><path d="M221,494.1563 L211,494.1563 C196,494.1563 196,512.4531 181,512.4531 L171,512.4531 " fill="none" style="stroke: #A80036; stroke-width: 1.0;"/><path d="M431,494.1563 L421,494.1563 C406,494.1563 406,494.1563 391,494.1563 L381,494.1563 " fill="none" style="stroke: #A80036; stroke-width: 1.0;"/><path d="M543,409.7109 L533,409.7109 C518,409.7109 518,494.1563 503,494.1563 L493,494.1563 " fill="none" style="stroke: #A80036; stroke-width: 1.0;"/><path d="M669,437.8594 L659,437.8594 C644,437.8594 644,409.7109 629,409.7109 L619,409.7109 " fill="none" style="stroke: #A80036; stroke-width: 1.0;"/><rect fill="#FEFECE" filter="url(#f102wydmel9bfo)" height="36.2969" rx="12.5" ry="12.5" style="stroke: #A80036; stroke-width: 1.5;" width="104" x="515" y="550.6016"/><text fill="#000000" font-family="sans-serif" font-size="14" lengthAdjust="spacingAndGlyphs" textLength="84" x="525" y="573.5967">问问题的技巧</text><text fill="#000000" font-family="sans-serif" font-size="14" lengthAdjust="spacingAndGlyphs" textLength="146" x="316" y="564.4482">多用google，少用百度</text><path d="M515,568.75 L505,568.75 C490,568.75 490,559.6016 475,559.6016 L465,559.6016 " fill="none" style="stroke: #A80036; stroke-width: 1.0;"/><text fill="#000000" font-family="sans-serif" font-size="14" lengthAdjust="spacingAndGlyphs" textLength="98" x="364" y="582.7451">搜索什么关键词</text><path d="M515,568.75 L505,568.75 C490,568.75 490,577.8984 475,577.8984 L465,577.8984 " fill="none" style="stroke: #A80036; stroke-width: 1.0;"/><path d="M669,437.8594 L659,437.8594 C644,437.8594 644,568.75 629,568.75 L619,568.75 " fill="none" style="stroke: #A80036; stroke-width: 1.0;"/><!--MD5=[b596b8758ef6a8aa1aaa6e64a51680b7]
@startmindmap
* 预备课必备知识
** linux文件和目录
*** 变更和查看工作目录
****_ cd(change directory)
****_ ls(list)
*** 文件和文件夹操作
****_ touch
****_ mkdir
****_ cp
****_ mv
****_ rm
*** 修改文件的权限
****_ chmod
****_ chgrp
** 命令行快捷键
***_ 移动光标
***_ 删除
***_ 上一条下一条命令
***_ 搜索历史命令
** 笔记
*** 找一个好的笔记软件
**** 有道云
**** 直接用github
*** markdown语法
** 软件管理
*** brew
****_ list
****_ install
****_ uninstall
****_ search
****_ upgrade
****_ update
** git
*** github创建项目
*** ssh-key
*** git项目管理
**** init
**** clone
**** add
**** commit
**** push
left side
** 核心工具
*** 终端
**** terminal
**** iTerm
*** 浏览器
**** chrome
*** 编辑器
**** 用键盘完成所有操作\n（少用鼠标和触摸板）
*****_ emacs
*****_ vim
***** 其他
******_ Sublime
******_ VS-Code
******_ Atom
** 问问题的技巧
***_ 多用google，少用百度
***_ 搜索什么关键词
@endmindmap

PlantUML version 1.2020.00(Sat Jan 11 20:30:53 CST 2020)
(GPL source distribution)
Java Runtime: OpenJDK Runtime Environment
JVM: OpenJDK 64-Bit Server VM
Java Version: 11.0.6+10-post-Ubuntu-1ubuntu119.10.1
Operating System: Linux
Default Encoding: UTF-8
Language: en
Country: US
--></g></svg>