<?xml version="1.0" encoding="UTF-8" standalone="no"?><svg xmlns="http://www.w3.org/2000/svg" xmlns:xlink="http://www.w3.org/1999/xlink" contentScriptType="application/ecmascript" contentStyleType="text/css" height="1044px" preserveAspectRatio="none" style="width:1352px;height:1044px;" version="1.1" viewBox="0 0 1352 1044" width="1352px" zoomAndPan="magnify"><defs><filter height="300%" id="f1i78107srlbq5" width="300%" x="-1" y="-1"><feGaussianBlur result="blurOut" stdDeviation="2.0"/><feColorMatrix in="blurOut" result="blurOut2" type="matrix" values="0 0 0 0 0 0 0 0 0 0 0 0 0 0 0 0 0 0 .4 0"/><feOffset dx="4.0" dy="4.0" in="blurOut2" result="blurOut3"/><feBlend in="SourceGraphic" in2="blurOut3" mode="normal"/></filter></defs><g><rect fill="#FEFECE" filter="url(#f1i78107srlbq5)" height="40.2719" rx="12.5" ry="12.5" style="stroke: #A80036; stroke-width: 1.5;" width="118" x="664" y="506.7388"/><text fill="#000000" font-family="sans-serif" font-size="14" lengthAdjust="spacingAndGlyphs" textLength="98" x="674" y="532.9787">预备课必备知识</text><rect fill="#FEFECE" filter="url(#f1i78107srlbq5)" height="40.2719" rx="12.5" ry="12.5" style="stroke: #A80036; stroke-width: 1.5;" width="123" x="832" y="109.0876"/><text fill="#000000" font-family="sans-serif" font-size="14" lengthAdjust="spacingAndGlyphs" textLength="103" x="842" y="135.3276">linux文件和目录</text><rect fill="#FEFECE" filter="url(#f1i78107srlbq5)" height="40.2719" rx="12.5" ry="12.5" style="stroke: #A80036; stroke-width: 1.5;" width="146" x="1005" y="20"/><text fill="#000000" font-family="sans-serif" font-size="14" lengthAdjust="spacingAndGlyphs" textLength="126" x="1015" y="46.2399">变更和查看工作目录</text><text fill="#000000" font-family="sans-serif" font-size="14" lengthAdjust="spacingAndGlyphs" textLength="136" x="1204" y="35.104">cd(change directory)</text><path d="M1151,40.136 L1161,40.136 C1176,40.136 1176,29 1191,29 L1201,29 " fill="none" style="stroke: #A80036; stroke-width: 1.0;"/><text fill="#000000" font-family="sans-serif" font-size="14" lengthAdjust="spacingAndGlyphs" textLength="41" x="1204" y="57.3759">ls(list)</text><path d="M1151,40.136 L1161,40.136 C1176,40.136 1176,51.2719 1191,51.2719 L1201,51.2719 " fill="none" style="stroke: #A80036; stroke-width: 1.0;"/><path d="M955,129.2236 L965,129.2236 C980,129.2236 980,40.136 995,40.136 L1005,40.136 " fill="none" style="stroke: #A80036; stroke-width: 1.0;"/><rect fill="#FEFECE" filter="url(#f1i78107srlbq5)" height="40.2719" rx="12.5" ry="12.5" style="stroke: #A80036; stroke-width: 1.5;" width="132" x="1005" y="105.8157"/><text fill="#000000" font-family="sans-serif" font-size="14" lengthAdjust="spacingAndGlyphs" textLength="112" x="1015" y="132.0557">文件和文件夹操作</text><text fill="#000000" font-family="sans-serif" font-size="14" lengthAdjust="spacingAndGlyphs" textLength="38" x="1190" y="87.5118">touch</text><path d="M1137,125.9517 L1147,125.9517 C1162,125.9517 1162,81.4079 1177,81.4079 L1187,81.4079 " fill="none" style="stroke: #A80036; stroke-width: 1.0;"/><text fill="#000000" font-family="sans-serif" font-size="14" lengthAdjust="spacingAndGlyphs" textLength="39" x="1190" y="109.7838">mkdir</text><path d="M1137,125.9517 L1147,125.9517 C1162,125.9517 1162,103.6798 1177,103.6798 L1187,103.6798 " fill="none" style="stroke: #A80036; stroke-width: 1.0;"/><text fill="#000000" font-family="sans-serif" font-size="14" lengthAdjust="spacingAndGlyphs" textLength="16" x="1190" y="132.0557">cp</text><path d="M1137,125.9517 L1147,125.9517 C1162,125.9517 1162,125.9517 1177,125.9517 L1187,125.9517 " fill="none" style="stroke: #A80036; stroke-width: 1.0;"/><text fill="#000000" font-family="sans-serif" font-size="14" lengthAdjust="spacingAndGlyphs" textLength="20" x="1190" y="154.3276">mv</text><path d="M1137,125.9517 L1147,125.9517 C1162,125.9517 1162,148.2236 1177,148.2236 L1187,148.2236 " fill="none" style="stroke: #A80036; stroke-width: 1.0;"/><text fill="#000000" font-family="sans-serif" font-size="14" lengthAdjust="spacingAndGlyphs" textLength="18" x="1190" y="176.5995">rm</text><path d="M1137,125.9517 L1147,125.9517 C1162,125.9517 1162,170.4955 1177,170.4955 L1187,170.4955 " fill="none" style="stroke: #A80036; stroke-width: 1.0;"/><path d="M955,129.2236 L965,129.2236 C980,129.2236 980,125.9517 995,125.9517 L1005,125.9517 " fill="none" style="stroke: #A80036; stroke-width: 1.0;"/><rect fill="#FEFECE" filter="url(#f1i78107srlbq5)" height="40.2719" rx="12.5" ry="12.5" style="stroke: #A80036; stroke-width: 1.5;" width="118" x="1005" y="194.9034"/><text fill="#000000" font-family="sans-serif" font-size="14" lengthAdjust="spacingAndGlyphs" textLength="98" x="1015" y="221.1433">修改文件的权限</text><text fill="#000000" font-family="sans-serif" font-size="14" lengthAdjust="spacingAndGlyphs" textLength="46" x="1176" y="198.8714">chmod</text><path d="M1123,215.0393 L1133,215.0393 C1148,215.0393 1148,192.7674 1163,192.7674 L1173,192.7674 " fill="none" style="stroke: #A80036; stroke-width: 1.0;"/><text fill="#000000" font-family="sans-serif" font-size="14" lengthAdjust="spacingAndGlyphs" textLength="38" x="1176" y="221.1433">chgrp</text><path d="M1123,215.0393 L1133,215.0393 C1148,215.0393 1148,215.0393 1163,215.0393 L1173,215.0393 " fill="none" style="stroke: #A80036; stroke-width: 1.0;"/><text fill="#000000" font-family="sans-serif" font-size="14" lengthAdjust="spacingAndGlyphs" textLength="44" x="1176" y="243.4152">chown</text><path d="M1123,215.0393 L1133,215.0393 C1148,215.0393 1148,237.3112 1163,237.3112 L1173,237.3112 " fill="none" style="stroke: #A80036; stroke-width: 1.0;"/><path d="M955,129.2236 L965,129.2236 C980,129.2236 980,215.0393 995,215.0393 L1005,215.0393 " fill="none" style="stroke: #A80036; stroke-width: 1.0;"/><path d="M782,526.8747 L792,526.8747 C807,526.8747 807,129.2236 822,129.2236 L832,129.2236 " fill="none" style="stroke: #A80036; stroke-width: 1.0;"/><rect fill="#FEFECE" filter="url(#f1i78107srlbq5)" height="40.2719" rx="12.5" ry="12.5" style="stroke: #A80036; stroke-width: 1.5;" width="104" x="832" y="272.8551"/><text fill="#000000" font-family="sans-serif" font-size="14" lengthAdjust="spacingAndGlyphs" textLength="84" x="842" y="299.095">命令行快捷键</text><text fill="#000000" font-family="sans-serif" font-size="14" lengthAdjust="spacingAndGlyphs" textLength="56" x="989" y="265.6871">移动光标</text><path d="M936,292.991 L946,292.991 C961,292.991 961,259.5832 976,259.5832 L986,259.5832 " fill="none" style="stroke: #A80036; stroke-width: 1.0;"/><text fill="#000000" font-family="sans-serif" font-size="14" lengthAdjust="spacingAndGlyphs" textLength="28" x="989" y="287.959">删除</text><path d="M936,292.991 L946,292.991 C961,292.991 961,281.8551 976,281.8551 L986,281.8551 " fill="none" style="stroke: #A80036; stroke-width: 1.0;"/><text fill="#000000" font-family="sans-serif" font-size="14" lengthAdjust="spacingAndGlyphs" textLength="112" x="989" y="310.231">上一条下一条命令</text><path d="M936,292.991 L946,292.991 C961,292.991 961,304.127 976,304.127 L986,304.127 " fill="none" style="stroke: #A80036; stroke-width: 1.0;"/><text fill="#000000" font-family="sans-serif" font-size="14" lengthAdjust="spacingAndGlyphs" textLength="84" x="989" y="332.5029">搜索历史命令</text><path d="M936,292.991 L946,292.991 C961,292.991 961,326.3989 976,326.3989 L986,326.3989 " fill="none" style="stroke: #A80036; stroke-width: 1.0;"/><path d="M782,526.8747 L792,526.8747 C807,526.8747 807,292.991 822,292.991 L832,292.991 " fill="none" style="stroke: #A80036; stroke-width: 1.0;"/><rect fill="#FEFECE" filter="url(#f1i78107srlbq5)" height="40.2719" rx="12.5" ry="12.5" style="stroke: #A80036; stroke-width: 1.5;" width="48" x="832" y="422.8747"/><text fill="#000000" font-family="sans-serif" font-size="14" lengthAdjust="spacingAndGlyphs" textLength="28" x="842" y="449.1147">笔记</text><rect fill="#FEFECE" filter="url(#f1i78107srlbq5)" height="40.2719" rx="12.5" ry="12.5" style="stroke: #A80036; stroke-width: 1.5;" width="146" x="930" y="377.6708"/><text fill="#000000" font-family="sans-serif" font-size="14" lengthAdjust="spacingAndGlyphs" textLength="126" x="940" y="403.9107">找一个好的笔记软件</text><rect fill="#FEFECE" filter="url(#f1i78107srlbq5)" height="40.2719" rx="12.5" ry="12.5" style="stroke: #A80036; stroke-width: 1.5;" width="62" x="1126" y="347.5349"/><text fill="#000000" font-family="sans-serif" font-size="14" lengthAdjust="spacingAndGlyphs" textLength="42" x="1136" y="373.7748">有道云</text><path d="M1076,397.8068 L1086,397.8068 C1101,397.8068 1101,367.6708 1116,367.6708 L1126,367.6708 " fill="none" style="stroke: #A80036; stroke-width: 1.0;"/><rect fill="#FEFECE" filter="url(#f1i78107srlbq5)" height="40.2719" rx="12.5" ry="12.5" style="stroke: #A80036; stroke-width: 1.5;" width="106" x="1126" y="407.8068"/><text fill="#000000" font-family="sans-serif" font-size="14" lengthAdjust="spacingAndGlyphs" textLength="86" x="1136" y="434.0467">直接用github</text><path d="M1076,397.8068 L1086,397.8068 C1101,397.8068 1101,427.9427 1116,427.9427 L1126,427.9427 " fill="none" style="stroke: #A80036; stroke-width: 1.0;"/><path d="M880,443.0107 L890,443.0107 C905,443.0107 905,397.8068 920,397.8068 L930,397.8068 " fill="none" style="stroke: #A80036; stroke-width: 1.0;"/><rect fill="#FEFECE" filter="url(#f1i78107srlbq5)" height="40.2719" rx="12.5" ry="12.5" style="stroke: #A80036; stroke-width: 1.5;" width="119" x="930" y="437.9427"/><text fill="#000000" font-family="sans-serif" font-size="14" lengthAdjust="spacingAndGlyphs" textLength="99" x="940" y="464.1826">markdown语法</text><path d="M880,443.0107 L890,443.0107 C905,443.0107 905,458.0787 920,458.0787 L930,458.0787 " fill="none" style="stroke: #A80036; stroke-width: 1.0;"/><rect fill="#FEFECE" filter="url(#f1i78107srlbq5)" height="40.2719" rx="12.5" ry="12.5" style="stroke: #A80036; stroke-width: 1.5;" width="133" x="930" y="498.2146"/><text fill="#000000" font-family="sans-serif" font-size="14" lengthAdjust="spacingAndGlyphs" textLength="113" x="940" y="524.4546">markdown编辑器</text><text fill="#000000" font-family="sans-serif" font-size="14" lengthAdjust="spacingAndGlyphs" textLength="45" x="1116" y="524.4546">Typora</text><path d="M1063,518.3506 L1073,518.3506 C1088,518.3506 1088,518.3506 1103,518.3506 L1113,518.3506 " fill="none" style="stroke: #A80036; stroke-width: 1.0;"/><path d="M880,443.0107 L890,443.0107 C905,443.0107 905,518.3506 920,518.3506 L930,518.3506 " fill="none" style="stroke: #A80036; stroke-width: 1.0;"/><path d="M782,526.8747 L792,526.8747 C807,526.8747 807,443.0107 822,443.0107 L832,443.0107 " fill="none" style="stroke: #A80036; stroke-width: 1.0;"/><rect fill="#FEFECE" filter="url(#f1i78107srlbq5)" height="40.2719" rx="12.5" ry="12.5" style="stroke: #A80036; stroke-width: 1.5;" width="76" x="832" y="595.1663"/><text fill="#000000" font-family="sans-serif" font-size="14" lengthAdjust="spacingAndGlyphs" textLength="56" x="842" y="621.4063">软件管理</text><rect fill="#FEFECE" filter="url(#f1i78107srlbq5)" height="40.2719" rx="12.5" ry="12.5" style="stroke: #A80036; stroke-width: 1.5;" width="53" x="958" y="595.1663"/><text fill="#000000" font-family="sans-serif" font-size="14" lengthAdjust="spacingAndGlyphs" textLength="33" x="968" y="621.4063">brew</text><text fill="#000000" font-family="sans-serif" font-size="14" lengthAdjust="spacingAndGlyphs" textLength="20" x="1064" y="565.7265">list</text><path d="M1011,615.3023 L1021,615.3023 C1036,615.3023 1036,559.6225 1051,559.6225 L1061,559.6225 " fill="none" style="stroke: #A80036; stroke-width: 1.0;"/><text fill="#000000" font-family="sans-serif" font-size="14" lengthAdjust="spacingAndGlyphs" textLength="41" x="1064" y="587.9984">install</text><path d="M1011,615.3023 L1021,615.3023 C1036,615.3023 1036,581.8944 1051,581.8944 L1061,581.8944 " fill="none" style="stroke: #A80036; stroke-width: 1.0;"/><text fill="#000000" font-family="sans-serif" font-size="14" lengthAdjust="spacingAndGlyphs" textLength="59" x="1064" y="610.2703">uninstall</text><path d="M1011,615.3023 L1021,615.3023 C1036,615.3023 1036,604.1663 1051,604.1663 L1061,604.1663 " fill="none" style="stroke: #A80036; stroke-width: 1.0;"/><text fill="#000000" font-family="sans-serif" font-size="14" lengthAdjust="spacingAndGlyphs" textLength="44" x="1064" y="632.5422">search</text><path d="M1011,615.3023 L1021,615.3023 C1036,615.3023 1036,626.4382 1051,626.4382 L1061,626.4382 " fill="none" style="stroke: #A80036; stroke-width: 1.0;"/><text fill="#000000" font-family="sans-serif" font-size="14" lengthAdjust="spacingAndGlyphs" textLength="56" x="1064" y="654.8141">upgrade</text><path d="M1011,615.3023 L1021,615.3023 C1036,615.3023 1036,648.7101 1051,648.7101 L1061,648.7101 " fill="none" style="stroke: #A80036; stroke-width: 1.0;"/><text fill="#000000" font-family="sans-serif" font-size="14" lengthAdjust="spacingAndGlyphs" textLength="48" x="1064" y="677.086">update</text><path d="M1011,615.3023 L1021,615.3023 C1036,615.3023 1036,670.9821 1051,670.9821 L1061,670.9821 " fill="none" style="stroke: #A80036; stroke-width: 1.0;"/><path d="M908,615.3023 L918,615.3023 C933,615.3023 933,615.3023 948,615.3023 L958,615.3023 " fill="none" style="stroke: #A80036; stroke-width: 1.0;"/><path d="M782,526.8747 L792,526.8747 C807,526.8747 807,615.3023 822,615.3023 L832,615.3023 " fill="none" style="stroke: #A80036; stroke-width: 1.0;"/><rect fill="#FEFECE" filter="url(#f1i78107srlbq5)" height="40.2719" rx="12.5" ry="12.5" style="stroke: #A80036; stroke-width: 1.5;" width="37" x="832" y="842.7978"/><text fill="#000000" font-family="sans-serif" font-size="14" lengthAdjust="spacingAndGlyphs" textLength="17" x="842" y="869.0377">git</text><rect fill="#FEFECE" filter="url(#f1i78107srlbq5)" height="40.2719" rx="12.5" ry="12.5" style="stroke: #A80036; stroke-width: 1.5;" width="120" x="919" y="692.118"/><text fill="#000000" font-family="sans-serif" font-size="14" lengthAdjust="spacingAndGlyphs" textLength="100" x="929" y="718.3579">github创建项目</text><path d="M869,862.9337 L879,862.9337 C894,862.9337 894,712.254 909,712.254 L919,712.254 " fill="none" style="stroke: #A80036; stroke-width: 1.0;"/><rect fill="#FEFECE" filter="url(#f1i78107srlbq5)" height="40.2719" rx="12.5" ry="12.5" style="stroke: #A80036; stroke-width: 1.5;" width="71" x="919" y="752.3899"/><text fill="#000000" font-family="sans-serif" font-size="14" lengthAdjust="spacingAndGlyphs" textLength="51" x="929" y="778.6299">ssh-key</text><path d="M869,862.9337 L879,862.9337 C894,862.9337 894,772.5259 909,772.5259 L919,772.5259 " fill="none" style="stroke: #A80036; stroke-width: 1.0;"/><rect fill="#FEFECE" filter="url(#f1i78107srlbq5)" height="40.2719" rx="12.5" ry="12.5" style="stroke: #A80036; stroke-width: 1.5;" width="93" x="919" y="872.9337"/><text fill="#000000" font-family="sans-serif" font-size="14" lengthAdjust="spacingAndGlyphs" textLength="73" x="929" y="899.1737">git项目管理</text><rect fill="#FEFECE" filter="url(#f1i78107srlbq5)" height="40.2719" rx="12.5" ry="12.5" style="stroke: #A80036; stroke-width: 1.5;" width="42" x="1062" y="752.3899"/><text fill="#000000" font-family="sans-serif" font-size="14" lengthAdjust="spacingAndGlyphs" textLength="22" x="1072" y="778.6299">init</text><path d="M1012,893.0697 L1022,893.0697 C1037,893.0697 1037,772.5259 1052,772.5259 L1062,772.5259 " fill="none" style="stroke: #A80036; stroke-width: 1.0;"/><rect fill="#FEFECE" filter="url(#f1i78107srlbq5)" height="40.2719" rx="12.5" ry="12.5" style="stroke: #A80036; stroke-width: 1.5;" width="56" x="1062" y="812.6618"/><text fill="#000000" font-family="sans-serif" font-size="14" lengthAdjust="spacingAndGlyphs" textLength="36" x="1072" y="838.9018">clone</text><path d="M1012,893.0697 L1022,893.0697 C1037,893.0697 1037,832.7978 1052,832.7978 L1062,832.7978 " fill="none" style="stroke: #A80036; stroke-width: 1.0;"/><rect fill="#FEFECE" filter="url(#f1i78107srlbq5)" height="40.2719" rx="12.5" ry="12.5" style="stroke: #A80036; stroke-width: 1.5;" width="46" x="1062" y="872.9337"/><text fill="#000000" font-family="sans-serif" font-size="14" lengthAdjust="spacingAndGlyphs" textLength="26" x="1072" y="899.1737">add</text><path d="M1012,893.0697 L1022,893.0697 C1037,893.0697 1037,893.0697 1052,893.0697 L1062,893.0697 " fill="none" style="stroke: #A80036; stroke-width: 1.0;"/><rect fill="#FEFECE" filter="url(#f1i78107srlbq5)" height="40.2719" rx="12.5" ry="12.5" style="stroke: #A80036; stroke-width: 1.5;" width="70" x="1062" y="933.2057"/><text fill="#000000" font-family="sans-serif" font-size="14" lengthAdjust="spacingAndGlyphs" textLength="50" x="1072" y="959.4456">commit</text><path d="M1012,893.0697 L1022,893.0697 C1037,893.0697 1037,953.3416 1052,953.3416 L1062,953.3416 " fill="none" style="stroke: #A80036; stroke-width: 1.0;"/><rect fill="#FEFECE" filter="url(#f1i78107srlbq5)" height="40.2719" rx="12.5" ry="12.5" style="stroke: #A80036; stroke-width: 1.5;" width="54" x="1062" y="993.4776"/><text fill="#000000" font-family="sans-serif" font-size="14" lengthAdjust="spacingAndGlyphs" textLength="34" x="1072" y="1019.7175">push</text><path d="M1012,893.0697 L1022,893.0697 C1037,893.0697 1037,1013.6135 1052,1013.6135 L1062,1013.6135 " fill="none" style="stroke: #A80036; stroke-width: 1.0;"/><path d="M869,862.9337 L879,862.9337 C894,862.9337 894,893.0697 909,893.0697 L919,893.0697 " fill="none" style="stroke: #A80036; stroke-width: 1.0;"/><path d="M782,526.8747 L792,526.8747 C807,526.8747 807,862.9337 822,862.9337 L832,862.9337 " fill="none" style="stroke: #A80036; stroke-width: 1.0;"/><rect fill="#FEFECE" filter="url(#f1i78107srlbq5)" height="40.2719" rx="12.5" ry="12.5" style="stroke: #A80036; stroke-width: 1.5;" width="76" x="538" y="476.6028"/><text fill="#000000" font-family="sans-serif" font-size="14" lengthAdjust="spacingAndGlyphs" textLength="56" x="548" y="502.8428">核心工具</text><rect fill="#FEFECE" filter="url(#f1i78107srlbq5)" height="40.2719" rx="12.5" ry="12.5" style="stroke: #A80036; stroke-width: 1.5;" width="48" x="440" y="392.423"/><text fill="#000000" font-family="sans-serif" font-size="14" lengthAdjust="spacingAndGlyphs" textLength="28" x="450" y="418.663">终端</text><rect fill="#FEFECE" filter="url(#f1i78107srlbq5)" height="40.2719" rx="12.5" ry="12.5" style="stroke: #A80036; stroke-width: 1.5;" width="76" x="314" y="362.2871"/><text fill="#000000" font-family="sans-serif" font-size="14" lengthAdjust="spacingAndGlyphs" textLength="56" x="324" y="388.527">terminal</text><path d="M440,412.559 L430,412.559 C415,412.559 415,382.423 400,382.423 L390,382.423 " fill="none" style="stroke: #A80036; stroke-width: 1.0;"/><rect fill="#FEFECE" filter="url(#f1i78107srlbq5)" height="40.2719" rx="12.5" ry="12.5" style="stroke: #A80036; stroke-width: 1.5;" width="58" x="332" y="422.559"/><text fill="#000000" font-family="sans-serif" font-size="14" lengthAdjust="spacingAndGlyphs" textLength="38" x="342" y="448.7989">iTerm</text><path d="M440,412.559 L430,412.559 C415,412.559 415,442.695 400,442.695 L390,442.695 " fill="none" style="stroke: #A80036; stroke-width: 1.0;"/><path d="M538,496.7388 L528,496.7388 C513,496.7388 513,412.559 498,412.559 L488,412.559 " fill="none" style="stroke: #A80036; stroke-width: 1.0;"/><rect fill="#FEFECE" filter="url(#f1i78107srlbq5)" height="40.2719" rx="12.5" ry="12.5" style="stroke: #A80036; stroke-width: 1.5;" width="62" x="426" y="482.8309"/><text fill="#000000" font-family="sans-serif" font-size="14" lengthAdjust="spacingAndGlyphs" textLength="42" x="436" y="509.0708">浏览器</text><rect fill="#FEFECE" filter="url(#f1i78107srlbq5)" height="40.2719" rx="12.5" ry="12.5" style="stroke: #A80036; stroke-width: 1.5;" width="70" x="306" y="482.8309"/><text fill="#000000" font-family="sans-serif" font-size="14" lengthAdjust="spacingAndGlyphs" textLength="50" x="316" y="509.0708">chrome</text><path d="M426,502.9669 L416,502.9669 C401,502.9669 401,502.9669 386,502.9669 L376,502.9669 " fill="none" style="stroke: #A80036; stroke-width: 1.0;"/><path d="M538,496.7388 L528,496.7388 C513,496.7388 513,502.9669 498,502.9669 L488,502.9669 " fill="none" style="stroke: #A80036; stroke-width: 1.0;"/><rect fill="#FEFECE" filter="url(#f1i78107srlbq5)" height="40.2719" rx="12.5" ry="12.5" style="stroke: #A80036; stroke-width: 1.5;" width="62" x="426" y="567.0107"/><text fill="#000000" font-family="sans-serif" font-size="14" lengthAdjust="spacingAndGlyphs" textLength="42" x="436" y="593.2506">编辑器</text><rect fill="#FEFECE" filter="url(#f1i78107srlbq5)" height="60.5438" rx="12.5" ry="12.5" style="stroke: #A80036; stroke-width: 1.5;" width="160" x="216" y="556.8747"/><text fill="#000000" font-family="sans-serif" font-size="14" lengthAdjust="spacingAndGlyphs" textLength="126" x="226" y="583.1147">用键盘完成所有操作</text><text fill="#000000" font-family="sans-serif" font-size="14" lengthAdjust="spacingAndGlyphs" textLength="140" x="226" y="603.3866">（少用鼠标和触摸板）</text><text fill="#000000" font-family="sans-serif" font-size="14" lengthAdjust="spacingAndGlyphs" textLength="43" x="120" y="550.3428">emacs</text><path d="M216,587.1467 L206,587.1467 C191,587.1467 191,544.2388 176,544.2388 L166,544.2388 " fill="none" style="stroke: #A80036; stroke-width: 1.0;"/><text fill="#000000" font-family="sans-serif" font-size="14" lengthAdjust="spacingAndGlyphs" textLength="24" x="139" y="572.6147">vim</text><path d="M216,587.1467 L206,587.1467 C191,587.1467 191,566.5107 176,566.5107 L166,566.5107 " fill="none" style="stroke: #A80036; stroke-width: 1.0;"/><rect fill="#FEFECE" filter="url(#f1i78107srlbq5)" height="40.2719" rx="12.5" ry="12.5" style="stroke: #A80036; stroke-width: 1.5;" width="48" x="118" y="587.6467"/><text fill="#000000" font-family="sans-serif" font-size="14" lengthAdjust="spacingAndGlyphs" textLength="28" x="128" y="613.8866">其他</text><text fill="#000000" font-family="sans-serif" font-size="14" lengthAdjust="spacingAndGlyphs" textLength="55" x="10" y="591.6147">Sublime</text><path d="M118,607.7826 L108,607.7826 C93,607.7826 93,585.5107 78,585.5107 L68,585.5107 " fill="none" style="stroke: #A80036; stroke-width: 1.0;"/><text fill="#000000" font-family="sans-serif" font-size="14" lengthAdjust="spacingAndGlyphs" textLength="55" x="10" y="613.8866">VS-Code</text><path d="M118,607.7826 L108,607.7826 C93,607.7826 93,607.7826 78,607.7826 L68,607.7826 " fill="none" style="stroke: #A80036; stroke-width: 1.0;"/><text fill="#000000" font-family="sans-serif" font-size="14" lengthAdjust="spacingAndGlyphs" textLength="35" x="30" y="636.1585">Atom</text><path d="M118,607.7826 L108,607.7826 C93,607.7826 93,630.0545 78,630.0545 L68,630.0545 " fill="none" style="stroke: #A80036; stroke-width: 1.0;"/><path d="M216,587.1467 L206,587.1467 C191,587.1467 191,607.7826 176,607.7826 L166,607.7826 " fill="none" style="stroke: #A80036; stroke-width: 1.0;"/><path d="M426,587.1467 L416,587.1467 C401,587.1467 401,587.1467 386,587.1467 L376,587.1467 " fill="none" style="stroke: #A80036; stroke-width: 1.0;"/><path d="M538,496.7388 L528,496.7388 C513,496.7388 513,587.1467 498,587.1467 L488,587.1467 " fill="none" style="stroke: #A80036; stroke-width: 1.0;"/><path d="M664,526.8747 L654,526.8747 C639,526.8747 639,496.7388 624,496.7388 L614,496.7388 " fill="none" style="stroke: #A80036; stroke-width: 1.0;"/><rect fill="#FEFECE" filter="url(#f1i78107srlbq5)" height="40.2719" rx="12.5" ry="12.5" style="stroke: #A80036; stroke-width: 1.5;" width="104" x="510" y="651.1905"/><text fill="#000000" font-family="sans-serif" font-size="14" lengthAdjust="spacingAndGlyphs" textLength="84" x="520" y="677.4304">问问题的技巧</text><text fill="#000000" font-family="sans-serif" font-size="14" lengthAdjust="spacingAndGlyphs" textLength="142" x="315" y="666.2944">多用google，少用百度</text><path d="M510,671.3264 L500,671.3264 C485,671.3264 485,660.1905 470,660.1905 L460,660.1905 " fill="none" style="stroke: #A80036; stroke-width: 1.0;"/><text fill="#000000" font-family="sans-serif" font-size="14" lengthAdjust="spacingAndGlyphs" textLength="98" x="359" y="688.5664">搜索什么关键词</text><path d="M510,671.3264 L500,671.3264 C485,671.3264 485,682.4624 470,682.4624 L460,682.4624 " fill="none" style="stroke: #A80036; stroke-width: 1.0;"/><path d="M664,526.8747 L654,526.8747 C639,526.8747 639,671.3264 624,671.3264 L614,671.3264 " fill="none" style="stroke: #A80036; stroke-width: 1.0;"/><!--MD5=[240c7fc7fb9641457e8389f7ccfe72a3]
@startmindmap
* 预备课必备知识
** linux文件和目录
*** 变更和查看工作目录
****_ cd(change directory)
****_ ls(list)
*** 文件和文件夹操作
****_ touch
****_ mkdir
****_ cp
****_ mv
****_ rm
*** 修改文件的权限
****_ chmod
****_ chgrp
****_ chown
** 命令行快捷键
***_ 移动光标
***_ 删除
***_ 上一条下一条命令
***_ 搜索历史命令
** 笔记
*** 找一个好的笔记软件
**** 有道云
**** 直接用github
*** markdown语法
*** markdown编辑器
****_ Typora
** 软件管理
*** brew
****_ list
****_ install
****_ uninstall
****_ search
****_ upgrade
****_ update
** git
*** github创建项目
*** ssh-key
*** git项目管理
**** init
**** clone
**** add
**** commit
**** push
left side
** 核心工具
*** 终端
**** terminal
**** iTerm
*** 浏览器
**** chrome
*** 编辑器
**** 用键盘完成所有操作\n（少用鼠标和触摸板）
*****_ emacs
*****_ vim
***** 其他
******_ Sublime
******_ VS-Code
******_ Atom
** 问问题的技巧
***_ 多用google，少用百度
***_ 搜索什么关键词
@endmindmap

PlantUML version 1.2020.06(Sun Apr 05 20:38:32 CST 2020)
(GPL source distribution)
Java Runtime: OpenJDK Runtime Environment
JVM: OpenJDK 64-Bit Server VM
Java Version: 11.0.6+10-post-Ubuntu-1ubuntu119.10.1
Operating System: Linux
Default Encoding: UTF-8
Language: en
Country: US
--></g></svg>