<?xml version="1.0" encoding="UTF-8" standalone="no"?><svg xmlns="http://www.w3.org/2000/svg" xmlns:xlink="http://www.w3.org/1999/xlink" contentScriptType="application/ecmascript" contentStyleType="text/css" height="1291px" preserveAspectRatio="none" style="width:1435px;height:1291px;" version="1.1" viewBox="0 0 1435 1291" width="1435px" zoomAndPan="magnify"><defs><filter height="300%" id="f1v4rnkxc1lsxm" width="300%" x="-1" y="-1"><feGaussianBlur result="blurOut" stdDeviation="2.0"/><feColorMatrix in="blurOut" result="blurOut2" type="matrix" values="0 0 0 0 0 0 0 0 0 0 0 0 0 0 0 0 0 0 .4 0"/><feOffset dx="4.0" dy="4.0" in="blurOut2" result="blurOut3"/><feBlend in="SourceGraphic" in2="blurOut3" mode="normal"/></filter></defs><g><rect fill="#FEFECE" filter="url(#f1v4rnkxc1lsxm)" height="40.2719" rx="12.5" ry="12.5" style="stroke: #A80036; stroke-width: 1.5;" width="118" x="664" y="629.8944"/><text fill="#000000" font-family="sans-serif" font-size="14" lengthAdjust="spacingAndGlyphs" textLength="98" x="674" y="656.1343">预备课必备知识</text><rect fill="#FEFECE" filter="url(#f1v4rnkxc1lsxm)" height="40.2719" rx="12.5" ry="12.5" style="stroke: #A80036; stroke-width: 1.5;" width="123" x="832" y="202.1073"/><text fill="#000000" font-family="sans-serif" font-size="14" lengthAdjust="spacingAndGlyphs" textLength="103" x="842" y="228.3472">linux文件和目录</text><rect fill="#FEFECE" filter="url(#f1v4rnkxc1lsxm)" height="40.2719" rx="12.5" ry="12.5" style="stroke: #A80036; stroke-width: 1.5;" width="146" x="1005" y="68.4758"/><text fill="#000000" font-family="sans-serif" font-size="14" lengthAdjust="spacingAndGlyphs" textLength="126" x="1015" y="94.7158">变更和查看工作目录</text><rect fill="#FEFECE" filter="url(#f1v4rnkxc1lsxm)" height="40.2719" rx="12.5" ry="12.5" style="stroke: #A80036; stroke-width: 1.5;" width="208" x="1201" y="20"/><text fill="#000000" font-family="sans-serif" font-size="14" lengthAdjust="spacingAndGlyphs" textLength="188" x="1211" y="46.2399">pwd(print working directory)</text><path d="M1151,88.6118 L1161,88.6118 C1176,88.6118 1176,40.136 1191,40.136 L1201,40.136 " fill="none" style="stroke: #A80036; stroke-width: 1.0;"/><rect fill="#FEFECE" filter="url(#f1v4rnkxc1lsxm)" height="40.2719" rx="12.5" ry="12.5" style="stroke: #A80036; stroke-width: 1.5;" width="156" x="1201" y="94.6798"/><text fill="#000000" font-family="sans-serif" font-size="14" lengthAdjust="spacingAndGlyphs" textLength="136" x="1211" y="120.9197">cd(change directory)</text><text fill="#000000" font-family="sans-serif" font-size="14" lengthAdjust="spacingAndGlyphs" textLength="9" x="1410" y="87.5118">./</text><path d="M1357,114.8157 L1367,114.8157 C1382,114.8157 1382,81.4079 1397,81.4079 L1407,81.4079 " fill="none" style="stroke: #A80036; stroke-width: 1.0;"/><text fill="#000000" font-family="sans-serif" font-size="14" lengthAdjust="spacingAndGlyphs" textLength="13" x="1410" y="109.7838">../</text><path d="M1357,114.8157 L1367,114.8157 C1382,114.8157 1382,103.6798 1397,103.6798 L1407,103.6798 " fill="none" style="stroke: #A80036; stroke-width: 1.0;"/><text fill="#000000" font-family="sans-serif" font-size="14" lengthAdjust="spacingAndGlyphs" textLength="5" x="1410" y="132.0557">-</text><path d="M1357,114.8157 L1367,114.8157 C1382,114.8157 1382,125.9517 1397,125.9517 L1407,125.9517 " fill="none" style="stroke: #A80036; stroke-width: 1.0;"/><text fill="#000000" font-family="sans-serif" font-size="14" lengthAdjust="spacingAndGlyphs" textLength="8" x="1410" y="154.3276">~</text><path d="M1357,114.8157 L1367,114.8157 C1382,114.8157 1382,148.2236 1397,148.2236 L1407,148.2236 " fill="none" style="stroke: #A80036; stroke-width: 1.0;"/><path d="M1151,88.6118 L1161,88.6118 C1176,88.6118 1176,114.8157 1191,114.8157 L1201,114.8157 " fill="none" style="stroke: #A80036; stroke-width: 1.0;"/><text fill="#000000" font-family="sans-serif" font-size="14" lengthAdjust="spacingAndGlyphs" textLength="41" x="1204" y="162.1916">ls(list)</text><path d="M1151,88.6118 L1161,88.6118 C1176,88.6118 1176,156.0876 1191,156.0876 L1201,156.0876 " fill="none" style="stroke: #A80036; stroke-width: 1.0;"/><path d="M955,222.2433 L965,222.2433 C980,222.2433 980,88.6118 995,88.6118 L1005,88.6118 " fill="none" style="stroke: #A80036; stroke-width: 1.0;"/><rect fill="#FEFECE" filter="url(#f1v4rnkxc1lsxm)" height="40.2719" rx="12.5" ry="12.5" style="stroke: #A80036; stroke-width: 1.5;" width="132" x="1005" y="247.3112"/><text fill="#000000" font-family="sans-serif" font-size="14" lengthAdjust="spacingAndGlyphs" textLength="112" x="1015" y="273.5512">文件和文件夹操作</text><text fill="#000000" font-family="sans-serif" font-size="14" lengthAdjust="spacingAndGlyphs" textLength="38" x="1190" y="184.4635">touch</text><path d="M1137,267.4472 L1147,267.4472 C1162,267.4472 1162,178.3596 1177,178.3596 L1187,178.3596 " fill="none" style="stroke: #A80036; stroke-width: 1.0;"/><text fill="#000000" font-family="sans-serif" font-size="14" lengthAdjust="spacingAndGlyphs" textLength="39" x="1190" y="206.7354">mkdir</text><path d="M1137,267.4472 L1147,267.4472 C1162,267.4472 1162,200.6315 1177,200.6315 L1187,200.6315 " fill="none" style="stroke: #A80036; stroke-width: 1.0;"/><text fill="#000000" font-family="sans-serif" font-size="14" lengthAdjust="spacingAndGlyphs" textLength="16" x="1190" y="229.0074">cp</text><path d="M1137,267.4472 L1147,267.4472 C1162,267.4472 1162,222.9034 1177,222.9034 L1187,222.9034 " fill="none" style="stroke: #A80036; stroke-width: 1.0;"/><text fill="#000000" font-family="sans-serif" font-size="14" lengthAdjust="spacingAndGlyphs" textLength="20" x="1190" y="251.2793">mv</text><path d="M1137,267.4472 L1147,267.4472 C1162,267.4472 1162,245.1753 1177,245.1753 L1187,245.1753 " fill="none" style="stroke: #A80036; stroke-width: 1.0;"/><text fill="#000000" font-family="sans-serif" font-size="14" lengthAdjust="spacingAndGlyphs" textLength="18" x="1190" y="273.5512">rm</text><path d="M1137,267.4472 L1147,267.4472 C1162,267.4472 1162,267.4472 1177,267.4472 L1187,267.4472 " fill="none" style="stroke: #A80036; stroke-width: 1.0;"/><text fill="#000000" font-family="sans-serif" font-size="14" lengthAdjust="spacingAndGlyphs" textLength="20" x="1190" y="295.8231">cat</text><path d="M1137,267.4472 L1147,267.4472 C1162,267.4472 1162,289.7191 1177,289.7191 L1187,289.7191 " fill="none" style="stroke: #A80036; stroke-width: 1.0;"/><text fill="#000000" font-family="sans-serif" font-size="14" lengthAdjust="spacingAndGlyphs" textLength="34" x="1190" y="318.095">more</text><path d="M1137,267.4472 L1147,267.4472 C1162,267.4472 1162,311.991 1177,311.991 L1187,311.991 " fill="none" style="stroke: #A80036; stroke-width: 1.0;"/><text fill="#000000" font-family="sans-serif" font-size="14" lengthAdjust="spacingAndGlyphs" textLength="27" x="1190" y="340.3669">find</text><path d="M1137,267.4472 L1147,267.4472 C1162,267.4472 1162,334.2629 1177,334.2629 L1187,334.2629 " fill="none" style="stroke: #A80036; stroke-width: 1.0;"/><text fill="#000000" font-family="sans-serif" font-size="14" lengthAdjust="spacingAndGlyphs" textLength="30" x="1190" y="362.6388">grep</text><path d="M1137,267.4472 L1147,267.4472 C1162,267.4472 1162,356.5349 1177,356.5349 L1187,356.5349 " fill="none" style="stroke: #A80036; stroke-width: 1.0;"/><path d="M955,222.2433 L965,222.2433 C980,222.2433 980,267.4472 995,267.4472 L1005,267.4472 " fill="none" style="stroke: #A80036; stroke-width: 1.0;"/><rect fill="#FEFECE" filter="url(#f1v4rnkxc1lsxm)" height="40.2719" rx="12.5" ry="12.5" style="stroke: #A80036; stroke-width: 1.5;" width="118" x="1005" y="380.9427"/><text fill="#000000" font-family="sans-serif" font-size="14" lengthAdjust="spacingAndGlyphs" textLength="98" x="1015" y="407.1826">修改文件的权限</text><text fill="#000000" font-family="sans-serif" font-size="14" lengthAdjust="spacingAndGlyphs" textLength="46" x="1176" y="384.9107">chmod</text><path d="M1123,401.0787 L1133,401.0787 C1148,401.0787 1148,378.8068 1163,378.8068 L1173,378.8068 " fill="none" style="stroke: #A80036; stroke-width: 1.0;"/><text fill="#000000" font-family="sans-serif" font-size="14" lengthAdjust="spacingAndGlyphs" textLength="38" x="1176" y="407.1826">chgrp</text><path d="M1123,401.0787 L1133,401.0787 C1148,401.0787 1148,401.0787 1163,401.0787 L1173,401.0787 " fill="none" style="stroke: #A80036; stroke-width: 1.0;"/><text fill="#000000" font-family="sans-serif" font-size="14" lengthAdjust="spacingAndGlyphs" textLength="44" x="1176" y="429.4546">chown</text><path d="M1123,401.0787 L1133,401.0787 C1148,401.0787 1148,423.3506 1163,423.3506 L1173,423.3506 " fill="none" style="stroke: #A80036; stroke-width: 1.0;"/><path d="M955,222.2433 L965,222.2433 C980,222.2433 980,401.0787 995,401.0787 L1005,401.0787 " fill="none" style="stroke: #A80036; stroke-width: 1.0;"/><path d="M782,650.0304 L792,650.0304 C807,650.0304 807,222.2433 822,222.2433 L832,222.2433 " fill="none" style="stroke: #A80036; stroke-width: 1.0;"/><rect fill="#FEFECE" filter="url(#f1v4rnkxc1lsxm)" height="40.2719" rx="12.5" ry="12.5" style="stroke: #A80036; stroke-width: 1.5;" width="104" x="832" y="458.8944"/><text fill="#000000" font-family="sans-serif" font-size="14" lengthAdjust="spacingAndGlyphs" textLength="84" x="842" y="485.1343">命令行快捷键</text><text fill="#000000" font-family="sans-serif" font-size="14" lengthAdjust="spacingAndGlyphs" textLength="56" x="989" y="451.7265">移动光标</text><path d="M936,479.0304 L946,479.0304 C961,479.0304 961,445.6225 976,445.6225 L986,445.6225 " fill="none" style="stroke: #A80036; stroke-width: 1.0;"/><text fill="#000000" font-family="sans-serif" font-size="14" lengthAdjust="spacingAndGlyphs" textLength="28" x="989" y="473.9984">删除</text><path d="M936,479.0304 L946,479.0304 C961,479.0304 961,467.8944 976,467.8944 L986,467.8944 " fill="none" style="stroke: #A80036; stroke-width: 1.0;"/><text fill="#000000" font-family="sans-serif" font-size="14" lengthAdjust="spacingAndGlyphs" textLength="112" x="989" y="496.2703">上一条下一条命令</text><path d="M936,479.0304 L946,479.0304 C961,479.0304 961,490.1663 976,490.1663 L986,490.1663 " fill="none" style="stroke: #A80036; stroke-width: 1.0;"/><text fill="#000000" font-family="sans-serif" font-size="14" lengthAdjust="spacingAndGlyphs" textLength="84" x="989" y="518.5422">搜索历史命令</text><path d="M936,479.0304 L946,479.0304 C961,479.0304 961,512.4382 976,512.4382 L986,512.4382 " fill="none" style="stroke: #A80036; stroke-width: 1.0;"/><path d="M782,650.0304 L792,650.0304 C807,650.0304 807,479.0304 822,479.0304 L832,479.0304 " fill="none" style="stroke: #A80036; stroke-width: 1.0;"/><rect fill="#FEFECE" filter="url(#f1v4rnkxc1lsxm)" height="40.2719" rx="12.5" ry="12.5" style="stroke: #A80036; stroke-width: 1.5;" width="48" x="832" y="608.9141"/><text fill="#000000" font-family="sans-serif" font-size="14" lengthAdjust="spacingAndGlyphs" textLength="28" x="842" y="635.154">笔记</text><rect fill="#FEFECE" filter="url(#f1v4rnkxc1lsxm)" height="40.2719" rx="12.5" ry="12.5" style="stroke: #A80036; stroke-width: 1.5;" width="146" x="930" y="563.7101"/><text fill="#000000" font-family="sans-serif" font-size="14" lengthAdjust="spacingAndGlyphs" textLength="126" x="940" y="589.9501">找一个好的笔记软件</text><rect fill="#FEFECE" filter="url(#f1v4rnkxc1lsxm)" height="40.2719" rx="12.5" ry="12.5" style="stroke: #A80036; stroke-width: 1.5;" width="62" x="1126" y="533.5742"/><text fill="#000000" font-family="sans-serif" font-size="14" lengthAdjust="spacingAndGlyphs" textLength="42" x="1136" y="559.8141">有道云</text><path d="M1076,583.8461 L1086,583.8461 C1101,583.8461 1101,553.7101 1116,553.7101 L1126,553.7101 " fill="none" style="stroke: #A80036; stroke-width: 1.0;"/><rect fill="#FEFECE" filter="url(#f1v4rnkxc1lsxm)" height="40.2719" rx="12.5" ry="12.5" style="stroke: #A80036; stroke-width: 1.5;" width="106" x="1126" y="593.8461"/><text fill="#000000" font-family="sans-serif" font-size="14" lengthAdjust="spacingAndGlyphs" textLength="86" x="1136" y="620.086">直接用github</text><path d="M1076,583.8461 L1086,583.8461 C1101,583.8461 1101,613.9821 1116,613.9821 L1126,613.9821 " fill="none" style="stroke: #A80036; stroke-width: 1.0;"/><path d="M880,629.05 L890,629.05 C905,629.05 905,583.8461 920,583.8461 L930,583.8461 " fill="none" style="stroke: #A80036; stroke-width: 1.0;"/><rect fill="#FEFECE" filter="url(#f1v4rnkxc1lsxm)" height="40.2719" rx="12.5" ry="12.5" style="stroke: #A80036; stroke-width: 1.5;" width="119" x="930" y="623.9821"/><text fill="#000000" font-family="sans-serif" font-size="14" lengthAdjust="spacingAndGlyphs" textLength="99" x="940" y="650.222">markdown语法</text><path d="M880,629.05 L890,629.05 C905,629.05 905,644.118 920,644.118 L930,644.118 " fill="none" style="stroke: #A80036; stroke-width: 1.0;"/><rect fill="#FEFECE" filter="url(#f1v4rnkxc1lsxm)" height="40.2719" rx="12.5" ry="12.5" style="stroke: #A80036; stroke-width: 1.5;" width="133" x="930" y="684.254"/><text fill="#000000" font-family="sans-serif" font-size="14" lengthAdjust="spacingAndGlyphs" textLength="113" x="940" y="710.4939">markdown编辑器</text><text fill="#000000" font-family="sans-serif" font-size="14" lengthAdjust="spacingAndGlyphs" textLength="45" x="1116" y="710.4939">Typora</text><path d="M1063,704.3899 L1073,704.3899 C1088,704.3899 1088,704.3899 1103,704.3899 L1113,704.3899 " fill="none" style="stroke: #A80036; stroke-width: 1.0;"/><path d="M880,629.05 L890,629.05 C905,629.05 905,704.3899 920,704.3899 L930,704.3899 " fill="none" style="stroke: #A80036; stroke-width: 1.0;"/><path d="M782,650.0304 L792,650.0304 C807,650.0304 807,629.05 822,629.05 L832,629.05 " fill="none" style="stroke: #A80036; stroke-width: 1.0;"/><rect fill="#FEFECE" filter="url(#f1v4rnkxc1lsxm)" height="40.2719" rx="12.5" ry="12.5" style="stroke: #A80036; stroke-width: 1.5;" width="76" x="832" y="781.2057"/><text fill="#000000" font-family="sans-serif" font-size="14" lengthAdjust="spacingAndGlyphs" textLength="56" x="842" y="807.4456">软件管理</text><rect fill="#FEFECE" filter="url(#f1v4rnkxc1lsxm)" height="40.2719" rx="12.5" ry="12.5" style="stroke: #A80036; stroke-width: 1.5;" width="53" x="958" y="781.2057"/><text fill="#000000" font-family="sans-serif" font-size="14" lengthAdjust="spacingAndGlyphs" textLength="33" x="968" y="807.4456">brew</text><text fill="#000000" font-family="sans-serif" font-size="14" lengthAdjust="spacingAndGlyphs" textLength="20" x="1064" y="751.7658">list</text><path d="M1011,801.3416 L1021,801.3416 C1036,801.3416 1036,745.6618 1051,745.6618 L1061,745.6618 " fill="none" style="stroke: #A80036; stroke-width: 1.0;"/><text fill="#000000" font-family="sans-serif" font-size="14" lengthAdjust="spacingAndGlyphs" textLength="41" x="1064" y="774.0377">install</text><path d="M1011,801.3416 L1021,801.3416 C1036,801.3416 1036,767.9337 1051,767.9337 L1061,767.9337 " fill="none" style="stroke: #A80036; stroke-width: 1.0;"/><text fill="#000000" font-family="sans-serif" font-size="14" lengthAdjust="spacingAndGlyphs" textLength="59" x="1064" y="796.3096">uninstall</text><path d="M1011,801.3416 L1021,801.3416 C1036,801.3416 1036,790.2057 1051,790.2057 L1061,790.2057 " fill="none" style="stroke: #A80036; stroke-width: 1.0;"/><text fill="#000000" font-family="sans-serif" font-size="14" lengthAdjust="spacingAndGlyphs" textLength="44" x="1064" y="818.5815">search</text><path d="M1011,801.3416 L1021,801.3416 C1036,801.3416 1036,812.4776 1051,812.4776 L1061,812.4776 " fill="none" style="stroke: #A80036; stroke-width: 1.0;"/><text fill="#000000" font-family="sans-serif" font-size="14" lengthAdjust="spacingAndGlyphs" textLength="56" x="1064" y="840.8535">upgrade</text><path d="M1011,801.3416 L1021,801.3416 C1036,801.3416 1036,834.7495 1051,834.7495 L1061,834.7495 " fill="none" style="stroke: #A80036; stroke-width: 1.0;"/><text fill="#000000" font-family="sans-serif" font-size="14" lengthAdjust="spacingAndGlyphs" textLength="48" x="1064" y="863.1254">update</text><path d="M1011,801.3416 L1021,801.3416 C1036,801.3416 1036,857.0214 1051,857.0214 L1061,857.0214 " fill="none" style="stroke: #A80036; stroke-width: 1.0;"/><path d="M908,801.3416 L918,801.3416 C933,801.3416 933,801.3416 948,801.3416 L958,801.3416 " fill="none" style="stroke: #A80036; stroke-width: 1.0;"/><path d="M782,650.0304 L792,650.0304 C807,650.0304 807,801.3416 822,801.3416 L832,801.3416 " fill="none" style="stroke: #A80036; stroke-width: 1.0;"/><rect fill="#FEFECE" filter="url(#f1v4rnkxc1lsxm)" height="40.2719" rx="12.5" ry="12.5" style="stroke: #A80036; stroke-width: 1.5;" width="37" x="832" y="1058.9731"/><text fill="#000000" font-family="sans-serif" font-size="14" lengthAdjust="spacingAndGlyphs" textLength="17" x="842" y="1085.213">git</text><rect fill="#FEFECE" filter="url(#f1v4rnkxc1lsxm)" height="40.2719" rx="12.5" ry="12.5" style="stroke: #A80036; stroke-width: 1.5;" width="120" x="919" y="878.1573"/><text fill="#000000" font-family="sans-serif" font-size="14" lengthAdjust="spacingAndGlyphs" textLength="100" x="929" y="904.3973">github创建项目</text><path d="M869,1079.109 L879,1079.109 C894,1079.109 894,898.2933 909,898.2933 L919,898.2933 " fill="none" style="stroke: #A80036; stroke-width: 1.0;"/><rect fill="#FEFECE" filter="url(#f1v4rnkxc1lsxm)" height="40.2719" rx="12.5" ry="12.5" style="stroke: #A80036; stroke-width: 1.5;" width="71" x="919" y="938.4293"/><text fill="#000000" font-family="sans-serif" font-size="14" lengthAdjust="spacingAndGlyphs" textLength="51" x="929" y="964.6692">ssh-key</text><path d="M869,1079.109 L879,1079.109 C894,1079.109 894,958.5652 909,958.5652 L919,958.5652 " fill="none" style="stroke: #A80036; stroke-width: 1.0;"/><rect fill="#FEFECE" filter="url(#f1v4rnkxc1lsxm)" height="40.2719" rx="12.5" ry="12.5" style="stroke: #A80036; stroke-width: 1.5;" width="93" x="919" y="1089.109"/><text fill="#000000" font-family="sans-serif" font-size="14" lengthAdjust="spacingAndGlyphs" textLength="73" x="929" y="1115.349">git项目管理</text><rect fill="#FEFECE" filter="url(#f1v4rnkxc1lsxm)" height="40.2719" rx="12.5" ry="12.5" style="stroke: #A80036; stroke-width: 1.5;" width="42" x="1062" y="938.4293"/><text fill="#000000" font-family="sans-serif" font-size="14" lengthAdjust="spacingAndGlyphs" textLength="22" x="1072" y="964.6692">init</text><path d="M1012,1109.245 L1022,1109.245 C1037,1109.245 1037,958.5652 1052,958.5652 L1062,958.5652 " fill="none" style="stroke: #A80036; stroke-width: 1.0;"/><rect fill="#FEFECE" filter="url(#f1v4rnkxc1lsxm)" height="40.2719" rx="12.5" ry="12.5" style="stroke: #A80036; stroke-width: 1.5;" width="56" x="1062" y="998.7012"/><text fill="#000000" font-family="sans-serif" font-size="14" lengthAdjust="spacingAndGlyphs" textLength="36" x="1072" y="1024.9411">clone</text><path d="M1012,1109.245 L1022,1109.245 C1037,1109.245 1037,1018.8371 1052,1018.8371 L1062,1018.8371 " fill="none" style="stroke: #A80036; stroke-width: 1.0;"/><rect fill="#FEFECE" filter="url(#f1v4rnkxc1lsxm)" height="40.2719" rx="12.5" ry="12.5" style="stroke: #A80036; stroke-width: 1.5;" width="46" x="1062" y="1058.9731"/><text fill="#000000" font-family="sans-serif" font-size="14" lengthAdjust="spacingAndGlyphs" textLength="26" x="1072" y="1085.213">add</text><path d="M1012,1109.245 L1022,1109.245 C1037,1109.245 1037,1079.109 1052,1079.109 L1062,1079.109 " fill="none" style="stroke: #A80036; stroke-width: 1.0;"/><rect fill="#FEFECE" filter="url(#f1v4rnkxc1lsxm)" height="40.2719" rx="12.5" ry="12.5" style="stroke: #A80036; stroke-width: 1.5;" width="70" x="1062" y="1119.245"/><text fill="#000000" font-family="sans-serif" font-size="14" lengthAdjust="spacingAndGlyphs" textLength="50" x="1072" y="1145.4849">commit</text><path d="M1012,1109.245 L1022,1109.245 C1037,1109.245 1037,1139.381 1052,1139.381 L1062,1139.381 " fill="none" style="stroke: #A80036; stroke-width: 1.0;"/><rect fill="#FEFECE" filter="url(#f1v4rnkxc1lsxm)" height="40.2719" rx="12.5" ry="12.5" style="stroke: #A80036; stroke-width: 1.5;" width="54" x="1062" y="1179.5169"/><text fill="#000000" font-family="sans-serif" font-size="14" lengthAdjust="spacingAndGlyphs" textLength="34" x="1072" y="1205.7568">push</text><path d="M1012,1109.245 L1022,1109.245 C1037,1109.245 1037,1199.6529 1052,1199.6529 L1062,1199.6529 " fill="none" style="stroke: #A80036; stroke-width: 1.0;"/><rect fill="#FEFECE" filter="url(#f1v4rnkxc1lsxm)" height="40.2719" rx="12.5" ry="12.5" style="stroke: #A80036; stroke-width: 1.5;" width="46" x="1062" y="1239.7888"/><text fill="#000000" font-family="sans-serif" font-size="14" lengthAdjust="spacingAndGlyphs" textLength="26" x="1072" y="1266.0287">pull</text><path d="M1012,1109.245 L1022,1109.245 C1037,1109.245 1037,1259.9248 1052,1259.9248 L1062,1259.9248 " fill="none" style="stroke: #A80036; stroke-width: 1.0;"/><path d="M869,1079.109 L879,1079.109 C894,1079.109 894,1109.245 909,1109.245 L919,1109.245 " fill="none" style="stroke: #A80036; stroke-width: 1.0;"/><path d="M782,650.0304 L792,650.0304 C807,650.0304 807,1079.109 822,1079.109 L832,1079.109 " fill="none" style="stroke: #A80036; stroke-width: 1.0;"/><rect fill="#FEFECE" filter="url(#f1v4rnkxc1lsxm)" height="40.2719" rx="12.5" ry="12.5" style="stroke: #A80036; stroke-width: 1.5;" width="76" x="538" y="599.7585"/><text fill="#000000" font-family="sans-serif" font-size="14" lengthAdjust="spacingAndGlyphs" textLength="56" x="548" y="625.9984">核心工具</text><rect fill="#FEFECE" filter="url(#f1v4rnkxc1lsxm)" height="40.2719" rx="12.5" ry="12.5" style="stroke: #A80036; stroke-width: 1.5;" width="48" x="440" y="515.5787"/><text fill="#000000" font-family="sans-serif" font-size="14" lengthAdjust="spacingAndGlyphs" textLength="28" x="450" y="541.8186">终端</text><rect fill="#FEFECE" filter="url(#f1v4rnkxc1lsxm)" height="40.2719" rx="12.5" ry="12.5" style="stroke: #A80036; stroke-width: 1.5;" width="76" x="314" y="485.4427"/><text fill="#000000" font-family="sans-serif" font-size="14" lengthAdjust="spacingAndGlyphs" textLength="56" x="324" y="511.6826">terminal</text><path d="M440,535.7146 L430,535.7146 C415,535.7146 415,505.5787 400,505.5787 L390,505.5787 " fill="none" style="stroke: #A80036; stroke-width: 1.0;"/><rect fill="#FEFECE" filter="url(#f1v4rnkxc1lsxm)" height="40.2719" rx="12.5" ry="12.5" style="stroke: #A80036; stroke-width: 1.5;" width="58" x="332" y="545.7146"/><text fill="#000000" font-family="sans-serif" font-size="14" lengthAdjust="spacingAndGlyphs" textLength="38" x="342" y="571.9546">iTerm</text><path d="M440,535.7146 L430,535.7146 C415,535.7146 415,565.8506 400,565.8506 L390,565.8506 " fill="none" style="stroke: #A80036; stroke-width: 1.0;"/><path d="M538,619.8944 L528,619.8944 C513,619.8944 513,535.7146 498,535.7146 L488,535.7146 " fill="none" style="stroke: #A80036; stroke-width: 1.0;"/><rect fill="#FEFECE" filter="url(#f1v4rnkxc1lsxm)" height="40.2719" rx="12.5" ry="12.5" style="stroke: #A80036; stroke-width: 1.5;" width="62" x="426" y="605.9865"/><text fill="#000000" font-family="sans-serif" font-size="14" lengthAdjust="spacingAndGlyphs" textLength="42" x="436" y="632.2265">浏览器</text><rect fill="#FEFECE" filter="url(#f1v4rnkxc1lsxm)" height="40.2719" rx="12.5" ry="12.5" style="stroke: #A80036; stroke-width: 1.5;" width="70" x="306" y="605.9865"/><text fill="#000000" font-family="sans-serif" font-size="14" lengthAdjust="spacingAndGlyphs" textLength="50" x="316" y="632.2265">chrome</text><path d="M426,626.1225 L416,626.1225 C401,626.1225 401,626.1225 386,626.1225 L376,626.1225 " fill="none" style="stroke: #A80036; stroke-width: 1.0;"/><path d="M538,619.8944 L528,619.8944 C513,619.8944 513,626.1225 498,626.1225 L488,626.1225 " fill="none" style="stroke: #A80036; stroke-width: 1.0;"/><rect fill="#FEFECE" filter="url(#f1v4rnkxc1lsxm)" height="40.2719" rx="12.5" ry="12.5" style="stroke: #A80036; stroke-width: 1.5;" width="62" x="426" y="690.1663"/><text fill="#000000" font-family="sans-serif" font-size="14" lengthAdjust="spacingAndGlyphs" textLength="42" x="436" y="716.4063">编辑器</text><rect fill="#FEFECE" filter="url(#f1v4rnkxc1lsxm)" height="60.5438" rx="12.5" ry="12.5" style="stroke: #A80036; stroke-width: 1.5;" width="160" x="216" y="680.0304"/><text fill="#000000" font-family="sans-serif" font-size="14" lengthAdjust="spacingAndGlyphs" textLength="126" x="226" y="706.2703">用键盘完成所有操作</text><text fill="#000000" font-family="sans-serif" font-size="14" lengthAdjust="spacingAndGlyphs" textLength="140" x="226" y="726.5422">（少用鼠标和触摸板）</text><text fill="#000000" font-family="sans-serif" font-size="14" lengthAdjust="spacingAndGlyphs" textLength="43" x="120" y="673.4984">emacs</text><path d="M216,710.3023 L206,710.3023 C191,710.3023 191,667.3944 176,667.3944 L166,667.3944 " fill="none" style="stroke: #A80036; stroke-width: 1.0;"/><text fill="#000000" font-family="sans-serif" font-size="14" lengthAdjust="spacingAndGlyphs" textLength="24" x="139" y="695.7703">vim</text><path d="M216,710.3023 L206,710.3023 C191,710.3023 191,689.6663 176,689.6663 L166,689.6663 " fill="none" style="stroke: #A80036; stroke-width: 1.0;"/><rect fill="#FEFECE" filter="url(#f1v4rnkxc1lsxm)" height="40.2719" rx="12.5" ry="12.5" style="stroke: #A80036; stroke-width: 1.5;" width="48" x="118" y="710.8023"/><text fill="#000000" font-family="sans-serif" font-size="14" lengthAdjust="spacingAndGlyphs" textLength="28" x="128" y="737.0422">其他</text><text fill="#000000" font-family="sans-serif" font-size="14" lengthAdjust="spacingAndGlyphs" textLength="55" x="10" y="714.7703">Sublime</text><path d="M118,730.9382 L108,730.9382 C93,730.9382 93,708.6663 78,708.6663 L68,708.6663 " fill="none" style="stroke: #A80036; stroke-width: 1.0;"/><text fill="#000000" font-family="sans-serif" font-size="14" lengthAdjust="spacingAndGlyphs" textLength="55" x="10" y="737.0422">VS-Code</text><path d="M118,730.9382 L108,730.9382 C93,730.9382 93,730.9382 78,730.9382 L68,730.9382 " fill="none" style="stroke: #A80036; stroke-width: 1.0;"/><text fill="#000000" font-family="sans-serif" font-size="14" lengthAdjust="spacingAndGlyphs" textLength="35" x="30" y="759.3141">Atom</text><path d="M118,730.9382 L108,730.9382 C93,730.9382 93,753.2101 78,753.2101 L68,753.2101 " fill="none" style="stroke: #A80036; stroke-width: 1.0;"/><path d="M216,710.3023 L206,710.3023 C191,710.3023 191,730.9382 176,730.9382 L166,730.9382 " fill="none" style="stroke: #A80036; stroke-width: 1.0;"/><path d="M426,710.3023 L416,710.3023 C401,710.3023 401,710.3023 386,710.3023 L376,710.3023 " fill="none" style="stroke: #A80036; stroke-width: 1.0;"/><path d="M538,619.8944 L528,619.8944 C513,619.8944 513,710.3023 498,710.3023 L488,710.3023 " fill="none" style="stroke: #A80036; stroke-width: 1.0;"/><path d="M664,650.0304 L654,650.0304 C639,650.0304 639,619.8944 624,619.8944 L614,619.8944 " fill="none" style="stroke: #A80036; stroke-width: 1.0;"/><rect fill="#FEFECE" filter="url(#f1v4rnkxc1lsxm)" height="40.2719" rx="12.5" ry="12.5" style="stroke: #A80036; stroke-width: 1.5;" width="104" x="510" y="774.3461"/><text fill="#000000" font-family="sans-serif" font-size="14" lengthAdjust="spacingAndGlyphs" textLength="84" x="520" y="800.586">问问题的技巧</text><text fill="#000000" font-family="sans-serif" font-size="14" lengthAdjust="spacingAndGlyphs" textLength="56" x="401" y="789.4501">少用百度</text><path d="M510,794.4821 L500,794.4821 C485,794.4821 485,783.3461 470,783.3461 L460,783.3461 " fill="none" style="stroke: #A80036; stroke-width: 1.0;"/><text fill="#000000" font-family="sans-serif" font-size="14" lengthAdjust="spacingAndGlyphs" textLength="98" x="359" y="811.722">搜索什么关键词</text><path d="M510,794.4821 L500,794.4821 C485,794.4821 485,805.618 470,805.618 L460,805.618 " fill="none" style="stroke: #A80036; stroke-width: 1.0;"/><path d="M664,650.0304 L654,650.0304 C639,650.0304 639,794.4821 624,794.4821 L614,794.4821 " fill="none" style="stroke: #A80036; stroke-width: 1.0;"/><!--MD5=[1fd931e6497d79aab36d6e7cfdab4a9c]
@startmindmap
* 预备课必备知识
** linux文件和目录
*** 变更和查看工作目录
**** pwd(print working directory)
**** cd(change directory)
*****_ ./
*****_ ../
*****_ -
*****_ ~
****_ ls(list)
*** 文件和文件夹操作
****_ touch
****_ mkdir
****_ cp
****_ mv
****_ rm
****_ cat
****_ more
****_ find
****_ grep
*** 修改文件的权限
****_ chmod
****_ chgrp
****_ chown
** 命令行快捷键
***_ 移动光标
***_ 删除
***_ 上一条下一条命令
***_ 搜索历史命令
** 笔记
*** 找一个好的笔记软件
**** 有道云
**** 直接用github
*** markdown语法
*** markdown编辑器
****_ Typora
** 软件管理
*** brew
****_ list
****_ install
****_ uninstall
****_ search
****_ upgrade
****_ update
** git
*** github创建项目
*** ssh-key
*** git项目管理
**** init
**** clone
**** add
**** commit
**** push
**** pull
left side
** 核心工具
*** 终端
**** terminal
**** iTerm
*** 浏览器
**** chrome
*** 编辑器
**** 用键盘完成所有操作\n（少用鼠标和触摸板）
*****_ emacs
*****_ vim
***** 其他
******_ Sublime
******_ VS-Code
******_ Atom
** 问问题的技巧
***_ 少用百度
***_ 搜索什么关键词
@endmindmap

PlantUML version 1.2020.06(Sun Apr 05 20:38:32 CST 2020)
(GPL source distribution)
Java Runtime: OpenJDK Runtime Environment
JVM: OpenJDK 64-Bit Server VM
Java Version: 11.0.7+10-post-Ubuntu-2ubuntu219.10
Operating System: Linux
Default Encoding: UTF-8
Language: en
Country: US
--></g></svg>