<?xml version="1.0" encoding="UTF-8" standalone="no"?><svg xmlns="http://www.w3.org/2000/svg" xmlns:xlink="http://www.w3.org/1999/xlink" contentScriptType="application/ecmascript" contentStyleType="text/css" height="1452px" preserveAspectRatio="none" style="width:1435px;height:1452px;" version="1.1" viewBox="0 0 1435 1452" width="1435px" zoomAndPan="magnify"><defs><filter height="300%" id="fpl37p0ghlw9f" width="300%" x="-1" y="-1"><feGaussianBlur result="blurOut" stdDeviation="2.0"/><feColorMatrix in="blurOut" result="blurOut2" type="matrix" values="0 0 0 0 0 0 0 0 0 0 0 0 0 0 0 0 0 0 .4 0"/><feOffset dx="4.0" dy="4.0" in="blurOut2" result="blurOut3"/><feBlend in="SourceGraphic" in2="blurOut3" mode="normal"/></filter></defs><g><rect fill="none" height="30.2719" style="stroke: none; stroke-width: 1.0;" width="108" x="612" y="15"/><text fill="#000000" font-family="sans-serif" font-size="14" font-weight="bold" lengthAdjust="spacingAndGlyphs" textLength="98" x="617" y="36.2399">预备课学习路线</text><rect fill="#FEFECE" filter="url(#fpl37p0ghlw9f)" height="40.2719" rx="12.5" ry="12.5" style="stroke: #A80036; stroke-width: 1.5;" width="118" x="664" y="731.4382"/><text fill="#000000" font-family="sans-serif" font-size="14" lengthAdjust="spacingAndGlyphs" textLength="98" x="674" y="757.6782">预备课必备知识</text><rect fill="#FEFECE" filter="url(#fpl37p0ghlw9f)" height="40.2719" rx="12.5" ry="12.5" style="stroke: #A80036; stroke-width: 1.5;" width="123" x="832" y="243.3792"/><text fill="#000000" font-family="sans-serif" font-size="14" lengthAdjust="spacingAndGlyphs" textLength="103" x="842" y="269.6192">linux文件和目录</text><rect fill="#FEFECE" filter="url(#fpl37p0ghlw9f)" height="40.2719" rx="12.5" ry="12.5" style="stroke: #A80036; stroke-width: 1.5;" width="146" x="1005" y="109.7478"/><text fill="#000000" font-family="sans-serif" font-size="14" lengthAdjust="spacingAndGlyphs" textLength="126" x="1015" y="135.9877">变更和查看工作目录</text><rect fill="#FEFECE" filter="url(#fpl37p0ghlw9f)" height="40.2719" rx="12.5" ry="12.5" style="stroke: #A80036; stroke-width: 1.5;" width="208" x="1201" y="61.2719"/><text fill="#000000" font-family="sans-serif" font-size="14" lengthAdjust="spacingAndGlyphs" textLength="188" x="1211" y="87.5118">pwd(print working directory)</text><path d="M1151,129.8837 L1161,129.8837 C1176,129.8837 1176,81.4079 1191,81.4079 L1201,81.4079 " fill="none" style="stroke: #A80036; stroke-width: 1.0;"/><rect fill="#FEFECE" filter="url(#fpl37p0ghlw9f)" height="40.2719" rx="12.5" ry="12.5" style="stroke: #A80036; stroke-width: 1.5;" width="156" x="1201" y="135.9517"/><text fill="#000000" font-family="sans-serif" font-size="14" lengthAdjust="spacingAndGlyphs" textLength="136" x="1211" y="162.1916">cd(change directory)</text><text fill="#000000" font-family="sans-serif" font-size="14" lengthAdjust="spacingAndGlyphs" textLength="9" x="1410" y="128.7838">./</text><path d="M1357,156.0876 L1367,156.0876 C1382,156.0876 1382,122.6798 1397,122.6798 L1407,122.6798 " fill="none" style="stroke: #A80036; stroke-width: 1.0;"/><text fill="#000000" font-family="sans-serif" font-size="14" lengthAdjust="spacingAndGlyphs" textLength="13" x="1410" y="151.0557">../</text><path d="M1357,156.0876 L1367,156.0876 C1382,156.0876 1382,144.9517 1397,144.9517 L1407,144.9517 " fill="none" style="stroke: #A80036; stroke-width: 1.0;"/><text fill="#000000" font-family="sans-serif" font-size="14" lengthAdjust="spacingAndGlyphs" textLength="5" x="1410" y="173.3276">-</text><path d="M1357,156.0876 L1367,156.0876 C1382,156.0876 1382,167.2236 1397,167.2236 L1407,167.2236 " fill="none" style="stroke: #A80036; stroke-width: 1.0;"/><text fill="#000000" font-family="sans-serif" font-size="14" lengthAdjust="spacingAndGlyphs" textLength="8" x="1410" y="195.5995">~</text><path d="M1357,156.0876 L1367,156.0876 C1382,156.0876 1382,189.4955 1397,189.4955 L1407,189.4955 " fill="none" style="stroke: #A80036; stroke-width: 1.0;"/><path d="M1151,129.8837 L1161,129.8837 C1176,129.8837 1176,156.0876 1191,156.0876 L1201,156.0876 " fill="none" style="stroke: #A80036; stroke-width: 1.0;"/><text fill="#000000" font-family="sans-serif" font-size="14" lengthAdjust="spacingAndGlyphs" textLength="41" x="1204" y="203.4635">ls(list)</text><path d="M1151,129.8837 L1161,129.8837 C1176,129.8837 1176,197.3596 1191,197.3596 L1201,197.3596 " fill="none" style="stroke: #A80036; stroke-width: 1.0;"/><path d="M955,263.5152 L965,263.5152 C980,263.5152 980,129.8837 995,129.8837 L1005,129.8837 " fill="none" style="stroke: #A80036; stroke-width: 1.0;"/><rect fill="#FEFECE" filter="url(#fpl37p0ghlw9f)" height="40.2719" rx="12.5" ry="12.5" style="stroke: #A80036; stroke-width: 1.5;" width="132" x="1005" y="288.5832"/><text fill="#000000" font-family="sans-serif" font-size="14" lengthAdjust="spacingAndGlyphs" textLength="112" x="1015" y="314.8231">文件和文件夹操作</text><text fill="#000000" font-family="sans-serif" font-size="14" lengthAdjust="spacingAndGlyphs" textLength="38" x="1190" y="225.7354">touch</text><path d="M1137,308.7191 L1147,308.7191 C1162,308.7191 1162,219.6315 1177,219.6315 L1187,219.6315 " fill="none" style="stroke: #A80036; stroke-width: 1.0;"/><text fill="#000000" font-family="sans-serif" font-size="14" lengthAdjust="spacingAndGlyphs" textLength="39" x="1190" y="248.0074">mkdir</text><path d="M1137,308.7191 L1147,308.7191 C1162,308.7191 1162,241.9034 1177,241.9034 L1187,241.9034 " fill="none" style="stroke: #A80036; stroke-width: 1.0;"/><text fill="#000000" font-family="sans-serif" font-size="14" lengthAdjust="spacingAndGlyphs" textLength="16" x="1190" y="270.2793">cp</text><path d="M1137,308.7191 L1147,308.7191 C1162,308.7191 1162,264.1753 1177,264.1753 L1187,264.1753 " fill="none" style="stroke: #A80036; stroke-width: 1.0;"/><text fill="#000000" font-family="sans-serif" font-size="14" lengthAdjust="spacingAndGlyphs" textLength="20" x="1190" y="292.5512">mv</text><path d="M1137,308.7191 L1147,308.7191 C1162,308.7191 1162,286.4472 1177,286.4472 L1187,286.4472 " fill="none" style="stroke: #A80036; stroke-width: 1.0;"/><text fill="#000000" font-family="sans-serif" font-size="14" lengthAdjust="spacingAndGlyphs" textLength="18" x="1190" y="314.8231">rm</text><path d="M1137,308.7191 L1147,308.7191 C1162,308.7191 1162,308.7191 1177,308.7191 L1187,308.7191 " fill="none" style="stroke: #A80036; stroke-width: 1.0;"/><text fill="#000000" font-family="sans-serif" font-size="14" lengthAdjust="spacingAndGlyphs" textLength="20" x="1190" y="337.095">cat</text><path d="M1137,308.7191 L1147,308.7191 C1162,308.7191 1162,330.991 1177,330.991 L1187,330.991 " fill="none" style="stroke: #A80036; stroke-width: 1.0;"/><text fill="#000000" font-family="sans-serif" font-size="14" lengthAdjust="spacingAndGlyphs" textLength="34" x="1190" y="359.3669">more</text><path d="M1137,308.7191 L1147,308.7191 C1162,308.7191 1162,353.2629 1177,353.2629 L1187,353.2629 " fill="none" style="stroke: #A80036; stroke-width: 1.0;"/><text fill="#000000" font-family="sans-serif" font-size="14" lengthAdjust="spacingAndGlyphs" textLength="27" x="1190" y="381.6388">find</text><path d="M1137,308.7191 L1147,308.7191 C1162,308.7191 1162,375.5349 1177,375.5349 L1187,375.5349 " fill="none" style="stroke: #A80036; stroke-width: 1.0;"/><text fill="#000000" font-family="sans-serif" font-size="14" lengthAdjust="spacingAndGlyphs" textLength="30" x="1190" y="403.9107">grep</text><path d="M1137,308.7191 L1147,308.7191 C1162,308.7191 1162,397.8068 1177,397.8068 L1187,397.8068 " fill="none" style="stroke: #A80036; stroke-width: 1.0;"/><path d="M955,263.5152 L965,263.5152 C980,263.5152 980,308.7191 995,308.7191 L1005,308.7191 " fill="none" style="stroke: #A80036; stroke-width: 1.0;"/><rect fill="#FEFECE" filter="url(#fpl37p0ghlw9f)" height="40.2719" rx="12.5" ry="12.5" style="stroke: #A80036; stroke-width: 1.5;" width="118" x="1005" y="422.2146"/><text fill="#000000" font-family="sans-serif" font-size="14" lengthAdjust="spacingAndGlyphs" textLength="98" x="1015" y="448.4546">修改文件的权限</text><text fill="#000000" font-family="sans-serif" font-size="14" lengthAdjust="spacingAndGlyphs" textLength="46" x="1176" y="426.1826">chmod</text><path d="M1123,442.3506 L1133,442.3506 C1148,442.3506 1148,420.0787 1163,420.0787 L1173,420.0787 " fill="none" style="stroke: #A80036; stroke-width: 1.0;"/><text fill="#000000" font-family="sans-serif" font-size="14" lengthAdjust="spacingAndGlyphs" textLength="38" x="1176" y="448.4546">chgrp</text><path d="M1123,442.3506 L1133,442.3506 C1148,442.3506 1148,442.3506 1163,442.3506 L1173,442.3506 " fill="none" style="stroke: #A80036; stroke-width: 1.0;"/><text fill="#000000" font-family="sans-serif" font-size="14" lengthAdjust="spacingAndGlyphs" textLength="44" x="1176" y="470.7265">chown</text><path d="M1123,442.3506 L1133,442.3506 C1148,442.3506 1148,464.6225 1163,464.6225 L1173,464.6225 " fill="none" style="stroke: #A80036; stroke-width: 1.0;"/><path d="M955,263.5152 L965,263.5152 C980,263.5152 980,442.3506 995,442.3506 L1005,442.3506 " fill="none" style="stroke: #A80036; stroke-width: 1.0;"/><path d="M782,751.5742 L792,751.5742 C807,751.5742 807,263.5152 822,263.5152 L832,263.5152 " fill="none" style="stroke: #A80036; stroke-width: 1.0;"/><rect fill="#FEFECE" filter="url(#fpl37p0ghlw9f)" height="40.2719" rx="12.5" ry="12.5" style="stroke: #A80036; stroke-width: 1.5;" width="137" x="832" y="515.8944"/><text fill="#000000" font-family="sans-serif" font-size="14" lengthAdjust="spacingAndGlyphs" textLength="117" x="842" y="542.1343">linux如何执行命令</text><rect fill="#FEFECE" filter="url(#fpl37p0ghlw9f)" height="40.2719" rx="12.5" ry="12.5" style="stroke: #A80036; stroke-width: 1.5;" width="64" x="1019" y="485.7585"/><text fill="#000000" font-family="sans-serif" font-size="14" lengthAdjust="spacingAndGlyphs" textLength="44" x="1029" y="511.9984">$PATH</text><path d="M969,536.0304 L979,536.0304 C994,536.0304 994,505.8944 1009,505.8944 L1019,505.8944 " fill="none" style="stroke: #A80036; stroke-width: 1.0;"/><rect fill="#FEFECE" filter="url(#fpl37p0ghlw9f)" height="40.2719" rx="12.5" ry="12.5" style="stroke: #A80036; stroke-width: 1.5;" width="118" x="1019" y="546.0304"/><text fill="#000000" font-family="sans-serif" font-size="14" lengthAdjust="spacingAndGlyphs" textLength="98" x="1029" y="572.2703">指明文件的路径</text><text fill="#000000" font-family="sans-serif" font-size="14" lengthAdjust="spacingAndGlyphs" textLength="56" x="1190" y="561.1343">绝对路径</text><path d="M1137,566.1663 L1147,566.1663 C1162,566.1663 1162,555.0304 1177,555.0304 L1187,555.0304 " fill="none" style="stroke: #A80036; stroke-width: 1.0;"/><text fill="#000000" font-family="sans-serif" font-size="14" lengthAdjust="spacingAndGlyphs" textLength="56" x="1190" y="583.4063">相对路径</text><path d="M1137,566.1663 L1147,566.1663 C1162,566.1663 1162,577.3023 1177,577.3023 L1187,577.3023 " fill="none" style="stroke: #A80036; stroke-width: 1.0;"/><path d="M969,536.0304 L979,536.0304 C994,536.0304 994,566.1663 1009,566.1663 L1019,566.1663 " fill="none" style="stroke: #A80036; stroke-width: 1.0;"/><path d="M782,751.5742 L792,751.5742 C807,751.5742 807,536.0304 822,536.0304 L832,536.0304 " fill="none" style="stroke: #A80036; stroke-width: 1.0;"/><rect fill="#FEFECE" filter="url(#fpl37p0ghlw9f)" height="40.2719" rx="12.5" ry="12.5" style="stroke: #A80036; stroke-width: 1.5;" width="104" x="832" y="620.7101"/><text fill="#000000" font-family="sans-serif" font-size="14" lengthAdjust="spacingAndGlyphs" textLength="84" x="842" y="646.9501">命令行快捷键</text><text fill="#000000" font-family="sans-serif" font-size="14" lengthAdjust="spacingAndGlyphs" textLength="56" x="989" y="613.5422">移动光标</text><path d="M936,640.8461 L946,640.8461 C961,640.8461 961,607.4382 976,607.4382 L986,607.4382 " fill="none" style="stroke: #A80036; stroke-width: 1.0;"/><text fill="#000000" font-family="sans-serif" font-size="14" lengthAdjust="spacingAndGlyphs" textLength="28" x="989" y="635.8141">删除</text><path d="M936,640.8461 L946,640.8461 C961,640.8461 961,629.7101 976,629.7101 L986,629.7101 " fill="none" style="stroke: #A80036; stroke-width: 1.0;"/><text fill="#000000" font-family="sans-serif" font-size="14" lengthAdjust="spacingAndGlyphs" textLength="112" x="989" y="658.086">上一条下一条命令</text><path d="M936,640.8461 L946,640.8461 C961,640.8461 961,651.9821 976,651.9821 L986,651.9821 " fill="none" style="stroke: #A80036; stroke-width: 1.0;"/><text fill="#000000" font-family="sans-serif" font-size="14" lengthAdjust="spacingAndGlyphs" textLength="84" x="989" y="680.3579">搜索历史命令</text><path d="M936,640.8461 L946,640.8461 C961,640.8461 961,674.254 976,674.254 L986,674.254 " fill="none" style="stroke: #A80036; stroke-width: 1.0;"/><path d="M782,751.5742 L792,751.5742 C807,751.5742 807,640.8461 822,640.8461 L832,640.8461 " fill="none" style="stroke: #A80036; stroke-width: 1.0;"/><rect fill="#FEFECE" filter="url(#fpl37p0ghlw9f)" height="40.2719" rx="12.5" ry="12.5" style="stroke: #A80036; stroke-width: 1.5;" width="48" x="832" y="770.7298"/><text fill="#000000" font-family="sans-serif" font-size="14" lengthAdjust="spacingAndGlyphs" textLength="28" x="842" y="796.9697">笔记</text><rect fill="#FEFECE" filter="url(#fpl37p0ghlw9f)" height="40.2719" rx="12.5" ry="12.5" style="stroke: #A80036; stroke-width: 1.5;" width="146" x="930" y="725.5259"/><text fill="#000000" font-family="sans-serif" font-size="14" lengthAdjust="spacingAndGlyphs" textLength="126" x="940" y="751.7658">找一个好的笔记软件</text><rect fill="#FEFECE" filter="url(#fpl37p0ghlw9f)" height="40.2719" rx="12.5" ry="12.5" style="stroke: #A80036; stroke-width: 1.5;" width="62" x="1126" y="695.3899"/><text fill="#000000" font-family="sans-serif" font-size="14" lengthAdjust="spacingAndGlyphs" textLength="42" x="1136" y="721.6299">有道云</text><path d="M1076,745.6618 L1086,745.6618 C1101,745.6618 1101,715.5259 1116,715.5259 L1126,715.5259 " fill="none" style="stroke: #A80036; stroke-width: 1.0;"/><rect fill="#FEFECE" filter="url(#fpl37p0ghlw9f)" height="40.2719" rx="12.5" ry="12.5" style="stroke: #A80036; stroke-width: 1.5;" width="106" x="1126" y="755.6618"/><text fill="#000000" font-family="sans-serif" font-size="14" lengthAdjust="spacingAndGlyphs" textLength="86" x="1136" y="781.9018">直接用github</text><path d="M1076,745.6618 L1086,745.6618 C1101,745.6618 1101,775.7978 1116,775.7978 L1126,775.7978 " fill="none" style="stroke: #A80036; stroke-width: 1.0;"/><path d="M880,790.8658 L890,790.8658 C905,790.8658 905,745.6618 920,745.6618 L930,745.6618 " fill="none" style="stroke: #A80036; stroke-width: 1.0;"/><rect fill="#FEFECE" filter="url(#fpl37p0ghlw9f)" height="40.2719" rx="12.5" ry="12.5" style="stroke: #A80036; stroke-width: 1.5;" width="119" x="930" y="785.7978"/><text fill="#000000" font-family="sans-serif" font-size="14" lengthAdjust="spacingAndGlyphs" textLength="99" x="940" y="812.0377">markdown语法</text><path d="M880,790.8658 L890,790.8658 C905,790.8658 905,805.9337 920,805.9337 L930,805.9337 " fill="none" style="stroke: #A80036; stroke-width: 1.0;"/><rect fill="#FEFECE" filter="url(#fpl37p0ghlw9f)" height="40.2719" rx="12.5" ry="12.5" style="stroke: #A80036; stroke-width: 1.5;" width="133" x="930" y="846.0697"/><text fill="#000000" font-family="sans-serif" font-size="14" lengthAdjust="spacingAndGlyphs" textLength="113" x="940" y="872.3096">markdown编辑器</text><text fill="#000000" font-family="sans-serif" font-size="14" lengthAdjust="spacingAndGlyphs" textLength="45" x="1116" y="872.3096">Typora</text><path d="M1063,866.2057 L1073,866.2057 C1088,866.2057 1088,866.2057 1103,866.2057 L1113,866.2057 " fill="none" style="stroke: #A80036; stroke-width: 1.0;"/><path d="M880,790.8658 L890,790.8658 C905,790.8658 905,866.2057 920,866.2057 L930,866.2057 " fill="none" style="stroke: #A80036; stroke-width: 1.0;"/><path d="M782,751.5742 L792,751.5742 C807,751.5742 807,790.8658 822,790.8658 L832,790.8658 " fill="none" style="stroke: #A80036; stroke-width: 1.0;"/><rect fill="#FEFECE" filter="url(#fpl37p0ghlw9f)" height="40.2719" rx="12.5" ry="12.5" style="stroke: #A80036; stroke-width: 1.5;" width="76" x="832" y="943.0214"/><text fill="#000000" font-family="sans-serif" font-size="14" lengthAdjust="spacingAndGlyphs" textLength="56" x="842" y="969.2613">软件管理</text><rect fill="#FEFECE" filter="url(#fpl37p0ghlw9f)" height="40.2719" rx="12.5" ry="12.5" style="stroke: #A80036; stroke-width: 1.5;" width="53" x="958" y="943.0214"/><text fill="#000000" font-family="sans-serif" font-size="14" lengthAdjust="spacingAndGlyphs" textLength="33" x="968" y="969.2613">brew</text><text fill="#000000" font-family="sans-serif" font-size="14" lengthAdjust="spacingAndGlyphs" textLength="20" x="1064" y="913.5815">list</text><path d="M1011,963.1573 L1021,963.1573 C1036,963.1573 1036,907.4776 1051,907.4776 L1061,907.4776 " fill="none" style="stroke: #A80036; stroke-width: 1.0;"/><text fill="#000000" font-family="sans-serif" font-size="14" lengthAdjust="spacingAndGlyphs" textLength="41" x="1064" y="935.8535">install</text><path d="M1011,963.1573 L1021,963.1573 C1036,963.1573 1036,929.7495 1051,929.7495 L1061,929.7495 " fill="none" style="stroke: #A80036; stroke-width: 1.0;"/><text fill="#000000" font-family="sans-serif" font-size="14" lengthAdjust="spacingAndGlyphs" textLength="59" x="1064" y="958.1254">uninstall</text><path d="M1011,963.1573 L1021,963.1573 C1036,963.1573 1036,952.0214 1051,952.0214 L1061,952.0214 " fill="none" style="stroke: #A80036; stroke-width: 1.0;"/><text fill="#000000" font-family="sans-serif" font-size="14" lengthAdjust="spacingAndGlyphs" textLength="44" x="1064" y="980.3973">search</text><path d="M1011,963.1573 L1021,963.1573 C1036,963.1573 1036,974.2933 1051,974.2933 L1061,974.2933 " fill="none" style="stroke: #A80036; stroke-width: 1.0;"/><text fill="#000000" font-family="sans-serif" font-size="14" lengthAdjust="spacingAndGlyphs" textLength="56" x="1064" y="1002.6692">upgrade</text><path d="M1011,963.1573 L1021,963.1573 C1036,963.1573 1036,996.5652 1051,996.5652 L1061,996.5652 " fill="none" style="stroke: #A80036; stroke-width: 1.0;"/><text fill="#000000" font-family="sans-serif" font-size="14" lengthAdjust="spacingAndGlyphs" textLength="48" x="1064" y="1024.9411">update</text><path d="M1011,963.1573 L1021,963.1573 C1036,963.1573 1036,1018.8371 1051,1018.8371 L1061,1018.8371 " fill="none" style="stroke: #A80036; stroke-width: 1.0;"/><path d="M908,963.1573 L918,963.1573 C933,963.1573 933,963.1573 948,963.1573 L958,963.1573 " fill="none" style="stroke: #A80036; stroke-width: 1.0;"/><path d="M782,751.5742 L792,751.5742 C807,751.5742 807,963.1573 822,963.1573 L832,963.1573 " fill="none" style="stroke: #A80036; stroke-width: 1.0;"/><rect fill="#FEFECE" filter="url(#fpl37p0ghlw9f)" height="40.2719" rx="12.5" ry="12.5" style="stroke: #A80036; stroke-width: 1.5;" width="37" x="832" y="1220.7888"/><text fill="#000000" font-family="sans-serif" font-size="14" lengthAdjust="spacingAndGlyphs" textLength="17" x="842" y="1247.0287">git</text><rect fill="#FEFECE" filter="url(#fpl37p0ghlw9f)" height="40.2719" rx="12.5" ry="12.5" style="stroke: #A80036; stroke-width: 1.5;" width="120" x="919" y="1039.9731"/><text fill="#000000" font-family="sans-serif" font-size="14" lengthAdjust="spacingAndGlyphs" textLength="100" x="929" y="1066.213">github创建项目</text><path d="M869,1240.9248 L879,1240.9248 C894,1240.9248 894,1060.109 909,1060.109 L919,1060.109 " fill="none" style="stroke: #A80036; stroke-width: 1.0;"/><rect fill="#FEFECE" filter="url(#fpl37p0ghlw9f)" height="40.2719" rx="12.5" ry="12.5" style="stroke: #A80036; stroke-width: 1.5;" width="71" x="919" y="1100.245"/><text fill="#000000" font-family="sans-serif" font-size="14" lengthAdjust="spacingAndGlyphs" textLength="51" x="929" y="1126.4849">ssh-key</text><path d="M869,1240.9248 L879,1240.9248 C894,1240.9248 894,1120.381 909,1120.381 L919,1120.381 " fill="none" style="stroke: #A80036; stroke-width: 1.0;"/><rect fill="#FEFECE" filter="url(#fpl37p0ghlw9f)" height="40.2719" rx="12.5" ry="12.5" style="stroke: #A80036; stroke-width: 1.5;" width="93" x="919" y="1250.9248"/><text fill="#000000" font-family="sans-serif" font-size="14" lengthAdjust="spacingAndGlyphs" textLength="73" x="929" y="1277.1647">git项目管理</text><rect fill="#FEFECE" filter="url(#fpl37p0ghlw9f)" height="40.2719" rx="12.5" ry="12.5" style="stroke: #A80036; stroke-width: 1.5;" width="42" x="1062" y="1100.245"/><text fill="#000000" font-family="sans-serif" font-size="14" lengthAdjust="spacingAndGlyphs" textLength="22" x="1072" y="1126.4849">init</text><path d="M1012,1271.0607 L1022,1271.0607 C1037,1271.0607 1037,1120.381 1052,1120.381 L1062,1120.381 " fill="none" style="stroke: #A80036; stroke-width: 1.0;"/><rect fill="#FEFECE" filter="url(#fpl37p0ghlw9f)" height="40.2719" rx="12.5" ry="12.5" style="stroke: #A80036; stroke-width: 1.5;" width="56" x="1062" y="1160.5169"/><text fill="#000000" font-family="sans-serif" font-size="14" lengthAdjust="spacingAndGlyphs" textLength="36" x="1072" y="1186.7568">clone</text><path d="M1012,1271.0607 L1022,1271.0607 C1037,1271.0607 1037,1180.6529 1052,1180.6529 L1062,1180.6529 " fill="none" style="stroke: #A80036; stroke-width: 1.0;"/><rect fill="#FEFECE" filter="url(#fpl37p0ghlw9f)" height="40.2719" rx="12.5" ry="12.5" style="stroke: #A80036; stroke-width: 1.5;" width="46" x="1062" y="1220.7888"/><text fill="#000000" font-family="sans-serif" font-size="14" lengthAdjust="spacingAndGlyphs" textLength="26" x="1072" y="1247.0287">add</text><path d="M1012,1271.0607 L1022,1271.0607 C1037,1271.0607 1037,1240.9248 1052,1240.9248 L1062,1240.9248 " fill="none" style="stroke: #A80036; stroke-width: 1.0;"/><rect fill="#FEFECE" filter="url(#fpl37p0ghlw9f)" height="40.2719" rx="12.5" ry="12.5" style="stroke: #A80036; stroke-width: 1.5;" width="70" x="1062" y="1281.0607"/><text fill="#000000" font-family="sans-serif" font-size="14" lengthAdjust="spacingAndGlyphs" textLength="50" x="1072" y="1307.3007">commit</text><path d="M1012,1271.0607 L1022,1271.0607 C1037,1271.0607 1037,1301.1967 1052,1301.1967 L1062,1301.1967 " fill="none" style="stroke: #A80036; stroke-width: 1.0;"/><rect fill="#FEFECE" filter="url(#fpl37p0ghlw9f)" height="40.2719" rx="12.5" ry="12.5" style="stroke: #A80036; stroke-width: 1.5;" width="54" x="1062" y="1341.3326"/><text fill="#000000" font-family="sans-serif" font-size="14" lengthAdjust="spacingAndGlyphs" textLength="34" x="1072" y="1367.5726">push</text><path d="M1012,1271.0607 L1022,1271.0607 C1037,1271.0607 1037,1361.4686 1052,1361.4686 L1062,1361.4686 " fill="none" style="stroke: #A80036; stroke-width: 1.0;"/><rect fill="#FEFECE" filter="url(#fpl37p0ghlw9f)" height="40.2719" rx="12.5" ry="12.5" style="stroke: #A80036; stroke-width: 1.5;" width="46" x="1062" y="1401.6046"/><text fill="#000000" font-family="sans-serif" font-size="14" lengthAdjust="spacingAndGlyphs" textLength="26" x="1072" y="1427.8445">pull</text><path d="M1012,1271.0607 L1022,1271.0607 C1037,1271.0607 1037,1421.7405 1052,1421.7405 L1062,1421.7405 " fill="none" style="stroke: #A80036; stroke-width: 1.0;"/><path d="M869,1240.9248 L879,1240.9248 C894,1240.9248 894,1271.0607 909,1271.0607 L919,1271.0607 " fill="none" style="stroke: #A80036; stroke-width: 1.0;"/><path d="M782,751.5742 L792,751.5742 C807,751.5742 807,1240.9248 822,1240.9248 L832,1240.9248 " fill="none" style="stroke: #A80036; stroke-width: 1.0;"/><rect fill="#FEFECE" filter="url(#fpl37p0ghlw9f)" height="40.2719" rx="12.5" ry="12.5" style="stroke: #A80036; stroke-width: 1.5;" width="76" x="538" y="701.3023"/><text fill="#000000" font-family="sans-serif" font-size="14" lengthAdjust="spacingAndGlyphs" textLength="56" x="548" y="727.5422">核心工具</text><rect fill="#FEFECE" filter="url(#fpl37p0ghlw9f)" height="40.2719" rx="12.5" ry="12.5" style="stroke: #A80036; stroke-width: 1.5;" width="48" x="440" y="617.1225"/><text fill="#000000" font-family="sans-serif" font-size="14" lengthAdjust="spacingAndGlyphs" textLength="28" x="450" y="643.3624">终端</text><rect fill="#FEFECE" filter="url(#fpl37p0ghlw9f)" height="40.2719" rx="12.5" ry="12.5" style="stroke: #A80036; stroke-width: 1.5;" width="76" x="314" y="586.9865"/><text fill="#000000" font-family="sans-serif" font-size="14" lengthAdjust="spacingAndGlyphs" textLength="56" x="324" y="613.2265">terminal</text><path d="M440,637.2585 L430,637.2585 C415,637.2585 415,607.1225 400,607.1225 L390,607.1225 " fill="none" style="stroke: #A80036; stroke-width: 1.0;"/><rect fill="#FEFECE" filter="url(#fpl37p0ghlw9f)" height="40.2719" rx="12.5" ry="12.5" style="stroke: #A80036; stroke-width: 1.5;" width="58" x="332" y="647.2585"/><text fill="#000000" font-family="sans-serif" font-size="14" lengthAdjust="spacingAndGlyphs" textLength="38" x="342" y="673.4984">iTerm</text><path d="M440,637.2585 L430,637.2585 C415,637.2585 415,667.3944 400,667.3944 L390,667.3944 " fill="none" style="stroke: #A80036; stroke-width: 1.0;"/><path d="M538,721.4382 L528,721.4382 C513,721.4382 513,637.2585 498,637.2585 L488,637.2585 " fill="none" style="stroke: #A80036; stroke-width: 1.0;"/><rect fill="#FEFECE" filter="url(#fpl37p0ghlw9f)" height="40.2719" rx="12.5" ry="12.5" style="stroke: #A80036; stroke-width: 1.5;" width="62" x="426" y="707.5304"/><text fill="#000000" font-family="sans-serif" font-size="14" lengthAdjust="spacingAndGlyphs" textLength="42" x="436" y="733.7703">浏览器</text><rect fill="#FEFECE" filter="url(#fpl37p0ghlw9f)" height="40.2719" rx="12.5" ry="12.5" style="stroke: #A80036; stroke-width: 1.5;" width="70" x="306" y="707.5304"/><text fill="#000000" font-family="sans-serif" font-size="14" lengthAdjust="spacingAndGlyphs" textLength="50" x="316" y="733.7703">chrome</text><path d="M426,727.6663 L416,727.6663 C401,727.6663 401,727.6663 386,727.6663 L376,727.6663 " fill="none" style="stroke: #A80036; stroke-width: 1.0;"/><path d="M538,721.4382 L528,721.4382 C513,721.4382 513,727.6663 498,727.6663 L488,727.6663 " fill="none" style="stroke: #A80036; stroke-width: 1.0;"/><rect fill="#FEFECE" filter="url(#fpl37p0ghlw9f)" height="40.2719" rx="12.5" ry="12.5" style="stroke: #A80036; stroke-width: 1.5;" width="62" x="426" y="791.7101"/><text fill="#000000" font-family="sans-serif" font-size="14" lengthAdjust="spacingAndGlyphs" textLength="42" x="436" y="817.9501">编辑器</text><rect fill="#FEFECE" filter="url(#fpl37p0ghlw9f)" height="60.5438" rx="12.5" ry="12.5" style="stroke: #A80036; stroke-width: 1.5;" width="160" x="216" y="781.5742"/><text fill="#000000" font-family="sans-serif" font-size="14" lengthAdjust="spacingAndGlyphs" textLength="126" x="226" y="807.8141">用键盘完成所有操作</text><text fill="#000000" font-family="sans-serif" font-size="14" lengthAdjust="spacingAndGlyphs" textLength="140" x="226" y="828.086">（少用鼠标和触摸板）</text><text fill="#000000" font-family="sans-serif" font-size="14" lengthAdjust="spacingAndGlyphs" textLength="43" x="120" y="775.0422">emacs</text><path d="M216,811.8461 L206,811.8461 C191,811.8461 191,768.9382 176,768.9382 L166,768.9382 " fill="none" style="stroke: #A80036; stroke-width: 1.0;"/><text fill="#000000" font-family="sans-serif" font-size="14" lengthAdjust="spacingAndGlyphs" textLength="24" x="139" y="797.3141">vim</text><path d="M216,811.8461 L206,811.8461 C191,811.8461 191,791.2101 176,791.2101 L166,791.2101 " fill="none" style="stroke: #A80036; stroke-width: 1.0;"/><rect fill="#FEFECE" filter="url(#fpl37p0ghlw9f)" height="40.2719" rx="12.5" ry="12.5" style="stroke: #A80036; stroke-width: 1.5;" width="48" x="118" y="812.3461"/><text fill="#000000" font-family="sans-serif" font-size="14" lengthAdjust="spacingAndGlyphs" textLength="28" x="128" y="838.586">其他</text><text fill="#000000" font-family="sans-serif" font-size="14" lengthAdjust="spacingAndGlyphs" textLength="55" x="10" y="816.3141">Sublime</text><path d="M118,832.4821 L108,832.4821 C93,832.4821 93,810.2101 78,810.2101 L68,810.2101 " fill="none" style="stroke: #A80036; stroke-width: 1.0;"/><text fill="#000000" font-family="sans-serif" font-size="14" lengthAdjust="spacingAndGlyphs" textLength="55" x="10" y="838.586">VS-Code</text><path d="M118,832.4821 L108,832.4821 C93,832.4821 93,832.4821 78,832.4821 L68,832.4821 " fill="none" style="stroke: #A80036; stroke-width: 1.0;"/><text fill="#000000" font-family="sans-serif" font-size="14" lengthAdjust="spacingAndGlyphs" textLength="35" x="30" y="860.8579">Atom</text><path d="M118,832.4821 L108,832.4821 C93,832.4821 93,854.754 78,854.754 L68,854.754 " fill="none" style="stroke: #A80036; stroke-width: 1.0;"/><path d="M216,811.8461 L206,811.8461 C191,811.8461 191,832.4821 176,832.4821 L166,832.4821 " fill="none" style="stroke: #A80036; stroke-width: 1.0;"/><path d="M426,811.8461 L416,811.8461 C401,811.8461 401,811.8461 386,811.8461 L376,811.8461 " fill="none" style="stroke: #A80036; stroke-width: 1.0;"/><path d="M538,721.4382 L528,721.4382 C513,721.4382 513,811.8461 498,811.8461 L488,811.8461 " fill="none" style="stroke: #A80036; stroke-width: 1.0;"/><path d="M664,751.5742 L654,751.5742 C639,751.5742 639,721.4382 624,721.4382 L614,721.4382 " fill="none" style="stroke: #A80036; stroke-width: 1.0;"/><rect fill="#FEFECE" filter="url(#fpl37p0ghlw9f)" height="40.2719" rx="12.5" ry="12.5" style="stroke: #A80036; stroke-width: 1.5;" width="104" x="510" y="875.8899"/><text fill="#000000" font-family="sans-serif" font-size="14" lengthAdjust="spacingAndGlyphs" textLength="84" x="520" y="902.1299">问问题的技巧</text><text fill="#000000" font-family="sans-serif" font-size="14" lengthAdjust="spacingAndGlyphs" textLength="56" x="401" y="890.9939">少用百度</text><path d="M510,896.0259 L500,896.0259 C485,896.0259 485,884.8899 470,884.8899 L460,884.8899 " fill="none" style="stroke: #A80036; stroke-width: 1.0;"/><text fill="#000000" font-family="sans-serif" font-size="14" lengthAdjust="spacingAndGlyphs" textLength="98" x="359" y="913.2658">搜索什么关键词</text><path d="M510,896.0259 L500,896.0259 C485,896.0259 485,907.1618 470,907.1618 L460,907.1618 " fill="none" style="stroke: #A80036; stroke-width: 1.0;"/><path d="M664,751.5742 L654,751.5742 C639,751.5742 639,896.0259 624,896.0259 L614,896.0259 " fill="none" style="stroke: #A80036; stroke-width: 1.0;"/><!--MD5=[94d82aa3d586f71ce2dfc577a4c70d2d]
@startmindmap
title 预备课学习路线
* 预备课必备知识
** linux文件和目录
*** 变更和查看工作目录
**** pwd(print working directory)
**** cd(change directory)
*****_ ./
*****_ ../
*****_ -
*****_ ~
****_ ls(list)
*** 文件和文件夹操作
****_ touch
****_ mkdir
****_ cp
****_ mv
****_ rm
****_ cat
****_ more
****_ find
****_ grep
*** 修改文件的权限
****_ chmod
****_ chgrp
****_ chown
** linux如何执行命令
*** $PATH
*** 指明文件的路径
****_ 绝对路径
****_ 相对路径
** 命令行快捷键
***_ 移动光标
***_ 删除
***_ 上一条下一条命令
***_ 搜索历史命令
** 笔记
*** 找一个好的笔记软件
**** 有道云
**** 直接用github
*** markdown语法
*** markdown编辑器
****_ Typora
** 软件管理
*** brew
****_ list
****_ install
****_ uninstall
****_ search
****_ upgrade
****_ update
** git
*** github创建项目
*** ssh-key
*** git项目管理
**** init
**** clone
**** add
**** commit
**** push
**** pull
left side
** 核心工具
*** 终端
**** terminal
**** iTerm
*** 浏览器
**** chrome
*** 编辑器
**** 用键盘完成所有操作\n（少用鼠标和触摸板）
*****_ emacs
*****_ vim
***** 其他
******_ Sublime
******_ VS-Code
******_ Atom
** 问问题的技巧
***_ 少用百度
***_ 搜索什么关键词
@endmindmap

PlantUML version 1.2020.06(Sun Apr 05 20:38:32 CST 2020)
(GPL source distribution)
Java Runtime: OpenJDK Runtime Environment
JVM: OpenJDK 64-Bit Server VM
Java Version: 11.0.7+10-post-Ubuntu-2ubuntu219.10
Operating System: Linux
Default Encoding: UTF-8
Language: en
Country: US
--></g></svg>