<?xml version="1.0" encoding="UTF-8" standalone="no"?><svg xmlns="http://www.w3.org/2000/svg" xmlns:xlink="http://www.w3.org/1999/xlink" contentScriptType="application/ecmascript" contentStyleType="text/css" height="1332px" preserveAspectRatio="none" style="width:1435px;height:1332px;" version="1.1" viewBox="0 0 1435 1332" width="1435px" zoomAndPan="magnify"><defs><filter height="300%" id="f1lrnzm7u7kx9c" width="300%" x="-1" y="-1"><feGaussianBlur result="blurOut" stdDeviation="2.0"/><feColorMatrix in="blurOut" result="blurOut2" type="matrix" values="0 0 0 0 0 0 0 0 0 0 0 0 0 0 0 0 0 0 .4 0"/><feOffset dx="4.0" dy="4.0" in="blurOut2" result="blurOut3"/><feBlend in="SourceGraphic" in2="blurOut3" mode="normal"/></filter></defs><g><rect fill="none" height="30.2719" style="stroke: none; stroke-width: 1.0;" width="108" x="612" y="15"/><text fill="#000000" font-family="sans-serif" font-size="14" font-weight="bold" lengthAdjust="spacingAndGlyphs" textLength="98" x="617" y="36.2399">预备课学习路线</text><rect fill="#FEFECE" filter="url(#f1lrnzm7u7kx9c)" height="40.2719" rx="12.5" ry="12.5" style="stroke: #A80036; stroke-width: 1.5;" width="118" x="664" y="671.1663"/><text fill="#000000" font-family="sans-serif" font-size="14" lengthAdjust="spacingAndGlyphs" textLength="98" x="674" y="697.4063">预备课必备知识</text><rect fill="#FEFECE" filter="url(#f1lrnzm7u7kx9c)" height="40.2719" rx="12.5" ry="12.5" style="stroke: #A80036; stroke-width: 1.5;" width="123" x="832" y="243.3792"/><text fill="#000000" font-family="sans-serif" font-size="14" lengthAdjust="spacingAndGlyphs" textLength="103" x="842" y="269.6192">linux文件和目录</text><rect fill="#FEFECE" filter="url(#f1lrnzm7u7kx9c)" height="40.2719" rx="12.5" ry="12.5" style="stroke: #A80036; stroke-width: 1.5;" width="146" x="1005" y="109.7478"/><text fill="#000000" font-family="sans-serif" font-size="14" lengthAdjust="spacingAndGlyphs" textLength="126" x="1015" y="135.9877">变更和查看工作目录</text><rect fill="#FEFECE" filter="url(#f1lrnzm7u7kx9c)" height="40.2719" rx="12.5" ry="12.5" style="stroke: #A80036; stroke-width: 1.5;" width="208" x="1201" y="61.2719"/><text fill="#000000" font-family="sans-serif" font-size="14" lengthAdjust="spacingAndGlyphs" textLength="188" x="1211" y="87.5118">pwd(print working directory)</text><path d="M1151,129.8837 L1161,129.8837 C1176,129.8837 1176,81.4079 1191,81.4079 L1201,81.4079 " fill="none" style="stroke: #A80036; stroke-width: 1.0;"/><rect fill="#FEFECE" filter="url(#f1lrnzm7u7kx9c)" height="40.2719" rx="12.5" ry="12.5" style="stroke: #A80036; stroke-width: 1.5;" width="156" x="1201" y="135.9517"/><text fill="#000000" font-family="sans-serif" font-size="14" lengthAdjust="spacingAndGlyphs" textLength="136" x="1211" y="162.1916">cd(change directory)</text><text fill="#000000" font-family="sans-serif" font-size="14" lengthAdjust="spacingAndGlyphs" textLength="9" x="1410" y="128.7838">./</text><path d="M1357,156.0876 L1367,156.0876 C1382,156.0876 1382,122.6798 1397,122.6798 L1407,122.6798 " fill="none" style="stroke: #A80036; stroke-width: 1.0;"/><text fill="#000000" font-family="sans-serif" font-size="14" lengthAdjust="spacingAndGlyphs" textLength="13" x="1410" y="151.0557">../</text><path d="M1357,156.0876 L1367,156.0876 C1382,156.0876 1382,144.9517 1397,144.9517 L1407,144.9517 " fill="none" style="stroke: #A80036; stroke-width: 1.0;"/><text fill="#000000" font-family="sans-serif" font-size="14" lengthAdjust="spacingAndGlyphs" textLength="5" x="1410" y="173.3276">-</text><path d="M1357,156.0876 L1367,156.0876 C1382,156.0876 1382,167.2236 1397,167.2236 L1407,167.2236 " fill="none" style="stroke: #A80036; stroke-width: 1.0;"/><text fill="#000000" font-family="sans-serif" font-size="14" lengthAdjust="spacingAndGlyphs" textLength="8" x="1410" y="195.5995">~</text><path d="M1357,156.0876 L1367,156.0876 C1382,156.0876 1382,189.4955 1397,189.4955 L1407,189.4955 " fill="none" style="stroke: #A80036; stroke-width: 1.0;"/><path d="M1151,129.8837 L1161,129.8837 C1176,129.8837 1176,156.0876 1191,156.0876 L1201,156.0876 " fill="none" style="stroke: #A80036; stroke-width: 1.0;"/><text fill="#000000" font-family="sans-serif" font-size="14" lengthAdjust="spacingAndGlyphs" textLength="41" x="1204" y="203.4635">ls(list)</text><path d="M1151,129.8837 L1161,129.8837 C1176,129.8837 1176,197.3596 1191,197.3596 L1201,197.3596 " fill="none" style="stroke: #A80036; stroke-width: 1.0;"/><path d="M955,263.5152 L965,263.5152 C980,263.5152 980,129.8837 995,129.8837 L1005,129.8837 " fill="none" style="stroke: #A80036; stroke-width: 1.0;"/><rect fill="#FEFECE" filter="url(#f1lrnzm7u7kx9c)" height="40.2719" rx="12.5" ry="12.5" style="stroke: #A80036; stroke-width: 1.5;" width="132" x="1005" y="288.5832"/><text fill="#000000" font-family="sans-serif" font-size="14" lengthAdjust="spacingAndGlyphs" textLength="112" x="1015" y="314.8231">文件和文件夹操作</text><text fill="#000000" font-family="sans-serif" font-size="14" lengthAdjust="spacingAndGlyphs" textLength="38" x="1190" y="225.7354">touch</text><path d="M1137,308.7191 L1147,308.7191 C1162,308.7191 1162,219.6315 1177,219.6315 L1187,219.6315 " fill="none" style="stroke: #A80036; stroke-width: 1.0;"/><text fill="#000000" font-family="sans-serif" font-size="14" lengthAdjust="spacingAndGlyphs" textLength="39" x="1190" y="248.0074">mkdir</text><path d="M1137,308.7191 L1147,308.7191 C1162,308.7191 1162,241.9034 1177,241.9034 L1187,241.9034 " fill="none" style="stroke: #A80036; stroke-width: 1.0;"/><text fill="#000000" font-family="sans-serif" font-size="14" lengthAdjust="spacingAndGlyphs" textLength="16" x="1190" y="270.2793">cp</text><path d="M1137,308.7191 L1147,308.7191 C1162,308.7191 1162,264.1753 1177,264.1753 L1187,264.1753 " fill="none" style="stroke: #A80036; stroke-width: 1.0;"/><text fill="#000000" font-family="sans-serif" font-size="14" lengthAdjust="spacingAndGlyphs" textLength="20" x="1190" y="292.5512">mv</text><path d="M1137,308.7191 L1147,308.7191 C1162,308.7191 1162,286.4472 1177,286.4472 L1187,286.4472 " fill="none" style="stroke: #A80036; stroke-width: 1.0;"/><text fill="#000000" font-family="sans-serif" font-size="14" lengthAdjust="spacingAndGlyphs" textLength="18" x="1190" y="314.8231">rm</text><path d="M1137,308.7191 L1147,308.7191 C1162,308.7191 1162,308.7191 1177,308.7191 L1187,308.7191 " fill="none" style="stroke: #A80036; stroke-width: 1.0;"/><text fill="#000000" font-family="sans-serif" font-size="14" lengthAdjust="spacingAndGlyphs" textLength="20" x="1190" y="337.095">cat</text><path d="M1137,308.7191 L1147,308.7191 C1162,308.7191 1162,330.991 1177,330.991 L1187,330.991 " fill="none" style="stroke: #A80036; stroke-width: 1.0;"/><text fill="#000000" font-family="sans-serif" font-size="14" lengthAdjust="spacingAndGlyphs" textLength="34" x="1190" y="359.3669">more</text><path d="M1137,308.7191 L1147,308.7191 C1162,308.7191 1162,353.2629 1177,353.2629 L1187,353.2629 " fill="none" style="stroke: #A80036; stroke-width: 1.0;"/><text fill="#000000" font-family="sans-serif" font-size="14" lengthAdjust="spacingAndGlyphs" textLength="27" x="1190" y="381.6388">find</text><path d="M1137,308.7191 L1147,308.7191 C1162,308.7191 1162,375.5349 1177,375.5349 L1187,375.5349 " fill="none" style="stroke: #A80036; stroke-width: 1.0;"/><text fill="#000000" font-family="sans-serif" font-size="14" lengthAdjust="spacingAndGlyphs" textLength="30" x="1190" y="403.9107">grep</text><path d="M1137,308.7191 L1147,308.7191 C1162,308.7191 1162,397.8068 1177,397.8068 L1187,397.8068 " fill="none" style="stroke: #A80036; stroke-width: 1.0;"/><path d="M955,263.5152 L965,263.5152 C980,263.5152 980,308.7191 995,308.7191 L1005,308.7191 " fill="none" style="stroke: #A80036; stroke-width: 1.0;"/><rect fill="#FEFECE" filter="url(#f1lrnzm7u7kx9c)" height="40.2719" rx="12.5" ry="12.5" style="stroke: #A80036; stroke-width: 1.5;" width="118" x="1005" y="422.2146"/><text fill="#000000" font-family="sans-serif" font-size="14" lengthAdjust="spacingAndGlyphs" textLength="98" x="1015" y="448.4546">修改文件的权限</text><text fill="#000000" font-family="sans-serif" font-size="14" lengthAdjust="spacingAndGlyphs" textLength="46" x="1176" y="426.1826">chmod</text><path d="M1123,442.3506 L1133,442.3506 C1148,442.3506 1148,420.0787 1163,420.0787 L1173,420.0787 " fill="none" style="stroke: #A80036; stroke-width: 1.0;"/><text fill="#000000" font-family="sans-serif" font-size="14" lengthAdjust="spacingAndGlyphs" textLength="38" x="1176" y="448.4546">chgrp</text><path d="M1123,442.3506 L1133,442.3506 C1148,442.3506 1148,442.3506 1163,442.3506 L1173,442.3506 " fill="none" style="stroke: #A80036; stroke-width: 1.0;"/><text fill="#000000" font-family="sans-serif" font-size="14" lengthAdjust="spacingAndGlyphs" textLength="44" x="1176" y="470.7265">chown</text><path d="M1123,442.3506 L1133,442.3506 C1148,442.3506 1148,464.6225 1163,464.6225 L1173,464.6225 " fill="none" style="stroke: #A80036; stroke-width: 1.0;"/><path d="M955,263.5152 L965,263.5152 C980,263.5152 980,442.3506 995,442.3506 L1005,442.3506 " fill="none" style="stroke: #A80036; stroke-width: 1.0;"/><path d="M782,691.3023 L792,691.3023 C807,691.3023 807,263.5152 822,263.5152 L832,263.5152 " fill="none" style="stroke: #A80036; stroke-width: 1.0;"/><rect fill="#FEFECE" filter="url(#f1lrnzm7u7kx9c)" height="40.2719" rx="12.5" ry="12.5" style="stroke: #A80036; stroke-width: 1.5;" width="104" x="832" y="500.1663"/><text fill="#000000" font-family="sans-serif" font-size="14" lengthAdjust="spacingAndGlyphs" textLength="84" x="842" y="526.4063">命令行快捷键</text><text fill="#000000" font-family="sans-serif" font-size="14" lengthAdjust="spacingAndGlyphs" textLength="56" x="989" y="492.9984">移动光标</text><path d="M936,520.3023 L946,520.3023 C961,520.3023 961,486.8944 976,486.8944 L986,486.8944 " fill="none" style="stroke: #A80036; stroke-width: 1.0;"/><text fill="#000000" font-family="sans-serif" font-size="14" lengthAdjust="spacingAndGlyphs" textLength="28" x="989" y="515.2703">删除</text><path d="M936,520.3023 L946,520.3023 C961,520.3023 961,509.1663 976,509.1663 L986,509.1663 " fill="none" style="stroke: #A80036; stroke-width: 1.0;"/><text fill="#000000" font-family="sans-serif" font-size="14" lengthAdjust="spacingAndGlyphs" textLength="112" x="989" y="537.5422">上一条下一条命令</text><path d="M936,520.3023 L946,520.3023 C961,520.3023 961,531.4382 976,531.4382 L986,531.4382 " fill="none" style="stroke: #A80036; stroke-width: 1.0;"/><text fill="#000000" font-family="sans-serif" font-size="14" lengthAdjust="spacingAndGlyphs" textLength="84" x="989" y="559.8141">搜索历史命令</text><path d="M936,520.3023 L946,520.3023 C961,520.3023 961,553.7101 976,553.7101 L986,553.7101 " fill="none" style="stroke: #A80036; stroke-width: 1.0;"/><path d="M782,691.3023 L792,691.3023 C807,691.3023 807,520.3023 822,520.3023 L832,520.3023 " fill="none" style="stroke: #A80036; stroke-width: 1.0;"/><rect fill="#FEFECE" filter="url(#f1lrnzm7u7kx9c)" height="40.2719" rx="12.5" ry="12.5" style="stroke: #A80036; stroke-width: 1.5;" width="48" x="832" y="650.186"/><text fill="#000000" font-family="sans-serif" font-size="14" lengthAdjust="spacingAndGlyphs" textLength="28" x="842" y="676.4259">笔记</text><rect fill="#FEFECE" filter="url(#f1lrnzm7u7kx9c)" height="40.2719" rx="12.5" ry="12.5" style="stroke: #A80036; stroke-width: 1.5;" width="146" x="930" y="604.9821"/><text fill="#000000" font-family="sans-serif" font-size="14" lengthAdjust="spacingAndGlyphs" textLength="126" x="940" y="631.222">找一个好的笔记软件</text><rect fill="#FEFECE" filter="url(#f1lrnzm7u7kx9c)" height="40.2719" rx="12.5" ry="12.5" style="stroke: #A80036; stroke-width: 1.5;" width="62" x="1126" y="574.8461"/><text fill="#000000" font-family="sans-serif" font-size="14" lengthAdjust="spacingAndGlyphs" textLength="42" x="1136" y="601.086">有道云</text><path d="M1076,625.118 L1086,625.118 C1101,625.118 1101,594.9821 1116,594.9821 L1126,594.9821 " fill="none" style="stroke: #A80036; stroke-width: 1.0;"/><rect fill="#FEFECE" filter="url(#f1lrnzm7u7kx9c)" height="40.2719" rx="12.5" ry="12.5" style="stroke: #A80036; stroke-width: 1.5;" width="106" x="1126" y="635.118"/><text fill="#000000" font-family="sans-serif" font-size="14" lengthAdjust="spacingAndGlyphs" textLength="86" x="1136" y="661.3579">直接用github</text><path d="M1076,625.118 L1086,625.118 C1101,625.118 1101,655.254 1116,655.254 L1126,655.254 " fill="none" style="stroke: #A80036; stroke-width: 1.0;"/><path d="M880,670.3219 L890,670.3219 C905,670.3219 905,625.118 920,625.118 L930,625.118 " fill="none" style="stroke: #A80036; stroke-width: 1.0;"/><rect fill="#FEFECE" filter="url(#f1lrnzm7u7kx9c)" height="40.2719" rx="12.5" ry="12.5" style="stroke: #A80036; stroke-width: 1.5;" width="119" x="930" y="665.254"/><text fill="#000000" font-family="sans-serif" font-size="14" lengthAdjust="spacingAndGlyphs" textLength="99" x="940" y="691.4939">markdown语法</text><path d="M880,670.3219 L890,670.3219 C905,670.3219 905,685.3899 920,685.3899 L930,685.3899 " fill="none" style="stroke: #A80036; stroke-width: 1.0;"/><rect fill="#FEFECE" filter="url(#f1lrnzm7u7kx9c)" height="40.2719" rx="12.5" ry="12.5" style="stroke: #A80036; stroke-width: 1.5;" width="133" x="930" y="725.5259"/><text fill="#000000" font-family="sans-serif" font-size="14" lengthAdjust="spacingAndGlyphs" textLength="113" x="940" y="751.7658">markdown编辑器</text><text fill="#000000" font-family="sans-serif" font-size="14" lengthAdjust="spacingAndGlyphs" textLength="45" x="1116" y="751.7658">Typora</text><path d="M1063,745.6618 L1073,745.6618 C1088,745.6618 1088,745.6618 1103,745.6618 L1113,745.6618 " fill="none" style="stroke: #A80036; stroke-width: 1.0;"/><path d="M880,670.3219 L890,670.3219 C905,670.3219 905,745.6618 920,745.6618 L930,745.6618 " fill="none" style="stroke: #A80036; stroke-width: 1.0;"/><path d="M782,691.3023 L792,691.3023 C807,691.3023 807,670.3219 822,670.3219 L832,670.3219 " fill="none" style="stroke: #A80036; stroke-width: 1.0;"/><rect fill="#FEFECE" filter="url(#f1lrnzm7u7kx9c)" height="40.2719" rx="12.5" ry="12.5" style="stroke: #A80036; stroke-width: 1.5;" width="76" x="832" y="822.4776"/><text fill="#000000" font-family="sans-serif" font-size="14" lengthAdjust="spacingAndGlyphs" textLength="56" x="842" y="848.7175">软件管理</text><rect fill="#FEFECE" filter="url(#f1lrnzm7u7kx9c)" height="40.2719" rx="12.5" ry="12.5" style="stroke: #A80036; stroke-width: 1.5;" width="53" x="958" y="822.4776"/><text fill="#000000" font-family="sans-serif" font-size="14" lengthAdjust="spacingAndGlyphs" textLength="33" x="968" y="848.7175">brew</text><text fill="#000000" font-family="sans-serif" font-size="14" lengthAdjust="spacingAndGlyphs" textLength="20" x="1064" y="793.0377">list</text><path d="M1011,842.6135 L1021,842.6135 C1036,842.6135 1036,786.9337 1051,786.9337 L1061,786.9337 " fill="none" style="stroke: #A80036; stroke-width: 1.0;"/><text fill="#000000" font-family="sans-serif" font-size="14" lengthAdjust="spacingAndGlyphs" textLength="41" x="1064" y="815.3096">install</text><path d="M1011,842.6135 L1021,842.6135 C1036,842.6135 1036,809.2057 1051,809.2057 L1061,809.2057 " fill="none" style="stroke: #A80036; stroke-width: 1.0;"/><text fill="#000000" font-family="sans-serif" font-size="14" lengthAdjust="spacingAndGlyphs" textLength="59" x="1064" y="837.5815">uninstall</text><path d="M1011,842.6135 L1021,842.6135 C1036,842.6135 1036,831.4776 1051,831.4776 L1061,831.4776 " fill="none" style="stroke: #A80036; stroke-width: 1.0;"/><text fill="#000000" font-family="sans-serif" font-size="14" lengthAdjust="spacingAndGlyphs" textLength="44" x="1064" y="859.8535">search</text><path d="M1011,842.6135 L1021,842.6135 C1036,842.6135 1036,853.7495 1051,853.7495 L1061,853.7495 " fill="none" style="stroke: #A80036; stroke-width: 1.0;"/><text fill="#000000" font-family="sans-serif" font-size="14" lengthAdjust="spacingAndGlyphs" textLength="56" x="1064" y="882.1254">upgrade</text><path d="M1011,842.6135 L1021,842.6135 C1036,842.6135 1036,876.0214 1051,876.0214 L1061,876.0214 " fill="none" style="stroke: #A80036; stroke-width: 1.0;"/><text fill="#000000" font-family="sans-serif" font-size="14" lengthAdjust="spacingAndGlyphs" textLength="48" x="1064" y="904.3973">update</text><path d="M1011,842.6135 L1021,842.6135 C1036,842.6135 1036,898.2933 1051,898.2933 L1061,898.2933 " fill="none" style="stroke: #A80036; stroke-width: 1.0;"/><path d="M908,842.6135 L918,842.6135 C933,842.6135 933,842.6135 948,842.6135 L958,842.6135 " fill="none" style="stroke: #A80036; stroke-width: 1.0;"/><path d="M782,691.3023 L792,691.3023 C807,691.3023 807,842.6135 822,842.6135 L832,842.6135 " fill="none" style="stroke: #A80036; stroke-width: 1.0;"/><rect fill="#FEFECE" filter="url(#f1lrnzm7u7kx9c)" height="40.2719" rx="12.5" ry="12.5" style="stroke: #A80036; stroke-width: 1.5;" width="37" x="832" y="1100.245"/><text fill="#000000" font-family="sans-serif" font-size="14" lengthAdjust="spacingAndGlyphs" textLength="17" x="842" y="1126.4849">git</text><rect fill="#FEFECE" filter="url(#f1lrnzm7u7kx9c)" height="40.2719" rx="12.5" ry="12.5" style="stroke: #A80036; stroke-width: 1.5;" width="120" x="919" y="919.4293"/><text fill="#000000" font-family="sans-serif" font-size="14" lengthAdjust="spacingAndGlyphs" textLength="100" x="929" y="945.6692">github创建项目</text><path d="M869,1120.381 L879,1120.381 C894,1120.381 894,939.5652 909,939.5652 L919,939.5652 " fill="none" style="stroke: #A80036; stroke-width: 1.0;"/><rect fill="#FEFECE" filter="url(#f1lrnzm7u7kx9c)" height="40.2719" rx="12.5" ry="12.5" style="stroke: #A80036; stroke-width: 1.5;" width="71" x="919" y="979.7012"/><text fill="#000000" font-family="sans-serif" font-size="14" lengthAdjust="spacingAndGlyphs" textLength="51" x="929" y="1005.9411">ssh-key</text><path d="M869,1120.381 L879,1120.381 C894,1120.381 894,999.8371 909,999.8371 L919,999.8371 " fill="none" style="stroke: #A80036; stroke-width: 1.0;"/><rect fill="#FEFECE" filter="url(#f1lrnzm7u7kx9c)" height="40.2719" rx="12.5" ry="12.5" style="stroke: #A80036; stroke-width: 1.5;" width="93" x="919" y="1130.381"/><text fill="#000000" font-family="sans-serif" font-size="14" lengthAdjust="spacingAndGlyphs" textLength="73" x="929" y="1156.6209">git项目管理</text><rect fill="#FEFECE" filter="url(#f1lrnzm7u7kx9c)" height="40.2719" rx="12.5" ry="12.5" style="stroke: #A80036; stroke-width: 1.5;" width="42" x="1062" y="979.7012"/><text fill="#000000" font-family="sans-serif" font-size="14" lengthAdjust="spacingAndGlyphs" textLength="22" x="1072" y="1005.9411">init</text><path d="M1012,1150.5169 L1022,1150.5169 C1037,1150.5169 1037,999.8371 1052,999.8371 L1062,999.8371 " fill="none" style="stroke: #A80036; stroke-width: 1.0;"/><rect fill="#FEFECE" filter="url(#f1lrnzm7u7kx9c)" height="40.2719" rx="12.5" ry="12.5" style="stroke: #A80036; stroke-width: 1.5;" width="56" x="1062" y="1039.9731"/><text fill="#000000" font-family="sans-serif" font-size="14" lengthAdjust="spacingAndGlyphs" textLength="36" x="1072" y="1066.213">clone</text><path d="M1012,1150.5169 L1022,1150.5169 C1037,1150.5169 1037,1060.109 1052,1060.109 L1062,1060.109 " fill="none" style="stroke: #A80036; stroke-width: 1.0;"/><rect fill="#FEFECE" filter="url(#f1lrnzm7u7kx9c)" height="40.2719" rx="12.5" ry="12.5" style="stroke: #A80036; stroke-width: 1.5;" width="46" x="1062" y="1100.245"/><text fill="#000000" font-family="sans-serif" font-size="14" lengthAdjust="spacingAndGlyphs" textLength="26" x="1072" y="1126.4849">add</text><path d="M1012,1150.5169 L1022,1150.5169 C1037,1150.5169 1037,1120.381 1052,1120.381 L1062,1120.381 " fill="none" style="stroke: #A80036; stroke-width: 1.0;"/><rect fill="#FEFECE" filter="url(#f1lrnzm7u7kx9c)" height="40.2719" rx="12.5" ry="12.5" style="stroke: #A80036; stroke-width: 1.5;" width="70" x="1062" y="1160.5169"/><text fill="#000000" font-family="sans-serif" font-size="14" lengthAdjust="spacingAndGlyphs" textLength="50" x="1072" y="1186.7568">commit</text><path d="M1012,1150.5169 L1022,1150.5169 C1037,1150.5169 1037,1180.6529 1052,1180.6529 L1062,1180.6529 " fill="none" style="stroke: #A80036; stroke-width: 1.0;"/><rect fill="#FEFECE" filter="url(#f1lrnzm7u7kx9c)" height="40.2719" rx="12.5" ry="12.5" style="stroke: #A80036; stroke-width: 1.5;" width="54" x="1062" y="1220.7888"/><text fill="#000000" font-family="sans-serif" font-size="14" lengthAdjust="spacingAndGlyphs" textLength="34" x="1072" y="1247.0287">push</text><path d="M1012,1150.5169 L1022,1150.5169 C1037,1150.5169 1037,1240.9248 1052,1240.9248 L1062,1240.9248 " fill="none" style="stroke: #A80036; stroke-width: 1.0;"/><rect fill="#FEFECE" filter="url(#f1lrnzm7u7kx9c)" height="40.2719" rx="12.5" ry="12.5" style="stroke: #A80036; stroke-width: 1.5;" width="46" x="1062" y="1281.0607"/><text fill="#000000" font-family="sans-serif" font-size="14" lengthAdjust="spacingAndGlyphs" textLength="26" x="1072" y="1307.3007">pull</text><path d="M1012,1150.5169 L1022,1150.5169 C1037,1150.5169 1037,1301.1967 1052,1301.1967 L1062,1301.1967 " fill="none" style="stroke: #A80036; stroke-width: 1.0;"/><path d="M869,1120.381 L879,1120.381 C894,1120.381 894,1150.5169 909,1150.5169 L919,1150.5169 " fill="none" style="stroke: #A80036; stroke-width: 1.0;"/><path d="M782,691.3023 L792,691.3023 C807,691.3023 807,1120.381 822,1120.381 L832,1120.381 " fill="none" style="stroke: #A80036; stroke-width: 1.0;"/><rect fill="#FEFECE" filter="url(#f1lrnzm7u7kx9c)" height="40.2719" rx="12.5" ry="12.5" style="stroke: #A80036; stroke-width: 1.5;" width="76" x="538" y="641.0304"/><text fill="#000000" font-family="sans-serif" font-size="14" lengthAdjust="spacingAndGlyphs" textLength="56" x="548" y="667.2703">核心工具</text><rect fill="#FEFECE" filter="url(#f1lrnzm7u7kx9c)" height="40.2719" rx="12.5" ry="12.5" style="stroke: #A80036; stroke-width: 1.5;" width="48" x="440" y="556.8506"/><text fill="#000000" font-family="sans-serif" font-size="14" lengthAdjust="spacingAndGlyphs" textLength="28" x="450" y="583.0905">终端</text><rect fill="#FEFECE" filter="url(#f1lrnzm7u7kx9c)" height="40.2719" rx="12.5" ry="12.5" style="stroke: #A80036; stroke-width: 1.5;" width="76" x="314" y="526.7146"/><text fill="#000000" font-family="sans-serif" font-size="14" lengthAdjust="spacingAndGlyphs" textLength="56" x="324" y="552.9546">terminal</text><path d="M440,576.9865 L430,576.9865 C415,576.9865 415,546.8506 400,546.8506 L390,546.8506 " fill="none" style="stroke: #A80036; stroke-width: 1.0;"/><rect fill="#FEFECE" filter="url(#f1lrnzm7u7kx9c)" height="40.2719" rx="12.5" ry="12.5" style="stroke: #A80036; stroke-width: 1.5;" width="58" x="332" y="586.9865"/><text fill="#000000" font-family="sans-serif" font-size="14" lengthAdjust="spacingAndGlyphs" textLength="38" x="342" y="613.2265">iTerm</text><path d="M440,576.9865 L430,576.9865 C415,576.9865 415,607.1225 400,607.1225 L390,607.1225 " fill="none" style="stroke: #A80036; stroke-width: 1.0;"/><path d="M538,661.1663 L528,661.1663 C513,661.1663 513,576.9865 498,576.9865 L488,576.9865 " fill="none" style="stroke: #A80036; stroke-width: 1.0;"/><rect fill="#FEFECE" filter="url(#f1lrnzm7u7kx9c)" height="40.2719" rx="12.5" ry="12.5" style="stroke: #A80036; stroke-width: 1.5;" width="62" x="426" y="647.2585"/><text fill="#000000" font-family="sans-serif" font-size="14" lengthAdjust="spacingAndGlyphs" textLength="42" x="436" y="673.4984">浏览器</text><rect fill="#FEFECE" filter="url(#f1lrnzm7u7kx9c)" height="40.2719" rx="12.5" ry="12.5" style="stroke: #A80036; stroke-width: 1.5;" width="70" x="306" y="647.2585"/><text fill="#000000" font-family="sans-serif" font-size="14" lengthAdjust="spacingAndGlyphs" textLength="50" x="316" y="673.4984">chrome</text><path d="M426,667.3944 L416,667.3944 C401,667.3944 401,667.3944 386,667.3944 L376,667.3944 " fill="none" style="stroke: #A80036; stroke-width: 1.0;"/><path d="M538,661.1663 L528,661.1663 C513,661.1663 513,667.3944 498,667.3944 L488,667.3944 " fill="none" style="stroke: #A80036; stroke-width: 1.0;"/><rect fill="#FEFECE" filter="url(#f1lrnzm7u7kx9c)" height="40.2719" rx="12.5" ry="12.5" style="stroke: #A80036; stroke-width: 1.5;" width="62" x="426" y="731.4382"/><text fill="#000000" font-family="sans-serif" font-size="14" lengthAdjust="spacingAndGlyphs" textLength="42" x="436" y="757.6782">编辑器</text><rect fill="#FEFECE" filter="url(#f1lrnzm7u7kx9c)" height="60.5438" rx="12.5" ry="12.5" style="stroke: #A80036; stroke-width: 1.5;" width="160" x="216" y="721.3023"/><text fill="#000000" font-family="sans-serif" font-size="14" lengthAdjust="spacingAndGlyphs" textLength="126" x="226" y="747.5422">用键盘完成所有操作</text><text fill="#000000" font-family="sans-serif" font-size="14" lengthAdjust="spacingAndGlyphs" textLength="140" x="226" y="767.8141">（少用鼠标和触摸板）</text><text fill="#000000" font-family="sans-serif" font-size="14" lengthAdjust="spacingAndGlyphs" textLength="43" x="120" y="714.7703">emacs</text><path d="M216,751.5742 L206,751.5742 C191,751.5742 191,708.6663 176,708.6663 L166,708.6663 " fill="none" style="stroke: #A80036; stroke-width: 1.0;"/><text fill="#000000" font-family="sans-serif" font-size="14" lengthAdjust="spacingAndGlyphs" textLength="24" x="139" y="737.0422">vim</text><path d="M216,751.5742 L206,751.5742 C191,751.5742 191,730.9382 176,730.9382 L166,730.9382 " fill="none" style="stroke: #A80036; stroke-width: 1.0;"/><rect fill="#FEFECE" filter="url(#f1lrnzm7u7kx9c)" height="40.2719" rx="12.5" ry="12.5" style="stroke: #A80036; stroke-width: 1.5;" width="48" x="118" y="752.0742"/><text fill="#000000" font-family="sans-serif" font-size="14" lengthAdjust="spacingAndGlyphs" textLength="28" x="128" y="778.3141">其他</text><text fill="#000000" font-family="sans-serif" font-size="14" lengthAdjust="spacingAndGlyphs" textLength="55" x="10" y="756.0422">Sublime</text><path d="M118,772.2101 L108,772.2101 C93,772.2101 93,749.9382 78,749.9382 L68,749.9382 " fill="none" style="stroke: #A80036; stroke-width: 1.0;"/><text fill="#000000" font-family="sans-serif" font-size="14" lengthAdjust="spacingAndGlyphs" textLength="55" x="10" y="778.3141">VS-Code</text><path d="M118,772.2101 L108,772.2101 C93,772.2101 93,772.2101 78,772.2101 L68,772.2101 " fill="none" style="stroke: #A80036; stroke-width: 1.0;"/><text fill="#000000" font-family="sans-serif" font-size="14" lengthAdjust="spacingAndGlyphs" textLength="35" x="30" y="800.586">Atom</text><path d="M118,772.2101 L108,772.2101 C93,772.2101 93,794.4821 78,794.4821 L68,794.4821 " fill="none" style="stroke: #A80036; stroke-width: 1.0;"/><path d="M216,751.5742 L206,751.5742 C191,751.5742 191,772.2101 176,772.2101 L166,772.2101 " fill="none" style="stroke: #A80036; stroke-width: 1.0;"/><path d="M426,751.5742 L416,751.5742 C401,751.5742 401,751.5742 386,751.5742 L376,751.5742 " fill="none" style="stroke: #A80036; stroke-width: 1.0;"/><path d="M538,661.1663 L528,661.1663 C513,661.1663 513,751.5742 498,751.5742 L488,751.5742 " fill="none" style="stroke: #A80036; stroke-width: 1.0;"/><path d="M664,691.3023 L654,691.3023 C639,691.3023 639,661.1663 624,661.1663 L614,661.1663 " fill="none" style="stroke: #A80036; stroke-width: 1.0;"/><rect fill="#FEFECE" filter="url(#f1lrnzm7u7kx9c)" height="40.2719" rx="12.5" ry="12.5" style="stroke: #A80036; stroke-width: 1.5;" width="104" x="510" y="815.618"/><text fill="#000000" font-family="sans-serif" font-size="14" lengthAdjust="spacingAndGlyphs" textLength="84" x="520" y="841.8579">问问题的技巧</text><text fill="#000000" font-family="sans-serif" font-size="14" lengthAdjust="spacingAndGlyphs" textLength="56" x="401" y="830.722">少用百度</text><path d="M510,835.754 L500,835.754 C485,835.754 485,824.618 470,824.618 L460,824.618 " fill="none" style="stroke: #A80036; stroke-width: 1.0;"/><text fill="#000000" font-family="sans-serif" font-size="14" lengthAdjust="spacingAndGlyphs" textLength="98" x="359" y="852.9939">搜索什么关键词</text><path d="M510,835.754 L500,835.754 C485,835.754 485,846.8899 470,846.8899 L460,846.8899 " fill="none" style="stroke: #A80036; stroke-width: 1.0;"/><path d="M664,691.3023 L654,691.3023 C639,691.3023 639,835.754 624,835.754 L614,835.754 " fill="none" style="stroke: #A80036; stroke-width: 1.0;"/><!--MD5=[6f0939afd02782f162a6b948d05130e4]
@startmindmap
title 预备课学习路线
* 预备课必备知识
** linux文件和目录
*** 变更和查看工作目录
**** pwd(print working directory)
**** cd(change directory)
*****_ ./
*****_ ../
*****_ -
*****_ ~
****_ ls(list)
*** 文件和文件夹操作
****_ touch
****_ mkdir
****_ cp
****_ mv
****_ rm
****_ cat
****_ more
****_ find
****_ grep
*** 修改文件的权限
****_ chmod
****_ chgrp
****_ chown
** 命令行快捷键
***_ 移动光标
***_ 删除
***_ 上一条下一条命令
***_ 搜索历史命令
** 笔记
*** 找一个好的笔记软件
**** 有道云
**** 直接用github
*** markdown语法
*** markdown编辑器
****_ Typora
** 软件管理
*** brew
****_ list
****_ install
****_ uninstall
****_ search
****_ upgrade
****_ update
** git
*** github创建项目
*** ssh-key
*** git项目管理
**** init
**** clone
**** add
**** commit
**** push
**** pull
left side
** 核心工具
*** 终端
**** terminal
**** iTerm
*** 浏览器
**** chrome
*** 编辑器
**** 用键盘完成所有操作\n（少用鼠标和触摸板）
*****_ emacs
*****_ vim
***** 其他
******_ Sublime
******_ VS-Code
******_ Atom
** 问问题的技巧
***_ 少用百度
***_ 搜索什么关键词
@endmindmap

PlantUML version 1.2020.06(Sun Apr 05 20:38:32 CST 2020)
(GPL source distribution)
Java Runtime: OpenJDK Runtime Environment
JVM: OpenJDK 64-Bit Server VM
Java Version: 11.0.7+10-post-Ubuntu-2ubuntu219.10
Operating System: Linux
Default Encoding: UTF-8
Language: en
Country: US
--></g></svg>