<?xml version="1.0" encoding="UTF-8" standalone="no"?><svg xmlns="http://www.w3.org/2000/svg" xmlns:xlink="http://www.w3.org/1999/xlink" contentScriptType="application/ecmascript" contentStyleType="text/css" height="573px" preserveAspectRatio="none" style="width:1301px;height:573px;" version="1.1" viewBox="0 0 1301 573" width="1301px" zoomAndPan="magnify"><defs><filter height="300%" id="f13hq9sozitdfa" width="300%" x="-1" y="-1"><feGaussianBlur result="blurOut" stdDeviation="2.0"/><feColorMatrix in="blurOut" result="blurOut2" type="matrix" values="0 0 0 0 0 0 0 0 0 0 0 0 0 0 0 0 0 0 .4 0"/><feOffset dx="4.0" dy="4.0" in="blurOut2" result="blurOut3"/><feBlend in="SourceGraphic" in2="blurOut3" mode="normal"/></filter></defs><g><rect fill="#FEFECE" filter="url(#f13hq9sozitdfa)" height="36.2969" rx="12.5" ry="12.5" style="stroke: #A80036; stroke-width: 1.5;" width="118" x="668" y="273.3359"/><text fill="#000000" font-family="sans-serif" font-size="14" lengthAdjust="spacingAndGlyphs" textLength="98" x="678" y="296.3311">预备课必备知识</text><rect fill="#FEFECE" filter="url(#f13hq9sozitdfa)" height="36.2969" rx="12.5" ry="12.5" style="stroke: #A80036; stroke-width: 1.5;" width="90" x="836" y="76.2969"/><text fill="#000000" font-family="sans-serif" font-size="14" lengthAdjust="spacingAndGlyphs" textLength="70" x="846" y="99.292">命令行操作</text><rect fill="#FEFECE" filter="url(#f13hq9sozitdfa)" height="36.2969" rx="12.5" ry="12.5" style="stroke: #A80036; stroke-width: 1.5;" width="121" x="976" y="48.1484"/><text fill="#000000" font-family="sans-serif" font-size="14" lengthAdjust="spacingAndGlyphs" textLength="101" x="986" y="71.1436">linux文件和目录</text><rect fill="#FEFECE" filter="url(#f13hq9sozitdfa)" height="36.2969" rx="12.5" ry="12.5" style="stroke: #A80036; stroke-width: 1.5;" width="132" x="1147" y="20"/><text fill="#000000" font-family="sans-serif" font-size="14" lengthAdjust="spacingAndGlyphs" textLength="112" x="1157" y="42.9951">文件和文件夹操作</text><path d="M1097,66.2969 L1107,66.2969 C1122,66.2969 1122,38.1484 1137,38.1484 L1147,38.1484 " fill="none" style="stroke: #A80036; stroke-width: 1.0;"/><rect fill="#FEFECE" filter="url(#f13hq9sozitdfa)" height="36.2969" rx="12.5" ry="12.5" style="stroke: #A80036; stroke-width: 1.5;" width="104" x="1147" y="76.2969"/><text fill="#000000" font-family="sans-serif" font-size="14" lengthAdjust="spacingAndGlyphs" textLength="84" x="1157" y="99.292">变更工作目录</text><path d="M1097,66.2969 L1107,66.2969 C1122,66.2969 1122,94.4453 1137,94.4453 L1147,94.4453 " fill="none" style="stroke: #A80036; stroke-width: 1.0;"/><path d="M926,94.4453 L936,94.4453 C951,94.4453 951,66.2969 966,66.2969 L976,66.2969 " fill="none" style="stroke: #A80036; stroke-width: 1.0;"/><rect fill="#FEFECE" filter="url(#f13hq9sozitdfa)" height="36.2969" rx="12.5" ry="12.5" style="stroke: #A80036; stroke-width: 1.5;" width="104" x="976" y="132.5938"/><text fill="#000000" font-family="sans-serif" font-size="14" lengthAdjust="spacingAndGlyphs" textLength="84" x="986" y="155.5889">命令行快捷键</text><rect fill="#FEFECE" filter="url(#f13hq9sozitdfa)" height="36.2969" rx="12.5" ry="12.5" style="stroke: #A80036; stroke-width: 1.5;" width="160" x="1130" y="132.5938"/><text fill="#000000" font-family="sans-serif" font-size="14" lengthAdjust="spacingAndGlyphs" textLength="140" x="1140" y="155.5889">如何让你的操作更快捷</text><path d="M1080,150.7422 L1090,150.7422 C1105,150.7422 1105,150.7422 1120,150.7422 L1130,150.7422 " fill="none" style="stroke: #A80036; stroke-width: 1.0;"/><path d="M926,94.4453 L936,94.4453 C951,94.4453 951,150.7422 966,150.7422 L976,150.7422 " fill="none" style="stroke: #A80036; stroke-width: 1.0;"/><path d="M786,291.4844 L796,291.4844 C811,291.4844 811,94.4453 826,94.4453 L836,94.4453 " fill="none" style="stroke: #A80036; stroke-width: 1.0;"/><rect fill="#FEFECE" filter="url(#f13hq9sozitdfa)" height="36.2969" rx="12.5" ry="12.5" style="stroke: #A80036; stroke-width: 1.5;" width="76" x="836" y="188.8906"/><text fill="#000000" font-family="sans-serif" font-size="14" lengthAdjust="spacingAndGlyphs" textLength="56" x="846" y="211.8857">软件管理</text><rect fill="#FEFECE" filter="url(#f13hq9sozitdfa)" height="36.2969" rx="12.5" ry="12.5" style="stroke: #A80036; stroke-width: 1.5;" width="54" x="962" y="188.8906"/><text fill="#000000" font-family="sans-serif" font-size="14" lengthAdjust="spacingAndGlyphs" textLength="34" x="972" y="211.8857">brew</text><path d="M912,207.0391 L922,207.0391 C937,207.0391 937,207.0391 952,207.0391 L962,207.0391 " fill="none" style="stroke: #A80036; stroke-width: 1.0;"/><path d="M786,291.4844 L796,291.4844 C811,291.4844 811,207.0391 826,207.0391 L836,207.0391 " fill="none" style="stroke: #A80036; stroke-width: 1.0;"/><rect fill="#FEFECE" filter="url(#f13hq9sozitdfa)" height="36.2969" rx="12.5" ry="12.5" style="stroke: #A80036; stroke-width: 1.5;" width="37" x="836" y="385.9297"/><text fill="#000000" font-family="sans-serif" font-size="14" lengthAdjust="spacingAndGlyphs" textLength="17" x="846" y="408.9248">git</text><rect fill="#FEFECE" filter="url(#f13hq9sozitdfa)" height="36.2969" rx="12.5" ry="12.5" style="stroke: #A80036; stroke-width: 1.5;" width="120" x="923" y="245.1875"/><text fill="#000000" font-family="sans-serif" font-size="14" lengthAdjust="spacingAndGlyphs" textLength="100" x="933" y="268.1826">github创建项目</text><path d="M873,404.0781 L883,404.0781 C898,404.0781 898,263.3359 913,263.3359 L923,263.3359 " fill="none" style="stroke: #A80036; stroke-width: 1.0;"/><rect fill="#FEFECE" filter="url(#f13hq9sozitdfa)" height="36.2969" rx="12.5" ry="12.5" style="stroke: #A80036; stroke-width: 1.5;" width="93" x="923" y="414.0781"/><text fill="#000000" font-family="sans-serif" font-size="14" lengthAdjust="spacingAndGlyphs" textLength="73" x="933" y="437.0732">git项目管理</text><rect fill="#FEFECE" filter="url(#f13hq9sozitdfa)" height="36.2969" rx="12.5" ry="12.5" style="stroke: #A80036; stroke-width: 1.5;" width="40" x="1066" y="301.4844"/><text fill="#000000" font-family="sans-serif" font-size="14" lengthAdjust="spacingAndGlyphs" textLength="20" x="1076" y="324.4795">init</text><path d="M1016,432.2266 L1026,432.2266 C1041,432.2266 1041,319.6328 1056,319.6328 L1066,319.6328 " fill="none" style="stroke: #A80036; stroke-width: 1.0;"/><rect fill="#FEFECE" filter="url(#f13hq9sozitdfa)" height="36.2969" rx="12.5" ry="12.5" style="stroke: #A80036; stroke-width: 1.5;" width="58" x="1066" y="357.7813"/><text fill="#000000" font-family="sans-serif" font-size="14" lengthAdjust="spacingAndGlyphs" textLength="38" x="1076" y="380.7764">clone</text><path d="M1016,432.2266 L1026,432.2266 C1041,432.2266 1041,375.9297 1056,375.9297 L1066,375.9297 " fill="none" style="stroke: #A80036; stroke-width: 1.0;"/><rect fill="#FEFECE" filter="url(#f13hq9sozitdfa)" height="36.2969" rx="12.5" ry="12.5" style="stroke: #A80036; stroke-width: 1.5;" width="46" x="1066" y="414.0781"/><text fill="#000000" font-family="sans-serif" font-size="14" lengthAdjust="spacingAndGlyphs" textLength="26" x="1076" y="437.0732">add</text><path d="M1016,432.2266 L1026,432.2266 C1041,432.2266 1041,432.2266 1056,432.2266 L1066,432.2266 " fill="none" style="stroke: #A80036; stroke-width: 1.0;"/><rect fill="#FEFECE" filter="url(#f13hq9sozitdfa)" height="36.2969" rx="12.5" ry="12.5" style="stroke: #A80036; stroke-width: 1.5;" width="71" x="1066" y="470.375"/><text fill="#000000" font-family="sans-serif" font-size="14" lengthAdjust="spacingAndGlyphs" textLength="51" x="1076" y="493.3701">commit</text><path d="M1016,432.2266 L1026,432.2266 C1041,432.2266 1041,488.5234 1056,488.5234 L1066,488.5234 " fill="none" style="stroke: #A80036; stroke-width: 1.0;"/><rect fill="#FEFECE" filter="url(#f13hq9sozitdfa)" height="36.2969" rx="12.5" ry="12.5" style="stroke: #A80036; stroke-width: 1.5;" width="55" x="1066" y="526.6719"/><text fill="#000000" font-family="sans-serif" font-size="14" lengthAdjust="spacingAndGlyphs" textLength="35" x="1076" y="549.667">push</text><path d="M1016,432.2266 L1026,432.2266 C1041,432.2266 1041,544.8203 1056,544.8203 L1066,544.8203 " fill="none" style="stroke: #A80036; stroke-width: 1.0;"/><path d="M873,404.0781 L883,404.0781 C898,404.0781 898,432.2266 913,432.2266 L923,432.2266 " fill="none" style="stroke: #A80036; stroke-width: 1.0;"/><path d="M786,291.4844 L796,291.4844 C811,291.4844 811,404.0781 826,404.0781 L836,404.0781 " fill="none" style="stroke: #A80036; stroke-width: 1.0;"/><rect fill="#FEFECE" filter="url(#f13hq9sozitdfa)" height="36.2969" rx="12.5" ry="12.5" style="stroke: #A80036; stroke-width: 1.5;" width="76" x="542" y="245.1875"/><text fill="#000000" font-family="sans-serif" font-size="14" lengthAdjust="spacingAndGlyphs" textLength="56" x="552" y="268.1826">核心工具</text><rect fill="#FEFECE" filter="url(#f13hq9sozitdfa)" height="36.2969" rx="12.5" ry="12.5" style="stroke: #A80036; stroke-width: 1.5;" width="48" x="444" y="188.8906"/><text fill="#000000" font-family="sans-serif" font-size="14" lengthAdjust="spacingAndGlyphs" textLength="28" x="454" y="211.8857">终端</text><rect fill="#FEFECE" filter="url(#f13hq9sozitdfa)" height="36.2969" rx="12.5" ry="12.5" style="stroke: #A80036; stroke-width: 1.5;" width="75" x="319" y="160.7422"/><text fill="#000000" font-family="sans-serif" font-size="14" lengthAdjust="spacingAndGlyphs" textLength="55" x="329" y="183.7373">terminal</text><path d="M444,207.0391 L434,207.0391 C419,207.0391 419,178.8906 404,178.8906 L394,178.8906 " fill="none" style="stroke: #A80036; stroke-width: 1.0;"/><rect fill="#FEFECE" filter="url(#f13hq9sozitdfa)" height="36.2969" rx="12.5" ry="12.5" style="stroke: #A80036; stroke-width: 1.5;" width="59" x="335" y="217.0391"/><text fill="#000000" font-family="sans-serif" font-size="14" lengthAdjust="spacingAndGlyphs" textLength="39" x="345" y="240.0342">iTerm</text><path d="M444,207.0391 L434,207.0391 C419,207.0391 419,235.1875 404,235.1875 L394,235.1875 " fill="none" style="stroke: #A80036; stroke-width: 1.0;"/><path d="M542,263.3359 L532,263.3359 C517,263.3359 517,207.0391 502,207.0391 L492,207.0391 " fill="none" style="stroke: #A80036; stroke-width: 1.0;"/><rect fill="#FEFECE" filter="url(#f13hq9sozitdfa)" height="36.2969" rx="12.5" ry="12.5" style="stroke: #A80036; stroke-width: 1.5;" width="48" x="444" y="273.3359"/><text fill="#000000" font-family="sans-serif" font-size="14" lengthAdjust="spacingAndGlyphs" textLength="28" x="454" y="296.3311">览器</text><rect fill="#FEFECE" filter="url(#f13hq9sozitdfa)" height="36.2969" rx="12.5" ry="12.5" style="stroke: #A80036; stroke-width: 1.5;" width="73" x="321" y="273.3359"/><text fill="#000000" font-family="sans-serif" font-size="14" lengthAdjust="spacingAndGlyphs" textLength="53" x="331" y="296.3311">chrome</text><path d="M444,291.4844 L434,291.4844 C419,291.4844 419,291.4844 404,291.4844 L394,291.4844 " fill="none" style="stroke: #A80036; stroke-width: 1.0;"/><path d="M542,263.3359 L532,263.3359 C517,263.3359 517,291.4844 502,291.4844 L492,291.4844 " fill="none" style="stroke: #A80036; stroke-width: 1.0;"/><rect fill="#FEFECE" filter="url(#f13hq9sozitdfa)" height="36.2969" rx="12.5" ry="12.5" style="stroke: #A80036; stroke-width: 1.5;" width="62" x="430" y="329.6328"/><text fill="#000000" font-family="sans-serif" font-size="14" lengthAdjust="spacingAndGlyphs" textLength="42" x="440" y="352.6279">编辑器</text><rect fill="#FEFECE" filter="url(#f13hq9sozitdfa)" height="36.2969" rx="12.5" ry="12.5" style="stroke: #A80036; stroke-width: 1.5;" width="370" x="10" y="329.6328"/><text fill="#000000" font-family="sans-serif" font-size="14" lengthAdjust="spacingAndGlyphs" textLength="350" x="20" y="352.6279">在编辑器里可用键盘完成所有操作（少用鼠标和触摸板）</text><path d="M430,347.7813 L420,347.7813 C405,347.7813 405,347.7813 390,347.7813 L380,347.7813 " fill="none" style="stroke: #A80036; stroke-width: 1.0;"/><path d="M542,263.3359 L532,263.3359 C517,263.3359 517,347.7813 502,347.7813 L492,347.7813 " fill="none" style="stroke: #A80036; stroke-width: 1.0;"/><path d="M668,291.4844 L658,291.4844 C643,291.4844 643,263.3359 628,263.3359 L618,263.3359 " fill="none" style="stroke: #A80036; stroke-width: 1.0;"/><rect fill="#FEFECE" filter="url(#f13hq9sozitdfa)" height="36.2969" rx="12.5" ry="12.5" style="stroke: #A80036; stroke-width: 1.5;" width="90" x="528" y="385.9297"/><text fill="#000000" font-family="sans-serif" font-size="14" lengthAdjust="spacingAndGlyphs" textLength="70" x="538" y="408.9248">怎么问问题</text><rect fill="#FEFECE" filter="url(#f13hq9sozitdfa)" height="36.2969" rx="12.5" ry="12.5" style="stroke: #A80036; stroke-width: 1.5;" width="166" x="312" y="385.9297"/><text fill="#000000" font-family="sans-serif" font-size="14" lengthAdjust="spacingAndGlyphs" textLength="146" x="322" y="408.9248">多用google，少用百度</text><path d="M528,404.0781 L518,404.0781 C503,404.0781 503,404.0781 488,404.0781 L478,404.0781 " fill="none" style="stroke: #A80036; stroke-width: 1.0;"/><path d="M668,291.4844 L658,291.4844 C643,291.4844 643,404.0781 628,404.0781 L618,404.0781 " fill="none" style="stroke: #A80036; stroke-width: 1.0;"/><!--MD5=[3ee092ceccad85a56fe7ec636f59a453]
@startmindmap
* 预备课必备知识
** 命令行操作
*** linux文件和目录
**** 文件和文件夹操作
**** 变更工作目录
*** 命令行快捷键
**** 如何让你的操作更快捷
** 软件管理
*** brew
** git
*** github创建项目
*** git项目管理
**** init
**** clone
**** add
**** commit
**** push
left side
** 核心工具
*** 终端
**** terminal
**** iTerm
*** 览器
**** chrome
*** 编辑器
**** 在编辑器里可用键盘完成所有操作（少用鼠标和触摸板）
** 怎么问问题
*** 多用google，少用百度
@endmindmap

PlantUML version 1.2020.00(Sat Jan 11 20:30:53 CST 2020)
(GPL source distribution)
Java Runtime: OpenJDK Runtime Environment
JVM: OpenJDK 64-Bit Server VM
Java Version: 11.0.6+10-post-Ubuntu-1ubuntu119.10.1
Operating System: Linux
Default Encoding: UTF-8
Language: en
Country: US
--></g></svg>