<?xml version="1.0" encoding="UTF-8" standalone="no"?><svg xmlns="http://www.w3.org/2000/svg" xmlns:xlink="http://www.w3.org/1999/xlink" contentScriptType="application/ecmascript" contentStyleType="text/css" height="287px" preserveAspectRatio="none" style="width:159px;height:287px;" version="1.1" viewBox="0 0 159 287" width="159px" zoomAndPan="magnify"><defs><filter height="300%" id="f9mtypqksxuam" width="300%" x="-1" y="-1"><feGaussianBlur result="blurOut" stdDeviation="2.0"/><feColorMatrix in="blurOut" result="blurOut2" type="matrix" values="0 0 0 0 0 0 0 0 0 0 0 0 0 0 0 0 0 0 .4 0"/><feOffset dx="4.0" dy="4.0" in="blurOut2" result="blurOut3"/><feBlend in="SourceGraphic" in2="blurOut3" mode="normal"/></filter></defs><g><ellipse cx="79" cy="20" fill="#000000" filter="url(#f9mtypqksxuam)" rx="10" ry="10" style="stroke: none; stroke-width: 1.0;"/><rect fill="#FEFECE" filter="url(#f9mtypqksxuam)" height="37.3761" rx="12.5" ry="12.5" style="stroke: #A80036; stroke-width: 1.5;" width="56" x="51" y="50"/><text fill="#000000" font-family="sans-serif" font-size="12" lengthAdjust="spacingAndGlyphs" textLength="36" x="61" y="73.9201">预备课</text><rect fill="#FEFECE" filter="url(#f9mtypqksxuam)" height="37.3761" rx="12.5" ry="12.5" style="stroke: #A80036; stroke-width: 1.5;" width="56" x="51" y="107.3761"/><text fill="#000000" font-family="sans-serif" font-size="12" lengthAdjust="spacingAndGlyphs" textLength="36" x="61" y="131.2962">基础课</text><polygon fill="#FEFECE" filter="url(#f9mtypqksxuam)" points="67,164.7522,91,164.7522,103,176.7522,91,188.7522,67,188.7522,55,176.7522,67,164.7522" style="stroke: #A80036; stroke-width: 1.5;"/><text fill="#000000" font-family="sans-serif" font-size="11" lengthAdjust="spacingAndGlyphs" textLength="22" x="68" y="181.5482">分班</text><rect fill="#FEFECE" filter="url(#f9mtypqksxuam)" height="37.3761" rx="12.5" ry="12.5" style="stroke: #A80036; stroke-width: 1.5;" width="59" x="10" y="198.7522"/><text fill="#000000" font-family="sans-serif" font-size="12" lengthAdjust="spacingAndGlyphs" textLength="36" x="23" y="222.6723">前端班</text><ellipse cx="39.5" cy="266.1284" fill="#FFFFFF" filter="url(#f9mtypqksxuam)" rx="10" ry="10" style="stroke: #000000; stroke-width: 1.5;"/><line style="stroke: #000000; stroke-width: 2.5;" x1="33.3128" x2="45.6872" y1="259.9412" y2="272.3155"/><line style="stroke: #000000; stroke-width: 2.5;" x1="45.6872" x2="33.3128" y1="259.9412" y2="272.3155"/><rect fill="#FEFECE" filter="url(#f9mtypqksxuam)" height="37.3761" rx="12.5" ry="12.5" style="stroke: #A80036; stroke-width: 1.5;" width="59" x="89" y="198.7522"/><text fill="#000000" font-family="sans-serif" font-size="12" lengthAdjust="spacingAndGlyphs" textLength="36" x="102" y="222.6723">后端班</text><ellipse cx="118.5" cy="266.1284" fill="#FFFFFF" filter="url(#f9mtypqksxuam)" rx="10" ry="10" style="stroke: #000000; stroke-width: 1.5;"/><line style="stroke: #000000; stroke-width: 2.5;" x1="112.3128" x2="124.6872" y1="259.9412" y2="272.3155"/><line style="stroke: #000000; stroke-width: 2.5;" x1="124.6872" x2="112.3128" y1="259.9412" y2="272.3155"/><line style="stroke: #A80036; stroke-width: 1.5;" x1="79" x2="79" y1="30" y2="50"/><polygon fill="#A80036" points="75,40,79,50,83,40,79,44" style="stroke: #A80036; stroke-width: 1.0;"/><line style="stroke: #A80036; stroke-width: 1.5;" x1="79" x2="79" y1="87.3761" y2="107.3761"/><polygon fill="#A80036" points="75,97.3761,79,107.3761,83,97.3761,79,101.3761" style="stroke: #A80036; stroke-width: 1.0;"/><line style="stroke: #A80036; stroke-width: 1.5;" x1="39.5" x2="39.5" y1="236.1284" y2="256.1284"/><polygon fill="#A80036" points="35.5,246.1284,39.5,256.1284,43.5,246.1284,39.5,250.1284" style="stroke: #A80036; stroke-width: 1.0;"/><line style="stroke: #A80036; stroke-width: 1.5;" x1="118.5" x2="118.5" y1="236.1284" y2="256.1284"/><polygon fill="#A80036" points="114.5,246.1284,118.5,256.1284,122.5,246.1284,118.5,250.1284" style="stroke: #A80036; stroke-width: 1.0;"/><line style="stroke: #A80036; stroke-width: 1.5;" x1="55" x2="39.5" y1="176.7522" y2="176.7522"/><line style="stroke: #A80036; stroke-width: 1.5;" x1="39.5" x2="39.5" y1="176.7522" y2="198.7522"/><polygon fill="#A80036" points="35.5,188.7522,39.5,198.7522,43.5,188.7522,39.5,192.7522" style="stroke: #A80036; stroke-width: 1.0;"/><line style="stroke: #A80036; stroke-width: 1.5;" x1="103" x2="118.5" y1="176.7522" y2="176.7522"/><line style="stroke: #A80036; stroke-width: 1.5;" x1="118.5" x2="118.5" y1="176.7522" y2="198.7522"/><polygon fill="#A80036" points="114.5,188.7522,118.5,198.7522,122.5,188.7522,118.5,192.7522" style="stroke: #A80036; stroke-width: 1.0;"/><line style="stroke: #A80036; stroke-width: 1.5;" x1="79" x2="79" y1="144.7522" y2="164.7522"/><polygon fill="#A80036" points="75,154.7522,79,164.7522,83,154.7522,79,158.7522" style="stroke: #A80036; stroke-width: 1.0;"/><!--MD5=[c19c5909d799fc631114d6fe5256871e]
@startuml
start
:预备课;
:基础课;
if (分班) then
   : 前端班;
   end
else
   : 后端班;
   end
endif

@enduml

PlantUML version 1.2020.06(Sun Apr 05 20:38:32 CST 2020)
(GPL source distribution)
Java Runtime: OpenJDK Runtime Environment
JVM: OpenJDK 64-Bit Server VM
Java Version: 11.0.8+10-post-Ubuntu-0ubuntu120.04
Operating System: Linux
Default Encoding: UTF-8
Language: en
Country: US
--></g></svg>